<svg xmlns="http://www.w3.org/2000/svg" xmlns:xlink="http://www.w3.org/1999/xlink" viewBox="0 0 24 24" fill="#5B5B5B">
  <path d="M12 0C5.363281 0 0 5.363281 0 12C0 18.636719 5.363281 24 12 24C18.636719 24 24 18.636719 24 12C24 5.363281 18.636719 0 12 0 Z M 12 2C17.566406 2 22 6.433594 22 12C22 17.566406 17.566406 22 12 22C6.433594 22 2 17.566406 2 12C2 6.433594 6.433594 2 12 2 Z M 8 8C6.894531 8 6 8.894531 6 10C6 11.105469 6.894531 12 8 12C9.105469 12 10 11.105469 10 10C10 8.894531 9.105469 8 8 8 Z M 16 8C14.894531 8 14 8.894531 14 10C14 11.105469 14.894531 12 16 12C17.105469 12 18 11.105469 18 10C18 8.894531 17.105469 8 16 8 Z M 7.8125 14.84375L6.1875 15.96875C7.464844 17.828125 9.582031 19 12 19C14.417969 19 16.535156 17.828125 17.8125 15.96875L16.1875 14.84375C15.265625 16.183594 13.78125 17 12 17C10.21875 17 8.734375 16.183594 7.8125 14.84375Z" fill="#5B5B5B" />
</svg>