<?xml version="1.0" encoding="utf-8"?>
<svg xmlns="http://www.w3.org/2000/svg" viewBox="0 0 24 24" width="96" height="96">
  <path d="M14.998047 1.9980469L8.9980469 2.0039062L7.1640625 4L4 4C2.9 4 2 4.9 2 6L2 18C2 19.1 2.9 20 4 20L20 20C21.1 20 22 19.1 22 18L22 6C22 4.9 21.1 4 20 4L16.84375 4L14.998047 1.9980469 z M 14.121094 3.9980469L15.966797 6L20 6L20 18L4 18L4 6L8.0429688 6L9.8789062 4.0019531L14.121094 3.9980469 z M 12 7C9.239 7 7 9.239 7 12C7 14.761 9.239 17 12 17C14.761 17 17 14.761 17 12C17 9.239 14.761 7 12 7 z M 12 9C13.657 9 15 10.343 15 12C15 13.657 13.657 15 12 15C10.343 15 9 13.657 9 12C9 10.343 10.343 9 12 9 z" fill="#9D9D9D" />
</svg>