<svg xmlns="http://www.w3.org/2000/svg" xmlns:xlink="http://www.w3.org/1999/xlink" width="500" zoomAndPan="magnify" viewBox="0 0 375 374.999991" height="500" preserveAspectRatio="xMidYMid meet" version="1.0"><defs><g/><clipPath id="b7c53b499a"><path d="M 120 101 L 266 101 L 266 218 L 120 218 Z M 120 101 " clip-rule="nonzero"/></clipPath><clipPath id="bd275fcafe"><path d="M 85.597656 123.878906 L 226.113281 65.261719 L 289.347656 216.851562 L 148.835938 275.46875 Z M 85.597656 123.878906 " clip-rule="nonzero"/></clipPath><clipPath id="8022b2c51a"><path d="M 85.597656 123.878906 L 226.113281 65.261719 L 289.347656 216.851562 L 148.835938 275.46875 Z M 85.597656 123.878906 " clip-rule="nonzero"/></clipPath><clipPath id="e7f7acb74b"><path d="M 100 115.007812 L 193 115.007812 L 193 220 L 100 220 Z M 100 115.007812 " clip-rule="nonzero"/></clipPath><clipPath id="fd7b822480"><path d="M 204 147.269531 L 282 147.269531 L 282 214 L 204 214 Z M 204 147.269531 " clip-rule="nonzero"/></clipPath><clipPath id="5c94bad792"><path d="M 180.226562 163 L 227 163 L 227 219.699219 L 180.226562 219.699219 Z M 180.226562 163 " clip-rule="nonzero"/></clipPath><clipPath id="c3f43f9c87"><path d="M 218 111 L 238 111 L 238 129 L 218 129 Z M 218 111 " clip-rule="nonzero"/></clipPath><clipPath id="a8dcc7cfa0"><path d="M 220.207031 109.527344 L 238.566406 113.328125 L 234.921875 130.953125 L 216.558594 127.152344 Z M 220.207031 109.527344 " clip-rule="nonzero"/></clipPath><clipPath id="7542dd30db"><path d="M 220.207031 109.527344 L 238.566406 113.328125 L 234.921875 130.953125 L 216.558594 127.152344 Z M 220.207031 109.527344 " clip-rule="nonzero"/></clipPath><clipPath id="9041eea92a"><path d="M 187.5 123.6875 L 228 123.6875 L 228 152.1875 L 187.5 152.1875 Z M 187.5 123.6875 " clip-rule="nonzero"/></clipPath><clipPath id="4e22807afe"><path d="M 175.109375 202 L 193.109375 202 L 193.109375 219.984375 L 175.109375 219.984375 Z M 175.109375 202 " clip-rule="nonzero"/></clipPath></defs><rect x="-37.5" width="450" fill="#ffffff" y="-37.499999" height="449.999989" fill-opacity="1"/><rect x="-37.5" width="450" fill="#ffffff" y="-37.499999" height="449.999989" fill-opacity="1"/><g clip-path="url(#b7c53b499a)"><g clip-path="url(#bd275fcafe)"><g clip-path="url(#8022b2c51a)"><path fill="#01a58d" d="M 167.898438 101.214844 C 196.339844 98.347656 205.46875 127.253906 219.398438 132.640625 C 233.324219 138.027344 261.542969 149.890625 265.417969 185.367188 C 269.71875 224.769531 221.324219 204.183594 192.339844 213.347656 C 137.867188 230.578125 111.632812 186.289062 122.398438 158.40625 C 133.160156 130.527344 131.207031 104.933594 167.898438 101.214844 Z M 167.898438 101.214844 " fill-opacity="1" fill-rule="nonzero"/></g></g></g><g clip-path="url(#e7f7acb74b)"><path fill="#ffffff" d="M 190.761719 135.648438 C 187.898438 134.824219 182.210938 132.824219 179.816406 131.859375 C 176.195312 130.402344 177.082031 127.589844 175.359375 126.414062 C 173.636719 125.238281 168.867188 123.179688 165.820312 123.960938 C 165.023438 120.664062 164.402344 115.023438 164.402344 115.023438 C 164.402344 115.023438 157.457031 122.097656 157.867188 127.140625 C 153.710938 128.019531 154.242188 140.742188 149.738281 151.707031 C 147.320312 157.597656 108.042969 181.640625 111.929688 207.257812 C 109.542969 207.390625 106.980469 207.4375 104.863281 204.078125 C 101.71875 199.105469 102.566406 190.121094 102.566406 190.121094 C 102.566406 190.121094 97.925781 198.777344 101.226562 206.714844 C 103.800781 212.914062 110.382812 213.3125 112.105469 213.972656 C 109.324219 217.503906 111.488281 218.949219 115.726562 219.496094 C 119.96875 220.042969 142.757812 219.742188 147.265625 219.496094 C 151.769531 219.246094 147.679688 213.871094 143.820312 213.648438 C 139.960938 213.425781 134.542969 213.117188 134.542969 213.117188 C 134.542969 213.117188 146.335938 214.210938 145.289062 204.71875 C 144.386719 196.507812 135.664062 191.523438 135.527344 191.292969 C 136.285156 191.320312 142.507812 194.914062 145.953125 202.601562 C 147.78125 205.996094 162.316406 192.734375 162.316406 192.734375 C 162.316406 192.734375 166.433594 219.804688 169.347656 219.804688 C 172.261719 219.804688 176.460938 219.804688 179.242188 219.804688 C 180.257812 219.804688 181.035156 219.5 180.046875 217.1875 C 179.691406 216.359375 174.40625 216.144531 173.941406 215.035156 C 172.164062 210.773438 173.058594 203.726562 170.589844 194.742188 C 170.058594 190.71875 173.542969 176.292969 175.53125 167.328125 C 177.007812 160.6875 172.917969 147.152344 173.765625 146.484375 C 175.753906 144.910156 181.820312 146.902344 188.429688 144.011719 C 191.257812 142.773438 191.292969 139.25 191.785156 138.886719 C 193.046875 137.957031 191.488281 135.855469 190.761719 135.648438 " fill-opacity="1" fill-rule="nonzero"/></g><g clip-path="url(#fd7b822480)"><path fill="#ffffff" d="M 220.796875 177.371094 C 220.796875 177.371094 221.929688 188.023438 223.066406 189.300781 C 224.203125 190.578125 225.339844 207.054688 223.777344 208.472656 C 222.214844 209.894531 220.367188 210.460938 220.226562 211.882812 C 220.085938 213.300781 225.199219 213.019531 225.625 212.875 C 226.050781 212.734375 230.453125 196.6875 231.445312 195.835938 C 232.441406 194.980469 231.164062 201.65625 232.296875 203.503906 C 233.433594 205.347656 236.84375 207.335938 236.84375 207.335938 L 236.84375 208.472656 C 236.84375 208.472656 232.867188 207.761719 232.441406 208.757812 C 232.015625 209.753906 231.445312 211.597656 232.726562 211.742188 C 234.003906 211.882812 237.695312 211.882812 237.695312 211.882812 C 237.695312 211.882812 237.554688 212.980469 244.371094 213 C 251.1875 213.019531 257.863281 212.023438 257.863281 212.023438 L 270.785156 211.457031 C 270.785156 211.457031 269.792969 212.269531 270.785156 213 C 271.78125 213.730469 281.152344 213.300781 281.722656 211.597656 C 282.289062 209.894531 280.300781 206.628906 273.910156 206.769531 C 267.519531 206.910156 259.140625 209.46875 258.429688 205.492188 C 257.71875 201.515625 260.277344 193.277344 253.742188 183.335938 C 247.210938 173.394531 241.8125 177.230469 239.117188 173.539062 C 236.417969 169.84375 234.855469 165.441406 235.707031 161.464844 C 236.558594 157.488281 237.835938 151.242188 235.992188 150.105469 C 234.144531 148.96875 231.304688 153.65625 231.304688 153.65625 C 231.304688 153.65625 225.480469 152.800781 225.199219 153.226562 C 224.914062 153.65625 223.066406 149.925781 223.066406 149.925781 C 223.066406 149.925781 222.5 153.511719 222.785156 154.082031 C 223.066406 154.648438 220.9375 155.644531 220.796875 156.210938 C 220.652344 156.777344 219.085938 158.625 220.222656 160.328125 C 221.363281 162.035156 222.074219 163.453125 221.789062 164.589844 C 221.503906 165.726562 221.503906 165.726562 221.503906 165.726562 C 221.503906 165.726562 213.835938 159.335938 211.136719 156.777344 C 208.441406 154.222656 209.292969 153.796875 208.296875 151.242188 C 207.304688 148.683594 205.742188 147.265625 204.746094 148.117188 C 203.753906 148.96875 204.460938 150.671875 204.746094 150.957031 C 205.03125 151.242188 205.03125 151.808594 204.890625 152.519531 C 204.746094 153.226562 204.746094 154.363281 205.882812 154.648438 C 207.019531 154.933594 206.878906 158.765625 207.871094 159.902344 C 208.867188 161.039062 215.824219 175.097656 220.796875 177.371094 " fill-opacity="1" fill-rule="nonzero"/></g><g clip-path="url(#5c94bad792)"><path fill="#ffffff" d="M 221.214844 210.246094 C 221.214844 210.246094 222.554688 200.558594 214.875 191.339844 C 207.195312 182.121094 200.5 186.675781 200.5 186.675781 C 200.5 186.675781 197.820312 182.925781 198.625 180.871094 C 199.429688 178.820312 202.730469 175.785156 203.179688 172.210938 C 203.625 168.640625 205.679688 163.910156 203.714844 163.820312 C 201.75 163.730469 198.089844 175.070312 198.089844 175.070312 C 198.089844 175.070312 204.964844 155.960938 196.75 166.496094 C 193.597656 170.542969 192.554688 176.675781 192.554688 176.675781 C 192.554688 176.675781 189.605469 177.390625 189.25 178.195312 C 188.894531 178.996094 185.054688 180.160156 182.820312 183.460938 C 180.589844 186.765625 180.234375 187.835938 180.945312 189.175781 C 181.660156 190.515625 184.429688 193.640625 186.480469 192.925781 L 187.464844 194.265625 C 187.464844 194.265625 185.144531 202.835938 193.269531 209.445312 C 193.269531 209.445312 194.429688 213.015625 193.894531 214.445312 C 193.359375 215.871094 191.480469 216.855469 191.480469 217.746094 C 191.480469 218.640625 193.535156 219.53125 195.589844 219.085938 C 197.644531 218.640625 196.660156 219.207031 196.660156 219.207031 C 196.660156 219.207031 203 219.265625 203.804688 218.820312 C 204.605469 218.371094 204.605469 217.03125 204.605469 217.03125 C 204.605469 217.03125 205.945312 218.730469 206.394531 218.550781 C 206.839844 218.371094 213.894531 220.042969 214.605469 219.207031 C 215.320312 218.371094 217.019531 218.820312 217.019531 218.820312 C 217.019531 218.820312 219.25 215.960938 219.964844 214.53125 C 220.679688 213.105469 221.054688 216.585938 223.980469 214.800781 C 226.90625 213.015625 227.195312 206.496094 221.214844 210.246094 " fill-opacity="1" fill-rule="nonzero"/></g><g clip-path="url(#c3f43f9c87)"><g clip-path="url(#a8dcc7cfa0)"><g clip-path="url(#7542dd30db)"><path fill="#01a58d" d="M 228.382812 116.21875 C 229.375 111.425781 220.21875 109.53125 218.867188 116.066406 C 217.695312 121.726562 223.347656 124.363281 225.746094 128.960938 C 229.773438 125.691406 236.007812 125.519531 237.179688 119.855469 C 238.53125 113.320312 229.375 111.425781 228.382812 116.21875 " fill-opacity="1" fill-rule="nonzero"/></g></g></g><g clip-path="url(#9041eea92a)"><path fill="#ffffff" d="M 189.746094 131.472656 C 189.746094 131.472656 187.914062 131.386719 187.703125 129.089844 C 187.703125 129.089844 187.53125 127.984375 188.296875 126.789062 C 188.296875 126.789062 188.378906 125.429688 189.746094 124.664062 C 191.113281 123.898438 191.789062 123.6875 193.195312 123.726562 C 194.597656 123.761719 195.28125 123.9375 195.28125 123.9375 C 195.28125 123.9375 199.964844 126.277344 200.472656 127.8125 C 200.472656 127.8125 205.070312 129.515625 205.753906 130.027344 C 206.4375 130.539062 209.203125 132.371094 209.925781 132.410156 C 210.648438 132.453125 211.375 132.492188 211.796875 132.75 C 212.222656 133.003906 223.847656 141.515625 224.953125 144.453125 C 224.953125 144.453125 223.417969 144.5 222.140625 143.476562 C 222.140625 143.476562 224.230469 145.773438 224.355469 147.007812 C 224.355469 147.007812 224.273438 146.964844 223.546875 146.496094 C 223.546875 146.496094 227.078125 150.839844 227.804688 151.816406 C 227.804688 151.816406 227.421875 151.5625 227.121094 151.386719 C 227.121094 151.386719 227.613281 151.980469 227.625 152.1875 C 227.625 152.1875 226.746094 151.773438 226.394531 151.515625 C 226.042969 151.261719 224.171875 149.664062 223.820312 148.898438 C 223.820312 148.898438 219.210938 146.292969 218.359375 144.652344 C 218.359375 144.652344 215.339844 144.042969 214.753906 143.535156 L 211 143.226562 C 211 143.226562 210.945312 144.269531 210.722656 144.601562 C 210.5 144.933594 208.851562 147.332031 207.730469 145.109375 L 207.289062 145.128906 C 207.289062 145.128906 208.882812 147.683594 208.519531 148.214844 C 208.15625 148.746094 207.957031 149.128906 207.128906 148.96875 C 207.128906 148.96875 208.105469 148.757812 207.816406 148.234375 C 207.816406 148.234375 206.554688 149.097656 206.09375 148.316406 C 206.09375 148.316406 207.210938 148.367188 207.050781 147.371094 C 207.050781 147.371094 207.230469 145.40625 205.488281 145.007812 C 203.742188 144.613281 204.242188 146.402344 204.242188 146.402344 C 204.242188 146.402344 204.019531 146.464844 203.828125 145.902344 C 203.828125 145.902344 203.636719 146 203.648438 145.617188 C 203.660156 145.234375 203.425781 144.289062 205.582031 143.902344 C 205.582031 143.902344 206.890625 143.617188 207.273438 143.851562 C 207.273438 143.851562 206.746094 143.085938 206.777344 142.492188 C 206.777344 142.492188 202.160156 141.472656 200.742188 139.25 C 199.324219 137.027344 196.113281 133.738281 196.113281 133.738281 C 196.113281 133.738281 194.292969 130.652344 193.046875 130.527344 C 193.046875 130.527344 192.28125 129.886719 192.039062 129.898438 C 191.796875 129.914062 190.421875 130.761719 189.179688 129.882812 C 189.179688 129.882812 189.09375 130.074219 189 130.027344 C 188.902344 129.984375 189.214844 131.085938 189.746094 131.472656 Z M 189.746094 131.472656 " fill-opacity="1" fill-rule="nonzero"/></g><g clip-path="url(#4e22807afe)"><path fill="#ffffff" d="M 188.410156 213.769531 C 188.535156 214.277344 188.238281 214.582031 188.09375 214.945312 C 187.960938 214.921875 188.035156 214.800781 187.945312 214.746094 C 187.625 215.894531 186.96875 216.839844 186.121094 217.777344 C 188.445312 217.644531 190.527344 218.070312 192.339844 219.472656 C 190.304688 218.785156 188.226562 218.628906 186.050781 218.851562 C 186.164062 218.984375 186.253906 219.066406 186.3125 219.164062 C 186.484375 219.449219 186.359375 219.671875 186.027344 219.667969 C 185.902344 219.667969 185.78125 219.679688 185.667969 219.742188 C 185.472656 219.851562 185.269531 219.863281 185.058594 219.785156 C 184.976562 219.753906 184.890625 219.722656 184.808594 219.75 C 184.410156 219.878906 184.09375 219.722656 183.8125 219.46875 C 183.640625 219.3125 183.496094 219.296875 183.277344 219.382812 C 181.855469 219.945312 180.421875 220.058594 178.96875 219.496094 C 178.789062 219.425781 178.605469 219.382812 178.410156 219.398438 C 177.859375 219.445312 177.421875 219.210938 177.050781 218.835938 C 176.207031 217.980469 175.761719 216.917969 175.558594 215.761719 C 175.109375 213.179688 175.796875 210.898438 177.460938 208.894531 C 177.792969 208.496094 178.15625 208.128906 178.527344 207.769531 C 178.746094 207.558594 178.792969 207.1875 179.238281 207.113281 C 179.027344 207.042969 178.925781 207.167969 178.8125 207.125 C 178.808594 207.109375 178.800781 207.078125 178.804688 207.074219 C 179.296875 206.816406 179.550781 206.339844 179.886719 205.933594 C 179.972656 205.832031 179.789062 205.644531 180.03125 205.597656 C 180.183594 205.570312 180.324219 205.460938 180.46875 205.386719 C 180.621094 205.308594 180.777344 205.234375 180.925781 205.148438 C 181.253906 204.972656 181.253906 204.96875 180.996094 204.707031 C 180.464844 204.175781 180.410156 203.453125 180.847656 202.792969 C 181.234375 202.210938 181.957031 201.984375 182.617188 202.238281 C 182.917969 202.355469 183.167969 202.542969 183.40625 202.753906 C 183.503906 202.84375 183.597656 202.886719 183.738281 202.851562 C 184.34375 202.710938 184.953125 202.714844 185.558594 202.84375 C 185.738281 202.882812 185.832031 202.839844 185.925781 202.679688 C 186.183594 202.234375 186.578125 202 187.09375 202.054688 C 187.894531 202.132812 188.300781 202.820312 188.015625 203.578125 C 187.984375 203.65625 187.964844 203.75 187.914062 203.8125 C 187.601562 204.199219 187.703125 204.570312 187.902344 204.972656 C 188.082031 205.328125 188.203125 205.714844 188.351562 206.085938 C 188.390625 206.183594 188.433594 206.28125 188.488281 206.371094 C 188.785156 206.839844 188.785156 206.839844 189.3125 206.683594 C 190.222656 206.410156 191.144531 206.3125 191.796875 206.445312 C 191.304688 206.480469 190.808594 206.515625 190.328125 206.632812 C 189.851562 206.746094 189.386719 206.90625 188.945312 207.148438 C 189.523438 207.140625 190.09375 207.042969 190.664062 207.101562 C 191.234375 207.164062 191.792969 207.269531 192.300781 207.558594 C 191.308594 207.277344 190.304688 207.320312 189.300781 207.453125 C 189.726562 207.515625 190.148438 207.597656 190.566406 207.710938 C 190.988281 207.824219 191.398438 207.960938 191.757812 208.234375 C 191.042969 208.015625 190.3125 207.941406 189.578125 207.867188 C 190.800781 208.191406 191.976562 208.617188 193.050781 209.296875 C 191.78125 208.785156 190.445312 208.507812 189.128906 208.144531 C 189.597656 208.398438 190.078125 208.632812 190.523438 208.917969 C 190.980469 209.207031 191.429688 209.5 191.796875 209.90625 C 190.933594 209.378906 190.0625 208.890625 189.105469 208.539062 C 189.796875 209.085938 190.484375 209.636719 191.078125 210.378906 C 190.90625 210.335938 190.847656 210.246094 190.78125 210.179688 C 190.320312 209.730469 189.816406 209.339844 189.285156 208.976562 C 189.121094 208.867188 189.042969 208.882812 189.054688 209.089844 C 189.070312 209.410156 188.890625 209.675781 188.769531 209.941406 C 188.6875 210.113281 188.703125 210.347656 188.644531 210.417969 C 188.378906 210.726562 188.777344 210.894531 188.738281 211.117188 C 188.699219 211.335938 188.785156 211.570312 188.734375 211.746094 C 188.636719 212.089844 188.8125 212.378906 188.792969 212.695312 C 188.785156 212.769531 188.9375 212.953125 188.679688 212.890625 C 188.679688 212.957031 188.664062 213.023438 188.675781 213.085938 C 188.726562 213.335938 188.679688 213.582031 188.652344 213.828125 C 188.644531 213.882812 188.632812 213.960938 188.578125 213.96875 C 188.488281 213.976562 188.503906 213.871094 188.410156 213.769531 Z M 185.730469 209.214844 C 186.042969 209.300781 186.351562 209.328125 186.632812 209.136719 C 186.753906 209.050781 186.851562 209.058594 186.976562 209.117188 C 187.160156 209.207031 187.355469 209.25 187.59375 209.140625 C 187.183594 209.09375 187.015625 208.96875 186.992188 208.648438 C 186.964844 208.261719 186.921875 207.855469 187.3125 207.585938 C 187.414062 207.519531 187.46875 207.410156 187.425781 207.28125 C 187.382812 207.152344 187.269531 207.121094 187.148438 207.117188 C 187.015625 207.113281 186.878906 207.117188 186.75 207.140625 C 186.625 207.164062 186.464844 207.164062 186.433594 207.332031 C 186.402344 207.488281 186.519531 207.574219 186.621094 207.664062 C 186.710938 207.742188 186.835938 207.78125 186.875 207.921875 C 186.96875 208.292969 186.746094 208.871094 186.425781 209.066406 C 186.210938 209.199219 185.96875 209.171875 185.730469 209.214844 Z M 183.378906 208.183594 C 182.648438 208.304688 181.207031 208.914062 180.949219 209.183594 C 181.761719 208.851562 182.570312 208.515625 183.378906 208.183594 Z M 183.378906 208.183594 " fill-opacity="1" fill-rule="nonzero"/></g><g fill="#01a58d" fill-opacity="1"><g transform="translate(96.930611, 260.400261)"><g><path d="M 11.765625 -13.109375 C 12.898438 -13.109375 13.769531 -13.367188 14.375 -13.890625 C 14.976562 -14.410156 15.28125 -15.207031 15.28125 -16.28125 C 15.28125 -17.300781 14.960938 -18.085938 14.328125 -18.640625 C 13.703125 -19.191406 12.78125 -19.46875 11.5625 -19.46875 C 11.132812 -19.46875 10.78125 -19.460938 10.5 -19.453125 C 10.21875 -19.441406 9.929688 -19.40625 9.640625 -19.34375 L 9.640625 -13.109375 Z M 9.671875 -0.15625 C 9.378906 -0.0820312 8.914062 -0.00390625 8.28125 0.078125 C 7.65625 0.160156 7.03125 0.203125 6.40625 0.203125 C 5.789062 0.203125 5.25 0.15625 4.78125 0.0625 C 4.3125 -0.03125 3.914062 -0.195312 3.59375 -0.4375 C 3.269531 -0.6875 3.023438 -1.023438 2.859375 -1.453125 C 2.703125 -1.878906 2.625 -2.441406 2.625 -3.140625 L 2.625 -22.125 C 2.625 -22.695312 2.773438 -23.132812 3.078125 -23.4375 C 3.390625 -23.75 3.816406 -24 4.359375 -24.1875 C 5.265625 -24.507812 6.300781 -24.742188 7.46875 -24.890625 C 8.644531 -25.035156 9.820312 -25.109375 11 -25.109375 C 14.707031 -25.109375 17.539062 -24.316406 19.5 -22.734375 C 21.46875 -21.148438 22.453125 -19 22.453125 -16.28125 C 22.453125 -14.96875 22.242188 -13.78125 21.828125 -12.71875 C 21.410156 -11.65625 20.789062 -10.738281 19.96875 -9.96875 C 19.15625 -9.207031 18.125 -8.617188 16.875 -8.203125 C 15.625 -7.785156 14.175781 -7.578125 12.53125 -7.578125 L 9.671875 -7.578125 Z M 9.671875 -0.15625 "/></g></g></g><g fill="#01a58d" fill-opacity="1"><g transform="translate(121.602079, 260.400261)"><g><path d="M 2.625 -20.6875 C 2.625 -21.832031 2.957031 -22.738281 3.625 -23.40625 C 4.300781 -24.082031 5.21875 -24.421875 6.375 -24.421875 L 19.671875 -24.421875 C 19.859375 -24.128906 20.023438 -23.738281 20.171875 -23.25 C 20.316406 -22.769531 20.390625 -22.265625 20.390625 -21.734375 C 20.390625 -20.710938 20.164062 -19.984375 19.71875 -19.546875 C 19.28125 -19.117188 18.703125 -18.90625 17.984375 -18.90625 L 9.46875 -18.90625 L 9.46875 -15.15625 L 18.546875 -15.15625 C 18.734375 -14.863281 18.898438 -14.476562 19.046875 -14 C 19.191406 -13.53125 19.265625 -13.03125 19.265625 -12.5 C 19.265625 -11.476562 19.050781 -10.75 18.625 -10.3125 C 18.195312 -9.882812 17.617188 -9.671875 16.890625 -9.671875 L 9.46875 -9.671875 L 9.46875 -5.4375 L 19.828125 -5.4375 C 20.015625 -5.144531 20.179688 -4.753906 20.328125 -4.265625 C 20.484375 -3.785156 20.5625 -3.273438 20.5625 -2.734375 C 20.5625 -1.710938 20.335938 -0.976562 19.890625 -0.53125 C 19.453125 -0.09375 18.867188 0.125 18.140625 0.125 L 6.375 0.125 C 5.21875 0.125 4.300781 -0.207031 3.625 -0.875 C 2.957031 -1.550781 2.625 -2.46875 2.625 -3.625 Z M 2.625 -20.6875 "/></g></g></g><g fill="#01a58d" fill-opacity="1"><g transform="translate(144.94323, 260.400261)"><g><path d="M 1.484375 -18.78125 C 1.296875 -19.082031 1.117188 -19.488281 0.953125 -20 C 0.796875 -20.507812 0.71875 -21.046875 0.71875 -21.609375 C 0.71875 -22.660156 0.953125 -23.410156 1.421875 -23.859375 C 1.898438 -24.316406 2.515625 -24.546875 3.265625 -24.546875 L 20.84375 -24.546875 C 21.03125 -24.253906 21.203125 -23.851562 21.359375 -23.34375 C 21.523438 -22.832031 21.609375 -22.296875 21.609375 -21.734375 C 21.609375 -20.679688 21.375 -19.925781 20.90625 -19.46875 C 20.4375 -19.007812 19.820312 -18.78125 19.0625 -18.78125 L 14.59375 -18.78125 L 14.59375 -0.15625 C 14.300781 -0.0820312 13.835938 -0.00390625 13.203125 0.078125 C 12.566406 0.160156 11.941406 0.203125 11.328125 0.203125 C 10.710938 0.203125 10.164062 0.15625 9.6875 0.0625 C 9.21875 -0.03125 8.820312 -0.195312 8.5 -0.4375 C 8.175781 -0.6875 7.929688 -1.023438 7.765625 -1.453125 C 7.609375 -1.878906 7.53125 -2.441406 7.53125 -3.140625 L 7.53125 -18.78125 Z M 1.484375 -18.78125 "/></g></g></g><g fill="#01a58d" fill-opacity="1"><g transform="translate(168.606886, 260.400261)"><g/></g></g><g fill="#01a58d" fill-opacity="1"><g transform="translate(177.919287, 260.400261)"><g><path d="M 9.546875 -9.71875 C 8.367188 -10.113281 7.296875 -10.519531 6.328125 -10.9375 C 5.359375 -11.351562 4.523438 -11.859375 3.828125 -12.453125 C 3.128906 -13.046875 2.582031 -13.75 2.1875 -14.5625 C 1.800781 -15.382812 1.609375 -16.390625 1.609375 -17.578125 C 1.609375 -19.859375 2.488281 -21.679688 4.25 -23.046875 C 6.007812 -24.421875 8.476562 -25.109375 11.65625 -25.109375 C 12.8125 -25.109375 13.882812 -25.023438 14.875 -24.859375 C 15.863281 -24.703125 16.710938 -24.457031 17.421875 -24.125 C 18.140625 -23.789062 18.703125 -23.359375 19.109375 -22.828125 C 19.515625 -22.304688 19.71875 -21.695312 19.71875 -21 C 19.71875 -20.300781 19.554688 -19.703125 19.234375 -19.203125 C 18.910156 -18.710938 18.519531 -18.289062 18.0625 -17.9375 C 17.46875 -18.3125 16.671875 -18.640625 15.671875 -18.921875 C 14.679688 -19.203125 13.597656 -19.34375 12.421875 -19.34375 C 11.210938 -19.34375 10.320312 -19.175781 9.75 -18.84375 C 9.1875 -18.507812 8.90625 -18.085938 8.90625 -17.578125 C 8.90625 -17.171875 9.078125 -16.835938 9.421875 -16.578125 C 9.773438 -16.328125 10.300781 -16.097656 11 -15.890625 L 13.140625 -15.203125 C 15.671875 -14.390625 17.613281 -13.359375 18.96875 -12.109375 C 20.320312 -10.859375 21 -9.160156 21 -7.015625 C 21 -4.734375 20.097656 -2.882812 18.296875 -1.46875 C 16.492188 -0.0625 13.847656 0.640625 10.359375 0.640625 C 9.117188 0.640625 7.96875 0.539062 6.90625 0.34375 C 5.851562 0.144531 4.925781 -0.144531 4.125 -0.53125 C 3.332031 -0.925781 2.710938 -1.410156 2.265625 -1.984375 C 1.828125 -2.566406 1.609375 -3.234375 1.609375 -3.984375 C 1.609375 -4.765625 1.835938 -5.429688 2.296875 -5.984375 C 2.753906 -6.535156 3.253906 -6.957031 3.796875 -7.25 C 4.546875 -6.664062 5.460938 -6.15625 6.546875 -5.71875 C 7.640625 -5.289062 8.832031 -5.078125 10.125 -5.078125 C 11.4375 -5.078125 12.359375 -5.273438 12.890625 -5.671875 C 13.429688 -6.078125 13.703125 -6.550781 13.703125 -7.09375 C 13.703125 -7.632812 13.488281 -8.046875 13.0625 -8.328125 C 12.632812 -8.609375 12.03125 -8.882812 11.25 -9.15625 Z M 9.546875 -9.71875 "/></g></g></g><g fill="#01a58d" fill-opacity="1"><g transform="translate(201.381378, 260.400261)"><g><path d="M 11.765625 -13.109375 C 12.898438 -13.109375 13.769531 -13.367188 14.375 -13.890625 C 14.976562 -14.410156 15.28125 -15.207031 15.28125 -16.28125 C 15.28125 -17.300781 14.960938 -18.085938 14.328125 -18.640625 C 13.703125 -19.191406 12.78125 -19.46875 11.5625 -19.46875 C 11.132812 -19.46875 10.78125 -19.460938 10.5 -19.453125 C 10.21875 -19.441406 9.929688 -19.40625 9.640625 -19.34375 L 9.640625 -13.109375 Z M 9.671875 -0.15625 C 9.378906 -0.0820312 8.914062 -0.00390625 8.28125 0.078125 C 7.65625 0.160156 7.03125 0.203125 6.40625 0.203125 C 5.789062 0.203125 5.25 0.15625 4.78125 0.0625 C 4.3125 -0.03125 3.914062 -0.195312 3.59375 -0.4375 C 3.269531 -0.6875 3.023438 -1.023438 2.859375 -1.453125 C 2.703125 -1.878906 2.625 -2.441406 2.625 -3.140625 L 2.625 -22.125 C 2.625 -22.695312 2.773438 -23.132812 3.078125 -23.4375 C 3.390625 -23.75 3.816406 -24 4.359375 -24.1875 C 5.265625 -24.507812 6.300781 -24.742188 7.46875 -24.890625 C 8.644531 -25.035156 9.820312 -25.109375 11 -25.109375 C 14.707031 -25.109375 17.539062 -24.316406 19.5 -22.734375 C 21.46875 -21.148438 22.453125 -19 22.453125 -16.28125 C 22.453125 -14.96875 22.242188 -13.78125 21.828125 -12.71875 C 21.410156 -11.65625 20.789062 -10.738281 19.96875 -9.96875 C 19.15625 -9.207031 18.125 -8.617188 16.875 -8.203125 C 15.625 -7.785156 14.175781 -7.578125 12.53125 -7.578125 L 9.671875 -7.578125 Z M 9.671875 -0.15625 "/></g></g></g><g fill="#01a58d" fill-opacity="1"><g transform="translate(226.052847, 260.400261)"><g><path d="M 1.40625 -12.25 C 1.40625 -14.351562 1.734375 -16.207031 2.390625 -17.8125 C 3.054688 -19.425781 3.957031 -20.773438 5.09375 -21.859375 C 6.238281 -22.953125 7.582031 -23.78125 9.125 -24.34375 C 10.675781 -24.914062 12.351562 -25.203125 14.15625 -25.203125 C 15.945312 -25.203125 17.613281 -24.914062 19.15625 -24.34375 C 20.707031 -23.78125 22.0625 -22.953125 23.21875 -21.859375 C 24.375 -20.773438 25.28125 -19.425781 25.9375 -17.8125 C 26.59375 -16.207031 26.921875 -14.351562 26.921875 -12.25 C 26.921875 -10.15625 26.597656 -8.296875 25.953125 -6.671875 C 25.316406 -5.046875 24.425781 -3.6875 23.28125 -2.59375 C 22.132812 -1.507812 20.78125 -0.6875 19.21875 -0.125 C 17.664062 0.4375 15.976562 0.71875 14.15625 0.71875 C 12.320312 0.71875 10.625 0.429688 9.0625 -0.140625 C 7.507812 -0.722656 6.164062 -1.5625 5.03125 -2.65625 C 3.90625 -3.757812 3.019531 -5.117188 2.375 -6.734375 C 1.726562 -8.347656 1.40625 -10.1875 1.40625 -12.25 Z M 8.671875 -12.25 C 8.671875 -9.8125 9.164062 -7.984375 10.15625 -6.765625 C 11.15625 -5.554688 12.488281 -4.953125 14.15625 -4.953125 C 15.84375 -4.953125 17.179688 -5.554688 18.171875 -6.765625 C 19.171875 -7.984375 19.671875 -9.8125 19.671875 -12.25 C 19.671875 -14.675781 19.179688 -16.492188 18.203125 -17.703125 C 17.222656 -18.910156 15.882812 -19.515625 14.1875 -19.515625 C 12.519531 -19.515625 11.179688 -18.914062 10.171875 -17.71875 C 9.171875 -16.519531 8.671875 -14.695312 8.671875 -12.25 Z M 8.671875 -12.25 "/></g></g></g><g fill="#01a58d" fill-opacity="1"><g transform="translate(255.642437, 260.400261)"><g><path d="M 1.484375 -18.78125 C 1.296875 -19.082031 1.117188 -19.488281 0.953125 -20 C 0.796875 -20.507812 0.71875 -21.046875 0.71875 -21.609375 C 0.71875 -22.660156 0.953125 -23.410156 1.421875 -23.859375 C 1.898438 -24.316406 2.515625 -24.546875 3.265625 -24.546875 L 20.84375 -24.546875 C 21.03125 -24.253906 21.203125 -23.851562 21.359375 -23.34375 C 21.523438 -22.832031 21.609375 -22.296875 21.609375 -21.734375 C 21.609375 -20.679688 21.375 -19.925781 20.90625 -19.46875 C 20.4375 -19.007812 19.820312 -18.78125 19.0625 -18.78125 L 14.59375 -18.78125 L 14.59375 -0.15625 C 14.300781 -0.0820312 13.835938 -0.00390625 13.203125 0.078125 C 12.566406 0.160156 11.941406 0.203125 11.328125 0.203125 C 10.710938 0.203125 10.164062 0.15625 9.6875 0.0625 C 9.21875 -0.03125 8.820312 -0.195312 8.5 -0.4375 C 8.175781 -0.6875 7.929688 -1.023438 7.765625 -1.453125 C 7.609375 -1.878906 7.53125 -2.441406 7.53125 -3.140625 L 7.53125 -18.78125 Z M 1.484375 -18.78125 "/></g></g></g><g fill="#000000" fill-opacity="1"><g transform="translate(101.99815, 291.692062)"><g><path d="M 7.875 -2.5 L 2.5625 -2.5 L 1.453125 0 L -0.015625 0 L 4.515625 -10 L 5.921875 -10 L 10.46875 0 L 8.96875 0 Z M 7.375 -3.640625 L 5.21875 -8.546875 L 3.0625 -3.640625 Z M 7.375 -3.640625 "/></g></g></g><g fill="#000000" fill-opacity="1"><g transform="translate(112.669247, 291.692062)"><g><path d="M 1.5 -10 L 5.71875 -10 C 6.769531 -10 7.703125 -9.785156 8.515625 -9.359375 C 9.335938 -8.941406 9.972656 -8.351562 10.421875 -7.59375 C 10.878906 -6.84375 11.109375 -5.976562 11.109375 -5 C 11.109375 -4.019531 10.878906 -3.148438 10.421875 -2.390625 C 9.972656 -1.628906 9.335938 -1.039062 8.515625 -0.625 C 7.703125 -0.207031 6.769531 0 5.71875 0 L 1.5 0 Z M 5.625 -1.25 C 6.4375 -1.25 7.148438 -1.40625 7.765625 -1.71875 C 8.378906 -2.03125 8.851562 -2.46875 9.1875 -3.03125 C 9.519531 -3.601562 9.6875 -4.257812 9.6875 -5 C 9.6875 -5.738281 9.519531 -6.390625 9.1875 -6.953125 C 8.851562 -7.523438 8.378906 -7.96875 7.765625 -8.28125 C 7.148438 -8.59375 6.4375 -8.75 5.625 -8.75 L 2.921875 -8.75 L 2.921875 -1.25 Z M 5.625 -1.25 "/></g></g></g><g fill="#000000" fill-opacity="1"><g transform="translate(124.683148, 291.692062)"><g><path d="M 6.015625 0.109375 C 5.003906 0.109375 4.09375 -0.109375 3.28125 -0.546875 C 2.476562 -0.992188 1.84375 -1.609375 1.375 -2.390625 C 0.914062 -3.171875 0.6875 -4.039062 0.6875 -5 C 0.6875 -5.957031 0.914062 -6.828125 1.375 -7.609375 C 1.84375 -8.390625 2.476562 -9 3.28125 -9.4375 C 4.09375 -9.882812 5.003906 -10.109375 6.015625 -10.109375 C 7.015625 -10.109375 7.914062 -9.882812 8.71875 -9.4375 C 9.53125 -9 10.164062 -8.390625 10.625 -7.609375 C 11.082031 -6.835938 11.3125 -5.96875 11.3125 -5 C 11.3125 -4.03125 11.082031 -3.15625 10.625 -2.375 C 10.164062 -1.601562 9.53125 -0.992188 8.71875 -0.546875 C 7.914062 -0.109375 7.015625 0.109375 6.015625 0.109375 Z M 6.015625 -1.15625 C 6.742188 -1.15625 7.398438 -1.320312 7.984375 -1.65625 C 8.578125 -1.988281 9.039062 -2.445312 9.375 -3.03125 C 9.707031 -3.613281 9.875 -4.269531 9.875 -5 C 9.875 -5.71875 9.707031 -6.367188 9.375 -6.953125 C 9.039062 -7.546875 8.578125 -8.007812 7.984375 -8.34375 C 7.398438 -8.675781 6.742188 -8.84375 6.015625 -8.84375 C 5.273438 -8.84375 4.609375 -8.675781 4.015625 -8.34375 C 3.421875 -8.007812 2.953125 -7.546875 2.609375 -6.953125 C 2.273438 -6.367188 2.109375 -5.71875 2.109375 -5 C 2.109375 -4.269531 2.273438 -3.613281 2.609375 -3.03125 C 2.953125 -2.445312 3.421875 -1.988281 4.015625 -1.65625 C 4.609375 -1.320312 5.273438 -1.15625 6.015625 -1.15625 Z M 6.015625 -1.15625 "/></g></g></g><g fill="#000000" fill-opacity="1"><g transform="translate(136.897035, 291.692062)"><g><path d="M 5.96875 0.109375 C 4.96875 0.109375 4.066406 -0.109375 3.265625 -0.546875 C 2.460938 -0.992188 1.832031 -1.601562 1.375 -2.375 C 0.914062 -3.15625 0.6875 -4.03125 0.6875 -5 C 0.6875 -5.96875 0.914062 -6.835938 1.375 -7.609375 C 1.832031 -8.390625 2.460938 -9 3.265625 -9.4375 C 4.078125 -9.882812 4.984375 -10.109375 5.984375 -10.109375 C 6.765625 -10.109375 7.476562 -9.976562 8.125 -9.71875 C 8.769531 -9.457031 9.320312 -9.066406 9.78125 -8.546875 L 8.859375 -7.65625 C 8.097656 -8.445312 7.160156 -8.84375 6.046875 -8.84375 C 5.296875 -8.84375 4.617188 -8.675781 4.015625 -8.34375 C 3.421875 -8.007812 2.953125 -7.546875 2.609375 -6.953125 C 2.273438 -6.367188 2.109375 -5.71875 2.109375 -5 C 2.109375 -4.269531 2.273438 -3.613281 2.609375 -3.03125 C 2.953125 -2.445312 3.421875 -1.988281 4.015625 -1.65625 C 4.617188 -1.320312 5.296875 -1.15625 6.046875 -1.15625 C 7.160156 -1.15625 8.097656 -1.554688 8.859375 -2.359375 L 9.78125 -1.453125 C 9.320312 -0.941406 8.765625 -0.550781 8.109375 -0.28125 C 7.460938 -0.0195312 6.75 0.109375 5.96875 0.109375 Z M 5.390625 3.203125 C 4.890625 3.203125 4.46875 3.097656 4.125 2.890625 L 4.421875 2.1875 C 4.703125 2.34375 5.023438 2.421875 5.390625 2.421875 C 5.921875 2.421875 6.1875 2.234375 6.1875 1.859375 C 6.1875 1.679688 6.117188 1.539062 5.984375 1.4375 C 5.859375 1.34375 5.65625 1.296875 5.375 1.296875 L 4.984375 1.296875 L 5.34375 -0.09375 L 6.125 -0.09375 L 5.921875 0.71875 C 6.316406 0.75 6.617188 0.867188 6.828125 1.078125 C 7.046875 1.296875 7.15625 1.570312 7.15625 1.90625 C 7.15625 2.300781 6.992188 2.613281 6.671875 2.84375 C 6.347656 3.082031 5.921875 3.203125 5.390625 3.203125 Z M 5.390625 3.203125 "/></g></g></g><g fill="#000000" fill-opacity="1"><g transform="translate(147.439569, 291.692062)"><g><path d="M 7.875 -2.5 L 2.5625 -2.5 L 1.453125 0 L -0.015625 0 L 4.515625 -10 L 5.921875 -10 L 10.46875 0 L 8.96875 0 Z M 7.375 -3.640625 L 5.21875 -8.546875 L 3.0625 -3.640625 Z M 6.234375 -10.859375 C 6.003906 -10.859375 5.804688 -10.90625 5.640625 -11 C 5.472656 -11.09375 5.265625 -11.234375 5.015625 -11.421875 C 4.867188 -11.554688 4.742188 -11.65625 4.640625 -11.71875 C 4.535156 -11.78125 4.429688 -11.8125 4.328125 -11.8125 C 4.117188 -11.8125 3.945312 -11.734375 3.8125 -11.578125 C 3.6875 -11.421875 3.617188 -11.203125 3.609375 -10.921875 L 2.828125 -10.921875 C 2.847656 -11.453125 2.984375 -11.875 3.234375 -12.1875 C 3.492188 -12.507812 3.828125 -12.671875 4.234375 -12.671875 C 4.460938 -12.671875 4.664062 -12.617188 4.84375 -12.515625 C 5.019531 -12.421875 5.222656 -12.273438 5.453125 -12.078125 C 5.609375 -11.941406 5.734375 -11.84375 5.828125 -11.78125 C 5.921875 -11.726562 6.019531 -11.703125 6.125 -11.703125 C 6.332031 -11.703125 6.503906 -11.773438 6.640625 -11.921875 C 6.773438 -12.078125 6.847656 -12.285156 6.859375 -12.546875 L 7.625 -12.546875 C 7.613281 -12.035156 7.476562 -11.625 7.21875 -11.3125 C 6.96875 -11.007812 6.640625 -10.859375 6.234375 -10.859375 Z M 6.234375 -10.859375 "/></g></g></g><g fill="#000000" fill-opacity="1"><g transform="translate(158.110669, 291.692062)"><g><path d="M 6.015625 0.109375 C 5.003906 0.109375 4.09375 -0.109375 3.28125 -0.546875 C 2.476562 -0.992188 1.84375 -1.609375 1.375 -2.390625 C 0.914062 -3.171875 0.6875 -4.039062 0.6875 -5 C 0.6875 -5.957031 0.914062 -6.828125 1.375 -7.609375 C 1.84375 -8.390625 2.476562 -9 3.28125 -9.4375 C 4.09375 -9.882812 5.003906 -10.109375 6.015625 -10.109375 C 7.015625 -10.109375 7.914062 -9.882812 8.71875 -9.4375 C 9.53125 -9 10.164062 -8.390625 10.625 -7.609375 C 11.082031 -6.835938 11.3125 -5.96875 11.3125 -5 C 11.3125 -4.03125 11.082031 -3.15625 10.625 -2.375 C 10.164062 -1.601562 9.53125 -0.992188 8.71875 -0.546875 C 7.914062 -0.109375 7.015625 0.109375 6.015625 0.109375 Z M 6.015625 -1.15625 C 6.742188 -1.15625 7.398438 -1.320312 7.984375 -1.65625 C 8.578125 -1.988281 9.039062 -2.445312 9.375 -3.03125 C 9.707031 -3.613281 9.875 -4.269531 9.875 -5 C 9.875 -5.71875 9.707031 -6.367188 9.375 -6.953125 C 9.039062 -7.546875 8.578125 -8.007812 7.984375 -8.34375 C 7.398438 -8.675781 6.742188 -8.84375 6.015625 -8.84375 C 5.273438 -8.84375 4.609375 -8.675781 4.015625 -8.34375 C 3.421875 -8.007812 2.953125 -7.546875 2.609375 -6.953125 C 2.273438 -6.367188 2.109375 -5.71875 2.109375 -5 C 2.109375 -4.269531 2.273438 -3.613281 2.609375 -3.03125 C 2.953125 -2.445312 3.421875 -1.988281 4.015625 -1.65625 C 4.609375 -1.320312 5.273438 -1.15625 6.015625 -1.15625 Z M 6.015625 -1.15625 "/></g></g></g><g fill="#000000" fill-opacity="1"><g transform="translate(170.324558, 291.692062)"><g/></g></g><g fill="#000000" fill-opacity="1"><g transform="translate(174.38166, 291.692062)"><g><path d="M 5.96875 0.109375 C 4.96875 0.109375 4.066406 -0.109375 3.265625 -0.546875 C 2.460938 -0.992188 1.832031 -1.601562 1.375 -2.375 C 0.914062 -3.15625 0.6875 -4.03125 0.6875 -5 C 0.6875 -5.96875 0.914062 -6.835938 1.375 -7.609375 C 1.832031 -8.390625 2.460938 -9 3.265625 -9.4375 C 4.078125 -9.882812 4.984375 -10.109375 5.984375 -10.109375 C 6.765625 -10.109375 7.476562 -9.976562 8.125 -9.71875 C 8.769531 -9.457031 9.320312 -9.066406 9.78125 -8.546875 L 8.859375 -7.65625 C 8.097656 -8.445312 7.160156 -8.84375 6.046875 -8.84375 C 5.296875 -8.84375 4.617188 -8.675781 4.015625 -8.34375 C 3.421875 -8.007812 2.953125 -7.546875 2.609375 -6.953125 C 2.273438 -6.367188 2.109375 -5.71875 2.109375 -5 C 2.109375 -4.269531 2.273438 -3.613281 2.609375 -3.03125 C 2.953125 -2.445312 3.421875 -1.988281 4.015625 -1.65625 C 4.617188 -1.320312 5.296875 -1.15625 6.046875 -1.15625 C 7.160156 -1.15625 8.097656 -1.554688 8.859375 -2.359375 L 9.78125 -1.453125 C 9.320312 -0.941406 8.765625 -0.550781 8.109375 -0.28125 C 7.460938 -0.0195312 6.75 0.109375 5.96875 0.109375 Z M 5.96875 0.109375 "/></g></g></g><g fill="#000000" fill-opacity="1"><g transform="translate(184.924197, 291.692062)"><g><path d="M 6.015625 0.109375 C 5.003906 0.109375 4.09375 -0.109375 3.28125 -0.546875 C 2.476562 -0.992188 1.84375 -1.609375 1.375 -2.390625 C 0.914062 -3.171875 0.6875 -4.039062 0.6875 -5 C 0.6875 -5.957031 0.914062 -6.828125 1.375 -7.609375 C 1.84375 -8.390625 2.476562 -9 3.28125 -9.4375 C 4.09375 -9.882812 5.003906 -10.109375 6.015625 -10.109375 C 7.015625 -10.109375 7.914062 -9.882812 8.71875 -9.4375 C 9.53125 -9 10.164062 -8.390625 10.625 -7.609375 C 11.082031 -6.835938 11.3125 -5.96875 11.3125 -5 C 11.3125 -4.03125 11.082031 -3.15625 10.625 -2.375 C 10.164062 -1.601562 9.53125 -0.992188 8.71875 -0.546875 C 7.914062 -0.109375 7.015625 0.109375 6.015625 0.109375 Z M 6.015625 -1.15625 C 6.742188 -1.15625 7.398438 -1.320312 7.984375 -1.65625 C 8.578125 -1.988281 9.039062 -2.445312 9.375 -3.03125 C 9.707031 -3.613281 9.875 -4.269531 9.875 -5 C 9.875 -5.71875 9.707031 -6.367188 9.375 -6.953125 C 9.039062 -7.546875 8.578125 -8.007812 7.984375 -8.34375 C 7.398438 -8.675781 6.742188 -8.84375 6.015625 -8.84375 C 5.273438 -8.84375 4.609375 -8.675781 4.015625 -8.34375 C 3.421875 -8.007812 2.953125 -7.546875 2.609375 -6.953125 C 2.273438 -6.367188 2.109375 -5.71875 2.109375 -5 C 2.109375 -4.269531 2.273438 -3.613281 2.609375 -3.03125 C 2.953125 -2.445312 3.421875 -1.988281 4.015625 -1.65625 C 4.609375 -1.320312 5.273438 -1.15625 6.015625 -1.15625 Z M 6.015625 -1.15625 "/></g></g></g><g fill="#000000" fill-opacity="1"><g transform="translate(197.138086, 291.692062)"><g><path d="M 10.09375 -10 L 10.09375 0 L 8.921875 0 L 2.921875 -7.453125 L 2.921875 0 L 1.5 0 L 1.5 -10 L 2.671875 -10 L 8.671875 -2.546875 L 8.671875 -10 Z M 10.09375 -10 "/></g></g></g><g fill="#000000" fill-opacity="1"><g transform="translate(208.951993, 291.692062)"><g><path d="M 4.40625 0.109375 C 3.65625 0.109375 2.929688 -0.00390625 2.234375 -0.234375 C 1.535156 -0.460938 0.984375 -0.765625 0.578125 -1.140625 L 1.109375 -2.25 C 1.492188 -1.914062 1.984375 -1.640625 2.578125 -1.421875 C 3.171875 -1.203125 3.78125 -1.09375 4.40625 -1.09375 C 5.238281 -1.09375 5.859375 -1.234375 6.265625 -1.515625 C 6.679688 -1.796875 6.890625 -2.171875 6.890625 -2.640625 C 6.890625 -2.984375 6.773438 -3.257812 6.546875 -3.46875 C 6.328125 -3.6875 6.050781 -3.851562 5.71875 -3.96875 C 5.394531 -4.082031 4.929688 -4.210938 4.328125 -4.359375 C 3.578125 -4.535156 2.96875 -4.710938 2.5 -4.890625 C 2.039062 -5.078125 1.644531 -5.359375 1.3125 -5.734375 C 0.988281 -6.109375 0.828125 -6.613281 0.828125 -7.25 C 0.828125 -7.78125 0.96875 -8.257812 1.25 -8.6875 C 1.53125 -9.125 1.957031 -9.46875 2.53125 -9.71875 C 3.101562 -9.976562 3.8125 -10.109375 4.65625 -10.109375 C 5.25 -10.109375 5.828125 -10.03125 6.390625 -9.875 C 6.960938 -9.726562 7.457031 -9.507812 7.875 -9.21875 L 7.390625 -8.078125 C 6.972656 -8.347656 6.523438 -8.550781 6.046875 -8.6875 C 5.578125 -8.820312 5.113281 -8.890625 4.65625 -8.890625 C 3.84375 -8.890625 3.234375 -8.742188 2.828125 -8.453125 C 2.429688 -8.160156 2.234375 -7.78125 2.234375 -7.3125 C 2.234375 -6.96875 2.34375 -6.6875 2.5625 -6.46875 C 2.789062 -6.257812 3.070312 -6.09375 3.40625 -5.96875 C 3.75 -5.851562 4.210938 -5.726562 4.796875 -5.59375 C 5.546875 -5.414062 6.148438 -5.234375 6.609375 -5.046875 C 7.066406 -4.867188 7.457031 -4.59375 7.78125 -4.21875 C 8.113281 -3.851562 8.28125 -3.359375 8.28125 -2.734375 C 8.28125 -2.203125 8.132812 -1.71875 7.84375 -1.28125 C 7.5625 -0.851562 7.128906 -0.515625 6.546875 -0.265625 C 5.972656 -0.015625 5.257812 0.109375 4.40625 0.109375 Z M 4.40625 0.109375 "/></g></g></g><g fill="#000000" fill-opacity="1"><g transform="translate(218.037446, 291.692062)"><g><path d="M 5.96875 0.109375 C 4.96875 0.109375 4.066406 -0.109375 3.265625 -0.546875 C 2.460938 -0.992188 1.832031 -1.601562 1.375 -2.375 C 0.914062 -3.15625 0.6875 -4.03125 0.6875 -5 C 0.6875 -5.96875 0.914062 -6.835938 1.375 -7.609375 C 1.832031 -8.390625 2.460938 -9 3.265625 -9.4375 C 4.078125 -9.882812 4.984375 -10.109375 5.984375 -10.109375 C 6.765625 -10.109375 7.476562 -9.976562 8.125 -9.71875 C 8.769531 -9.457031 9.320312 -9.066406 9.78125 -8.546875 L 8.859375 -7.65625 C 8.097656 -8.445312 7.160156 -8.84375 6.046875 -8.84375 C 5.296875 -8.84375 4.617188 -8.675781 4.015625 -8.34375 C 3.421875 -8.007812 2.953125 -7.546875 2.609375 -6.953125 C 2.273438 -6.367188 2.109375 -5.71875 2.109375 -5 C 2.109375 -4.269531 2.273438 -3.613281 2.609375 -3.03125 C 2.953125 -2.445312 3.421875 -1.988281 4.015625 -1.65625 C 4.617188 -1.320312 5.296875 -1.15625 6.046875 -1.15625 C 7.160156 -1.15625 8.097656 -1.554688 8.859375 -2.359375 L 9.78125 -1.453125 C 9.320312 -0.941406 8.765625 -0.550781 8.109375 -0.28125 C 7.460938 -0.0195312 6.75 0.109375 5.96875 0.109375 Z M 5.96875 0.109375 "/></g></g></g><g fill="#000000" fill-opacity="1"><g transform="translate(228.579983, 291.692062)"><g><path d="M 1.5 -10 L 2.921875 -10 L 2.921875 0 L 1.5 0 Z M 1.5 -10 "/></g></g></g><g fill="#000000" fill-opacity="1"><g transform="translate(233.222782, 291.692062)"><g><path d="M 8.75 -1.25 L 8.75 0 L 1.5 0 L 1.5 -10 L 8.546875 -10 L 8.546875 -8.75 L 2.921875 -8.75 L 2.921875 -5.6875 L 7.9375 -5.6875 L 7.9375 -4.46875 L 2.921875 -4.46875 L 2.921875 -1.25 Z M 8.75 -1.25 "/></g></g></g><g fill="#000000" fill-opacity="1"><g transform="translate(243.008212, 291.692062)"><g><path d="M 10.09375 -10 L 10.09375 0 L 8.921875 0 L 2.921875 -7.453125 L 2.921875 0 L 1.5 0 L 1.5 -10 L 2.671875 -10 L 8.671875 -2.546875 L 8.671875 -10 Z M 10.09375 -10 "/></g></g></g><g fill="#000000" fill-opacity="1"><g transform="translate(254.822119, 291.692062)"><g><path d="M 3.484375 -8.75 L 0.0625 -8.75 L 0.0625 -10 L 8.328125 -10 L 8.328125 -8.75 L 4.90625 -8.75 L 4.90625 0 L 3.484375 0 Z M 3.484375 -8.75 "/></g></g></g><g fill="#000000" fill-opacity="1"><g transform="translate(263.421884, 291.692062)"><g><path d="M 8.75 -1.25 L 8.75 0 L 1.5 0 L 1.5 -10 L 8.546875 -10 L 8.546875 -8.75 L 2.921875 -8.75 L 2.921875 -5.6875 L 7.9375 -5.6875 L 7.9375 -4.46875 L 2.921875 -4.46875 L 2.921875 -1.25 Z M 8.75 -1.25 "/></g></g></g></svg>