<svg xmlns="http://www.w3.org/2000/svg" xmlns:xlink="http://www.w3.org/1999/xlink" width="500" zoomAndPan="magnify" viewBox="0 0 375 374.999991" height="500" preserveAspectRatio="xMidYMid meet" version="1.0"><defs><g/><clipPath id="d41aeae7a3"><path d="M 244 141 L 258.207031 141 L 258.207031 181 L 244 181 Z M 244 141 " clip-rule="nonzero"/></clipPath><clipPath id="4d6bdf5b94"><path d="M 108.207031 107 L 258 107 L 258 250.261719 L 108.207031 250.261719 Z M 108.207031 107 " clip-rule="nonzero"/></clipPath><clipPath id="5504dad17f"><path d="M 175.808594 212.042969 L 218.195312 212.042969 L 218.195312 250.292969 L 175.808594 250.292969 Z M 175.808594 212.042969 " clip-rule="nonzero"/></clipPath><clipPath id="7569312610"><path d="M 175.445312 227.792969 L 175.445312 234.324219 C 175.445312 243.023438 182.496094 250.074219 191.195312 250.074219 L 202.808594 250.074219 C 211.507812 250.074219 218.558594 243.023438 218.558594 234.324219 L 218.558594 227.792969 C 218.558594 219.09375 211.507812 212.042969 202.808594 212.042969 L 191.195312 212.042969 C 182.496094 212.042969 175.445312 219.09375 175.445312 227.792969 Z M 175.445312 227.792969 " clip-rule="nonzero"/></clipPath><clipPath id="824747a23e"><path d="M 100.28125 69.441406 L 248 69.441406 L 248 119.691406 L 100.28125 119.691406 Z M 100.28125 69.441406 " clip-rule="nonzero"/></clipPath></defs><rect x="-37.5" width="450" fill="#ffffff" y="-37.499999" height="449.999989" fill-opacity="1"/><rect x="-37.5" width="450" fill="#ffffff" y="-37.499999" height="449.999989" fill-opacity="1"/><g clip-path="url(#d41aeae7a3)"><path fill="#01a58d" d="M 257.492188 171.730469 C 257.339844 170.328125 257.164062 168.957031 256.984375 167.675781 L 256.953125 167.675781 C 255.582031 158.496094 252.304688 149.640625 247.445312 141.742188 C 248.042969 147.375 247.175781 153.128906 244.792969 158.285156 C 249.085938 160.671875 252.929688 164.25 254.449219 169.046875 L 254.449219 169.078125 C 255.703125 172.832031 254.777344 177.542969 258.027344 180.433594 C 257.878906 177.484375 257.730469 174.59375 257.492188 171.730469 Z M 257.492188 171.730469 " fill-opacity="1" fill-rule="nonzero"/></g><path fill="#01a58d" d="M 125.375 150.683594 L 125.464844 150.683594 C 128.117188 145.289062 132.203125 140.699219 137.03125 137.121094 C 136.375 133.8125 135.691406 130.503906 135.300781 127.164062 C 128.835938 133.695312 123.289062 141.265625 119.621094 149.730469 L 119.535156 149.703125 C 117.507812 154.621094 115.746094 159.6875 114.792969 164.933594 C 117.566406 162.996094 120.277344 161.027344 123.050781 159.089844 C 123.4375 156.171875 124.214844 153.367188 125.375 150.683594 Z M 125.375 150.683594 " fill-opacity="1" fill-rule="nonzero"/><g clip-path="url(#4d6bdf5b94)"><path fill="#01a58d" d="M 250.84375 175.25 C 250.871094 173.101562 250.367188 171.015625 249.472656 169.136719 C 248.90625 167.914062 248.191406 166.871094 247.386719 165.949219 C 247.324219 165.859375 247.234375 165.796875 247.175781 165.710938 C 247.117188 165.648438 247.058594 165.558594 246.96875 165.5 C 246.164062 164.636719 245.238281 163.859375 244.195312 163.234375 C 241.125 161.238281 238.113281 160.582031 238.113281 160.582031 C 241.273438 156.4375 243.003906 151.011719 242.914062 145.765625 C 237.457031 148.03125 232.421875 151.3125 227.980469 155.1875 C 228.070312 154.710938 228.246094 153.753906 228.335938 153.277344 C 228.726562 148.957031 228.574219 144.425781 226.964844 140.339844 C 226.519531 139.507812 225.980469 137.6875 224.671875 138.464844 C 219.453125 140.429688 215.816406 145.171875 213.253906 149.941406 C 212.269531 152.265625 211.613281 154.710938 211.195312 157.183594 C 210.691406 157.628906 210.183594 158.078125 209.734375 158.585938 C 204.519531 162.640625 199.421875 166.960938 195.339844 172.148438 L 195.339844 172.238281 C 193.492188 174.265625 192.03125 176.589844 190.660156 178.945312 C 191.941406 174.742188 194.175781 170.925781 196.292969 167.109375 L 196.648438 166.992188 C 194.207031 161.058594 191.074219 155.394531 187.4375 150.089844 C 184.785156 146.214844 181.597656 142.726562 178.289062 139.417969 C 176.679688 137.867188 174.980469 136.40625 173.28125 134.976562 C 172.773438 131.785156 171.789062 128.6875 170.804688 125.617188 C 167.914062 118.789062 164.367188 111.367188 157.421875 107.878906 C 156.4375 114.078125 155.246094 120.25 154.351562 126.449219 C 153.902344 128.835938 153.605469 131.21875 153.335938 133.632812 C 150.445312 128.535156 146.71875 123.738281 141.710938 120.609375 C 141.382812 127.285156 142.964844 133.871094 144.722656 140.253906 C 140.011719 141.980469 136.347656 146.035156 133.277344 149.96875 C 130.859375 153.605469 129.222656 157.898438 129.550781 162.3125 C 127.3125 164.070312 124.898438 165.621094 122.664062 167.378906 L 122.605469 167.347656 C 118.90625 170.03125 115.121094 172.59375 111.457031 175.277344 C 108.207031 177.722656 108.324219 182.609375 110.589844 185.679688 L 110.769531 185.652344 C 112.886719 188.632812 114.644531 192.058594 117.683594 194.238281 C 120.816406 196.53125 124.871094 197.484375 128.683594 196.742188 C 133.425781 195.875 138.132812 194.980469 142.875 194.148438 C 148.539062 193.164062 154.203125 190.839844 158.136719 186.574219 C 158.285156 186.546875 158.613281 186.484375 158.761719 186.457031 C 158.253906 187.230469 157.75 188.007812 157.242188 188.78125 C 154.53125 192.179688 150.683594 194.207031 147.226562 196.679688 C 143.828125 199.484375 144.902344 204.222656 145.289062 208.007812 L 145.40625 208.007812 C 145.648438 210.273438 145.648438 212.570312 146.125 214.773438 C 146.332031 217.546875 146.691406 220.320312 146.929688 223.09375 C 144.515625 221.066406 142.335938 218.800781 140.3125 216.386719 C 136.941406 212.210938 134.109375 207.679688 131.875 202.820312 C 126.835938 204.101562 121.53125 203.535156 116.820312 201.421875 C 119.027344 208.128906 122.214844 214.535156 126.269531 220.320312 C 128.445312 223.300781 130.652344 226.371094 133.394531 228.875 C 143.679688 239.933594 157.6875 247.328125 172.503906 250.070312 C 171.28125 246.402344 171.671875 242.4375 172.863281 238.800781 C 174.234375 234.6875 174.949219 230.367188 175.007812 226.042969 C 175.246094 223.867188 174.828125 221.691406 173.964844 219.695312 C 172.832031 220.648438 171.757812 221.960938 170.148438 222.019531 C 168.035156 222.347656 166.125 221.214844 164.097656 220.855469 C 162.28125 221.242188 162.578125 223.597656 162.160156 225 C 160.789062 223.570312 159.894531 221.871094 159.386719 220.050781 C 158.613281 217.191406 159.121094 214.121094 160.492188 211.496094 C 160.492188 211.464844 160.519531 211.464844 160.519531 211.4375 C 161.476562 209.617188 162.816406 208.066406 164.457031 206.875 C 164.664062 206.726562 164.875 206.578125 165.082031 206.429688 C 164.636719 203.089844 164.785156 199.066406 167.707031 196.800781 C 171.582031 193.847656 176.796875 193.9375 181.449219 193.9375 C 186.785156 194.445312 192.238281 193.550781 197.097656 191.285156 C 204.488281 188.421875 211.644531 182.640625 213.460938 174.59375 C 214.953125 181.539062 211.285156 188.664062 205.472656 192.449219 C 210.421875 191.792969 214.089844 188.183594 217.367188 184.757812 C 216.117188 189.109375 214.207031 193.3125 211.40625 196.917969 C 208.007812 200.792969 203 203.296875 197.78125 203 C 199.035156 203.714844 200.109375 204.667969 200.765625 205.980469 C 200.941406 208.039062 200.734375 210.09375 200.257812 212.09375 C 199.273438 215.996094 199.839844 220.050781 200.792969 223.867188 C 203.269531 232.0625 207.976562 239.425781 213.878906 245.566406 C 224.28125 240.949219 233.820312 234.121094 241.007812 225.238281 L 241.09375 225.207031 C 247.921875 217.25 252.601562 207.652344 255.492188 197.574219 C 253.464844 199.09375 251.050781 200.140625 249.5 202.226562 C 246.847656 205.324219 242.316406 204.996094 238.742188 204.132812 C 235.847656 209.917969 232.121094 215.222656 227.742188 219.933594 C 226.460938 215.878906 225.625 211.703125 225.207031 207.472656 C 224.9375 204.640625 224.820312 201.777344 225.175781 198.945312 C 225.503906 198.023438 225.863281 197.097656 226.222656 196.175781 C 232.839844 195.011719 238.234375 201.003906 244.851562 200.078125 C 246.492188 199.988281 247.085938 198.203125 247.207031 196.828125 C 251.113281 196.679688 253.496094 193.222656 255.792969 190.511719 C 256.804688 189.289062 258.207031 187.441406 256.925781 185.917969 C 254.183594 182.9375 251.023438 179.660156 250.84375 175.25 Z M 250.84375 175.25 " fill-opacity="1" fill-rule="nonzero"/></g><path fill="#01a58d" d="M 176.050781 121.175781 C 176.289062 121.113281 177.722656 120.816406 180.015625 120.578125 C 181.476562 120.429688 183.265625 120.339844 185.351562 120.371094 C 185.679688 120.398438 186.007812 120.398438 186.335938 120.398438 C 186.394531 120.398438 186.457031 120.398438 186.515625 120.398438 C 195.546875 120.695312 209.230469 123.289062 223.179688 134.050781 C 224.402344 133.8125 225.625 133.574219 226.847656 133.304688 C 230.960938 136.136719 232.449219 141.175781 232.957031 145.886719 C 237.042969 143.082031 241.632812 141.207031 246.429688 140.042969 C 243.867188 135.960938 240.828125 132.171875 237.457031 128.714844 C 228.546875 119.503906 217.097656 112.707031 204.726562 109.371094 C 191.105469 106.269531 180.074219 106.925781 173.996094 107.761719 C 173.964844 107.761719 173.90625 107.789062 173.875 107.789062 C 172.207031 108.058594 170.566406 108.386719 168.898438 108.714844 C 168.839844 108.714844 168.839844 108.742188 168.839844 108.742188 C 171.699219 112.589844 174.203125 116.703125 176.023438 121.144531 C 176.023438 121.175781 176.050781 121.175781 176.050781 121.175781 Z M 176.050781 121.175781 " fill-opacity="1" fill-rule="nonzero"/><g clip-path="url(#5504dad17f)"><g clip-path="url(#7569312610)"><path fill="#01a58d" d="M 187.863281 226.148438 L 187.691406 225.484375 C 187.683594 225.445312 187.667969 225.410156 187.648438 225.375 C 187.601562 225.292969 187.589844 225.203125 187.613281 225.101562 C 187.621094 225.0625 187.613281 225.03125 187.59375 224.996094 C 187.542969 224.90625 187.511719 224.832031 187.503906 224.777344 C 187.320312 223.355469 187.394531 221.847656 187.734375 220.257812 C 188.023438 218.878906 188.296875 217.5 188.550781 216.113281 C 188.777344 214.875 188.75 213.59375 188.464844 212.277344 C 188.441406 212.160156 188.386719 212.089844 188.308594 212.066406 C 188.257812 212.054688 188.1875 212.070312 188.089844 212.113281 C 185.609375 213.292969 182.382812 214.9375 182.113281 218.085938 C 182.097656 218.234375 182.078125 218.429688 182.050781 218.671875 C 181.992188 219.175781 182.105469 219.683594 182.144531 220.175781 C 182.171875 220.523438 182.214844 220.820312 182.269531 221.074219 C 182.554688 222.378906 182.90625 223.667969 183.328125 224.933594 C 183.429688 225.234375 183.539062 225.738281 183.65625 226.449219 C 183.660156 226.484375 183.644531 226.507812 183.613281 226.511719 C 182.535156 226.722656 181.5 227.15625 180.507812 227.8125 C 178.390625 229.207031 177.003906 231.144531 176.535156 233.613281 C 176.441406 234.101562 176.167969 234.574219 176.074219 234.960938 C 175.449219 237.507812 177.796875 239.363281 179.863281 240.160156 C 180.699219 240.480469 181.570312 240.660156 182.488281 240.695312 C 182.527344 240.699219 182.542969 240.71875 182.535156 240.757812 C 182.515625 240.84375 182.480469 240.902344 182.476562 240.992188 C 182.429688 242.316406 182.4375 243.3125 182.496094 243.96875 C 182.835938 247.605469 184.542969 250.671875 187.007812 253.296875 C 187.03125 253.324219 187.039062 253.351562 187.03125 253.382812 L 185.382812 260.507812 C 185.378906 260.53125 185.363281 260.546875 185.335938 260.550781 C 183.046875 260.898438 180.667969 262.132812 180.578125 264.757812 C 180.578125 264.796875 180.59375 264.816406 180.632812 264.816406 C 182.964844 264.808594 185.292969 264.808594 187.617188 264.8125 C 187.722656 264.8125 187.824219 264.808594 187.925781 264.796875 C 187.960938 264.789062 187.984375 264.777344 188.007812 264.75 L 194.914062 256.429688 C 194.957031 256.382812 194.996094 256.378906 195.039062 256.425781 L 198.8125 260.316406 C 198.824219 260.328125 198.824219 260.339844 198.820312 260.355469 C 198.8125 260.371094 198.800781 260.378906 198.785156 260.382812 C 198.175781 260.414062 197.570312 260.527344 196.972656 260.726562 C 195.417969 261.238281 194.375 262.269531 193.839844 263.8125 C 193.746094 264.085938 193.707031 264.40625 193.730469 264.785156 C 193.730469 264.820312 193.75 264.839844 193.785156 264.839844 C 199.214844 264.84375 204.644531 264.835938 210.070312 264.824219 C 210.753906 264.824219 211.28125 264.773438 211.65625 264.675781 C 213.648438 264.152344 215.398438 262.4375 216.441406 260.761719 C 217.535156 259.003906 218.175781 257.089844 218.371094 255.019531 C 218.496094 253.683594 218.472656 252.351562 218.296875 251.019531 C 218.070312 249.300781 217.574219 247.574219 216.8125 245.847656 C 213.75 238.921875 207.066406 234.960938 199.664062 234.402344 C 199.566406 234.394531 199.496094 234.34375 199.410156 234.34375 C 198.644531 234.3125 197.539062 234.28125 196.085938 234.246094 C 195.265625 234.226562 194.445312 234.066406 193.617188 233.972656 C 193.5625 233.96875 193.53125 233.9375 193.523438 233.878906 C 193.425781 233.070312 193.246094 232.277344 192.984375 231.503906 C 192.679688 230.605469 192.140625 229.648438 191.675781 228.75 C 191.632812 228.664062 191.625 228.511719 191.648438 228.292969 C 191.695312 227.871094 192.066406 227.230469 192.300781 226.96875 C 193.429688 225.6875 194.125 224.871094 194.390625 224.527344 C 195.488281 223.097656 196.28125 221.636719 196.777344 220.148438 C 197.609375 217.628906 198.460938 215.113281 199.324219 212.605469 C 199.359375 212.5 199.386719 212.402344 199.402344 212.308594 C 199.40625 212.269531 199.390625 212.257812 199.355469 212.265625 C 196.457031 212.945312 193.6875 214.136719 191.527344 216.210938 C 189.625 218.042969 188.484375 220.277344 188.113281 222.90625 C 187.976562 223.867188 187.910156 224.769531 187.90625 225.613281 C 187.90625 225.660156 187.902344 225.703125 187.894531 225.738281 C 187.886719 225.765625 187.882812 225.792969 187.890625 225.820312 C 187.910156 225.929688 187.914062 226.039062 187.894531 226.148438 C 187.882812 226.191406 187.875 226.191406 187.863281 226.148438 Z M 187.863281 226.148438 " fill-opacity="1" fill-rule="nonzero"/></g></g><g clip-path="url(#824747a23e)"><path fill="#01a58d" d="M 102.9375 119.066406 L 174.085938 73.039062 C 174.085938 73.039062 245.230469 119.066406 245.230469 119.066406 C 245.96875 119.542969 246.953125 119.332031 247.429688 118.597656 C 247.90625 117.859375 247.695312 116.875 246.957031 116.398438 C 246.957031 116.398438 174.949219 69.8125 174.949219 69.8125 C 174.421875 69.472656 173.746094 69.472656 173.222656 69.8125 C 173.222656 69.8125 101.210938 116.398438 101.210938 116.398438 C 100.476562 116.875 100.265625 117.859375 100.742188 118.597656 C 101.214844 119.332031 102.199219 119.542969 102.9375 119.066406 Z M 102.9375 119.066406 " fill-opacity="1" fill-rule="evenodd"/></g><path fill="#01a58d" d="M 191.675781 82.453125 L 204.761719 73.984375 C 204.761719 73.984375 272.027344 118.113281 272.027344 118.113281 C 272.757812 118.59375 273.746094 118.390625 274.226562 117.65625 C 274.707031 116.921875 274.503906 115.9375 273.769531 115.453125 C 273.769531 115.453125 205.640625 70.757812 205.640625 70.757812 C 205.113281 70.414062 204.433594 70.410156 203.902344 70.753906 C 203.902344 70.753906 198.109375 74.5 189.949219 79.78125 C 189.210938 80.257812 189 81.242188 189.476562 81.980469 C 189.953125 82.714844 190.9375 82.925781 191.675781 82.453125 Z M 191.675781 82.453125 " fill-opacity="1" fill-rule="evenodd"/><path fill="#01a58d" d="M 141.582031 92.640625 L 141.582031 80.636719 C 141.582031 79.761719 140.871094 79.054688 140 79.054688 L 126.757812 79.054688 C 125.878906 79.054688 125.175781 79.761719 125.175781 80.636719 L 125.175781 101.761719 C 125.175781 102.636719 125.878906 103.34375 126.757812 103.34375 C 127.632812 103.34375 128.34375 102.636719 128.34375 101.761719 L 128.34375 82.21875 C 128.34375 82.21875 138.414062 82.21875 138.414062 82.21875 L 138.414062 92.640625 C 138.414062 93.511719 139.125 94.222656 140 94.222656 C 140.871094 94.222656 141.582031 93.511719 141.582031 92.640625 Z M 141.582031 92.640625 " fill-opacity="1" fill-rule="evenodd"/><g fill="#01a58d" fill-opacity="1"><g transform="translate(115.383922, 285.823985)"><g><path d="M 9.84375 -10.96875 C 10.789062 -10.96875 11.515625 -11.1875 12.015625 -11.625 C 12.523438 -12.0625 12.78125 -12.726562 12.78125 -13.625 C 12.78125 -14.476562 12.515625 -15.132812 11.984375 -15.59375 C 11.460938 -16.0625 10.695312 -16.296875 9.6875 -16.296875 C 9.320312 -16.296875 9.019531 -16.289062 8.78125 -16.28125 C 8.550781 -16.269531 8.3125 -16.238281 8.0625 -16.1875 L 8.0625 -10.96875 Z M 8.09375 -0.140625 C 7.84375 -0.0664062 7.453125 0 6.921875 0.0625 C 6.398438 0.132812 5.878906 0.171875 5.359375 0.171875 C 4.847656 0.171875 4.394531 0.128906 4 0.046875 C 3.601562 -0.0234375 3.269531 -0.160156 3 -0.359375 C 2.726562 -0.566406 2.523438 -0.847656 2.390625 -1.203125 C 2.253906 -1.566406 2.1875 -2.039062 2.1875 -2.625 L 2.1875 -18.515625 C 2.1875 -18.992188 2.316406 -19.359375 2.578125 -19.609375 C 2.835938 -19.867188 3.191406 -20.078125 3.640625 -20.234375 C 4.410156 -20.503906 5.28125 -20.703125 6.25 -20.828125 C 7.226562 -20.953125 8.210938 -21.015625 9.203125 -21.015625 C 12.304688 -21.015625 14.679688 -20.347656 16.328125 -19.015625 C 17.972656 -17.691406 18.796875 -15.894531 18.796875 -13.625 C 18.796875 -12.519531 18.617188 -11.523438 18.265625 -10.640625 C 17.921875 -9.753906 17.40625 -8.988281 16.71875 -8.34375 C 16.03125 -7.707031 15.160156 -7.210938 14.109375 -6.859375 C 13.066406 -6.515625 11.859375 -6.34375 10.484375 -6.34375 L 8.09375 -6.34375 Z M 8.09375 -0.140625 "/></g></g></g><g fill="#01a58d" fill-opacity="1"><g transform="translate(134.979089, 285.823985)"><g><path d="M 2.1875 -17.3125 C 2.1875 -18.269531 2.46875 -19.03125 3.03125 -19.59375 C 3.59375 -20.15625 4.359375 -20.4375 5.328125 -20.4375 L 16.46875 -20.4375 C 16.625 -20.195312 16.757812 -19.875 16.875 -19.46875 C 17 -19.0625 17.0625 -18.632812 17.0625 -18.1875 C 17.0625 -17.332031 16.875 -16.722656 16.5 -16.359375 C 16.132812 -16.003906 15.648438 -15.828125 15.046875 -15.828125 L 7.921875 -15.828125 L 7.921875 -12.6875 L 15.515625 -12.6875 C 15.671875 -12.4375 15.8125 -12.113281 15.9375 -11.71875 C 16.0625 -11.320312 16.125 -10.898438 16.125 -10.453125 C 16.125 -9.597656 15.941406 -8.988281 15.578125 -8.625 C 15.222656 -8.269531 14.742188 -8.09375 14.140625 -8.09375 L 7.921875 -8.09375 L 7.921875 -4.546875 L 16.59375 -4.546875 C 16.75 -4.304688 16.890625 -3.984375 17.015625 -3.578125 C 17.140625 -3.171875 17.203125 -2.742188 17.203125 -2.296875 C 17.203125 -1.441406 17.015625 -0.828125 16.640625 -0.453125 C 16.273438 -0.0859375 15.789062 0.09375 15.1875 0.09375 L 5.328125 0.09375 C 4.359375 0.09375 3.59375 -0.179688 3.03125 -0.734375 C 2.46875 -1.296875 2.1875 -2.0625 2.1875 -3.03125 Z M 2.1875 -17.3125 "/></g></g></g><g fill="#01a58d" fill-opacity="1"><g transform="translate(153.461285, 285.823985)"><g><path d="M 1.25 -15.71875 C 1.09375 -15.96875 0.945312 -16.304688 0.8125 -16.734375 C 0.675781 -17.160156 0.609375 -17.609375 0.609375 -18.078125 C 0.609375 -18.953125 0.800781 -19.582031 1.1875 -19.96875 C 1.582031 -20.351562 2.097656 -20.546875 2.734375 -20.546875 L 17.4375 -20.546875 C 17.59375 -20.296875 17.738281 -19.957031 17.875 -19.53125 C 18.007812 -19.101562 18.078125 -18.65625 18.078125 -18.1875 C 18.078125 -17.300781 17.878906 -16.664062 17.484375 -16.28125 C 17.097656 -15.90625 16.585938 -15.71875 15.953125 -15.71875 L 12.21875 -15.71875 L 12.21875 -0.140625 C 11.96875 -0.0664062 11.578125 0 11.046875 0.0625 C 10.515625 0.132812 9.992188 0.171875 9.484375 0.171875 C 8.960938 0.171875 8.503906 0.128906 8.109375 0.046875 C 7.710938 -0.0234375 7.378906 -0.160156 7.109375 -0.359375 C 6.847656 -0.566406 6.648438 -0.847656 6.515625 -1.203125 C 6.378906 -1.566406 6.3125 -2.039062 6.3125 -2.625 L 6.3125 -15.71875 Z M 1.25 -15.71875 "/></g></g></g><g fill="#01a58d" fill-opacity="1"><g transform="translate(172.213286, 285.823985)"><g/></g></g><g fill="#01a58d" fill-opacity="1"><g transform="translate(178.958616, 285.823985)"><g><path d="M 8 -8.125 C 7.007812 -8.46875 6.109375 -8.8125 5.296875 -9.15625 C 4.484375 -9.507812 3.785156 -9.929688 3.203125 -10.421875 C 2.617188 -10.921875 2.160156 -11.507812 1.828125 -12.1875 C 1.503906 -12.875 1.34375 -13.710938 1.34375 -14.703125 C 1.34375 -16.617188 2.078125 -18.148438 3.546875 -19.296875 C 5.023438 -20.441406 7.09375 -21.015625 9.75 -21.015625 C 10.71875 -21.015625 11.617188 -20.945312 12.453125 -20.8125 C 13.285156 -20.675781 14 -20.46875 14.59375 -20.1875 C 15.1875 -19.90625 15.648438 -19.546875 15.984375 -19.109375 C 16.328125 -18.671875 16.5 -18.160156 16.5 -17.578125 C 16.5 -16.992188 16.363281 -16.492188 16.09375 -16.078125 C 15.820312 -15.660156 15.492188 -15.304688 15.109375 -15.015625 C 14.617188 -15.328125 13.957031 -15.597656 13.125 -15.828125 C 12.289062 -16.066406 11.378906 -16.1875 10.390625 -16.1875 C 9.378906 -16.1875 8.632812 -16.046875 8.15625 -15.765625 C 7.6875 -15.484375 7.453125 -15.128906 7.453125 -14.703125 C 7.453125 -14.367188 7.597656 -14.09375 7.890625 -13.875 C 8.179688 -13.664062 8.617188 -13.472656 9.203125 -13.296875 L 11 -12.71875 C 13.113281 -12.039062 14.738281 -11.175781 15.875 -10.125 C 17.007812 -9.082031 17.578125 -7.664062 17.578125 -5.875 C 17.578125 -3.957031 16.820312 -2.40625 15.3125 -1.21875 C 13.8125 -0.0390625 11.597656 0.546875 8.671875 0.546875 C 7.640625 0.546875 6.675781 0.457031 5.78125 0.28125 C 4.894531 0.113281 4.117188 -0.128906 3.453125 -0.453125 C 2.796875 -0.773438 2.28125 -1.175781 1.90625 -1.65625 C 1.53125 -2.144531 1.34375 -2.707031 1.34375 -3.34375 C 1.34375 -3.988281 1.535156 -4.539062 1.921875 -5 C 2.304688 -5.46875 2.722656 -5.828125 3.171875 -6.078125 C 3.796875 -5.578125 4.5625 -5.144531 5.46875 -4.78125 C 6.382812 -4.425781 7.382812 -4.25 8.46875 -4.25 C 9.570312 -4.25 10.347656 -4.414062 10.796875 -4.75 C 11.242188 -5.09375 11.46875 -5.488281 11.46875 -5.9375 C 11.46875 -6.382812 11.285156 -6.726562 10.921875 -6.96875 C 10.566406 -7.207031 10.0625 -7.4375 9.40625 -7.65625 Z M 8 -8.125 "/></g></g></g><g fill="#01a58d" fill-opacity="1"><g transform="translate(197.541989, 285.823985)"><g><path d="M 9.84375 -10.96875 C 10.789062 -10.96875 11.515625 -11.1875 12.015625 -11.625 C 12.523438 -12.0625 12.78125 -12.726562 12.78125 -13.625 C 12.78125 -14.476562 12.515625 -15.132812 11.984375 -15.59375 C 11.460938 -16.0625 10.695312 -16.296875 9.6875 -16.296875 C 9.320312 -16.296875 9.019531 -16.289062 8.78125 -16.28125 C 8.550781 -16.269531 8.3125 -16.238281 8.0625 -16.1875 L 8.0625 -10.96875 Z M 8.09375 -0.140625 C 7.84375 -0.0664062 7.453125 0 6.921875 0.0625 C 6.398438 0.132812 5.878906 0.171875 5.359375 0.171875 C 4.847656 0.171875 4.394531 0.128906 4 0.046875 C 3.601562 -0.0234375 3.269531 -0.160156 3 -0.359375 C 2.726562 -0.566406 2.523438 -0.847656 2.390625 -1.203125 C 2.253906 -1.566406 2.1875 -2.039062 2.1875 -2.625 L 2.1875 -18.515625 C 2.1875 -18.992188 2.316406 -19.359375 2.578125 -19.609375 C 2.835938 -19.867188 3.191406 -20.078125 3.640625 -20.234375 C 4.410156 -20.503906 5.28125 -20.703125 6.25 -20.828125 C 7.226562 -20.953125 8.210938 -21.015625 9.203125 -21.015625 C 12.304688 -21.015625 14.679688 -20.347656 16.328125 -19.015625 C 17.972656 -17.691406 18.796875 -15.894531 18.796875 -13.625 C 18.796875 -12.519531 18.617188 -11.523438 18.265625 -10.640625 C 17.921875 -9.753906 17.40625 -8.988281 16.71875 -8.34375 C 16.03125 -7.707031 15.160156 -7.210938 14.109375 -6.859375 C 13.066406 -6.515625 11.859375 -6.34375 10.484375 -6.34375 L 8.09375 -6.34375 Z M 8.09375 -0.140625 "/></g></g></g><g fill="#01a58d" fill-opacity="1"><g transform="translate(217.137157, 285.823985)"><g><path d="M 1.1875 -10.25 C 1.1875 -12.007812 1.457031 -13.5625 2 -14.90625 C 2.550781 -16.257812 3.304688 -17.390625 4.265625 -18.296875 C 5.222656 -19.210938 6.347656 -19.90625 7.640625 -20.375 C 8.929688 -20.84375 10.332031 -21.078125 11.84375 -21.078125 C 13.34375 -21.078125 14.738281 -20.84375 16.03125 -20.375 C 17.332031 -19.90625 18.460938 -19.210938 19.421875 -18.296875 C 20.390625 -17.390625 21.148438 -16.257812 21.703125 -14.90625 C 22.253906 -13.5625 22.53125 -12.007812 22.53125 -10.25 C 22.53125 -8.5 22.257812 -6.941406 21.71875 -5.578125 C 21.1875 -4.222656 20.441406 -3.085938 19.484375 -2.171875 C 18.523438 -1.265625 17.394531 -0.570312 16.09375 -0.09375 C 14.789062 0.375 13.375 0.609375 11.84375 0.609375 C 10.3125 0.609375 8.894531 0.367188 7.59375 -0.109375 C 6.289062 -0.597656 5.164062 -1.300781 4.21875 -2.21875 C 3.269531 -3.144531 2.523438 -4.28125 1.984375 -5.625 C 1.453125 -6.976562 1.1875 -8.519531 1.1875 -10.25 Z M 7.25 -10.25 C 7.25 -8.207031 7.664062 -6.679688 8.5 -5.671875 C 9.332031 -4.660156 10.445312 -4.15625 11.84375 -4.15625 C 13.257812 -4.15625 14.382812 -4.660156 15.21875 -5.671875 C 16.050781 -6.679688 16.46875 -8.207031 16.46875 -10.25 C 16.46875 -12.28125 16.054688 -13.800781 15.234375 -14.8125 C 14.410156 -15.820312 13.289062 -16.328125 11.875 -16.328125 C 10.476562 -16.328125 9.359375 -15.828125 8.515625 -14.828125 C 7.671875 -13.828125 7.25 -12.300781 7.25 -10.25 Z M 7.25 -10.25 "/></g></g></g><g fill="#01a58d" fill-opacity="1"><g transform="translate(240.846979, 285.823985)"><g><path d="M 1.25 -15.71875 C 1.09375 -15.96875 0.945312 -16.304688 0.8125 -16.734375 C 0.675781 -17.160156 0.609375 -17.609375 0.609375 -18.078125 C 0.609375 -18.953125 0.800781 -19.582031 1.1875 -19.96875 C 1.582031 -20.351562 2.097656 -20.546875 2.734375 -20.546875 L 17.4375 -20.546875 C 17.59375 -20.296875 17.738281 -19.957031 17.875 -19.53125 C 18.007812 -19.101562 18.078125 -18.65625 18.078125 -18.1875 C 18.078125 -17.300781 17.878906 -16.664062 17.484375 -16.28125 C 17.097656 -15.90625 16.585938 -15.71875 15.953125 -15.71875 L 12.21875 -15.71875 L 12.21875 -0.140625 C 11.96875 -0.0664062 11.578125 0 11.046875 0.0625 C 10.515625 0.132812 9.992188 0.171875 9.484375 0.171875 C 8.960938 0.171875 8.503906 0.128906 8.109375 0.046875 C 7.710938 -0.0234375 7.378906 -0.160156 7.109375 -0.359375 C 6.847656 -0.566406 6.648438 -0.847656 6.515625 -1.203125 C 6.378906 -1.566406 6.3125 -2.039062 6.3125 -2.625 L 6.3125 -15.71875 Z M 1.25 -15.71875 "/></g></g></g><g fill="#e53225" fill-opacity="0.4"><g transform="translate(100.196123, 303.643809)"><g><path d="M 5.921875 -1.71875 L 2.078125 -1.71875 L 1.34375 0 L 0.015625 0 L 3.375 -7.609375 L 4.6875 -7.609375 L 8.015625 0 L 6.640625 0 Z M 5.421875 -2.859375 L 3.984375 -6.25 L 2.5625 -2.859375 Z M 5.421875 -2.859375 "/></g></g></g><g fill="#e53225" fill-opacity="0.4"><g transform="translate(111.36543, 303.643809)"><g><path d="M 1 -7.609375 L 4.125 -7.609375 C 5.257812 -7.609375 6.195312 -7.25 6.9375 -6.53125 C 7.6875 -5.8125 8.0625 -4.898438 8.0625 -3.796875 C 8.0625 -2.703125 7.6875 -1.796875 6.9375 -1.078125 C 6.1875 -0.359375 5.238281 0 4.09375 0 L 1 0 Z M 2.28125 -6.453125 L 2.28125 -1.15625 L 4.15625 -1.15625 C 4.90625 -1.15625 5.523438 -1.398438 6.015625 -1.890625 C 6.515625 -2.390625 6.765625 -3.023438 6.765625 -3.796875 C 6.765625 -4.566406 6.507812 -5.203125 6 -5.703125 C 5.488281 -6.203125 4.851562 -6.453125 4.09375 -6.453125 Z M 2.28125 -6.453125 "/></g></g></g><g fill="#e53225" fill-opacity="0.4"><g transform="translate(122.936677, 303.643809)"><g><path d="M 1.53125 -6.53125 C 2.3125 -7.269531 3.269531 -7.640625 4.40625 -7.640625 C 5.539062 -7.640625 6.492188 -7.269531 7.265625 -6.53125 C 8.046875 -5.800781 8.4375 -4.890625 8.4375 -3.796875 C 8.4375 -2.710938 8.046875 -1.800781 7.265625 -1.0625 C 6.492188 -0.320312 5.539062 0.046875 4.40625 0.046875 C 3.269531 0.046875 2.3125 -0.320312 1.53125 -1.0625 C 0.757812 -1.800781 0.375 -2.710938 0.375 -3.796875 C 0.375 -4.890625 0.757812 -5.800781 1.53125 -6.53125 Z M 4.421875 -6.5 C 3.660156 -6.5 3.007812 -6.238281 2.46875 -5.71875 C 1.9375 -5.195312 1.671875 -4.554688 1.671875 -3.796875 C 1.671875 -3.046875 1.941406 -2.40625 2.484375 -1.875 C 3.023438 -1.351562 3.664062 -1.09375 4.40625 -1.09375 C 5.15625 -1.09375 5.796875 -1.351562 6.328125 -1.875 C 6.859375 -2.40625 7.125 -3.046875 7.125 -3.796875 C 7.125 -4.554688 6.859375 -5.195312 6.328125 -5.71875 C 5.796875 -6.238281 5.160156 -6.5 4.421875 -6.5 Z M 4.421875 -6.5 "/></g></g></g><g fill="#e53225" fill-opacity="0.4"><g transform="translate(134.888142, 303.643809)"><g><path d="M 4.703125 0.03125 L 4.453125 0.546875 C 4.691406 0.585938 4.878906 0.679688 5.015625 0.828125 C 5.148438 0.984375 5.21875 1.175781 5.21875 1.40625 C 5.21875 1.71875 5.109375 1.96875 4.890625 2.15625 C 4.671875 2.34375 4.394531 2.4375 4.0625 2.4375 C 3.707031 2.4375 3.390625 2.332031 3.109375 2.125 L 3.34375 1.546875 C 3.53125 1.691406 3.742188 1.765625 3.984375 1.765625 C 4.128906 1.765625 4.25 1.71875 4.34375 1.625 C 4.4375 1.53125 4.484375 1.425781 4.484375 1.3125 C 4.484375 1.195312 4.4375 1.097656 4.34375 1.015625 C 4.25 0.941406 4.117188 0.90625 3.953125 0.90625 C 3.835938 0.90625 3.710938 0.921875 3.578125 0.953125 L 3.96875 0.046875 C 2.9375 -0.046875 2.078125 -0.453125 1.390625 -1.171875 C 0.710938 -1.898438 0.375 -2.78125 0.375 -3.8125 C 0.375 -4.894531 0.757812 -5.800781 1.53125 -6.53125 C 2.300781 -7.269531 3.25 -7.640625 4.375 -7.640625 C 4.90625 -7.640625 5.425781 -7.535156 5.9375 -7.328125 C 6.445312 -7.128906 6.890625 -6.84375 7.265625 -6.46875 L 6.515625 -5.53125 C 6.234375 -5.832031 5.90625 -6.066406 5.53125 -6.234375 C 5.15625 -6.410156 4.773438 -6.5 4.390625 -6.5 C 3.628906 -6.5 2.984375 -6.238281 2.453125 -5.71875 C 1.929688 -5.207031 1.671875 -4.578125 1.671875 -3.828125 C 1.671875 -3.078125 1.929688 -2.441406 2.453125 -1.921875 C 2.984375 -1.398438 3.628906 -1.140625 4.390625 -1.140625 C 5.179688 -1.140625 5.890625 -1.441406 6.515625 -2.046875 L 7.28125 -1.203125 C 6.539062 -0.484375 5.679688 -0.0703125 4.703125 0.03125 Z M 4.703125 0.03125 "/></g></g></g><g fill="#e53225" fill-opacity="0.4"><g transform="translate(145.612045, 303.643809)"><g><path d="M 3.46875 -9.171875 C 3.195312 -9.171875 3.0625 -8.992188 3.0625 -8.640625 L 2.265625 -8.640625 C 2.265625 -9.585938 2.597656 -10.0625 3.265625 -10.0625 C 3.484375 -10.0625 3.726562 -9.960938 4 -9.765625 C 4.269531 -9.566406 4.457031 -9.46875 4.5625 -9.46875 C 4.832031 -9.46875 4.96875 -9.644531 4.96875 -10 L 5.765625 -10 C 5.765625 -9.050781 5.4375 -8.578125 4.78125 -8.578125 C 4.539062 -8.578125 4.285156 -8.675781 4.015625 -8.875 C 3.753906 -9.070312 3.570312 -9.171875 3.46875 -9.171875 Z M 5.921875 -1.71875 L 2.078125 -1.71875 L 1.34375 0 L 0.015625 0 L 3.375 -7.609375 L 4.6875 -7.609375 L 8.015625 0 L 6.640625 0 Z M 5.421875 -2.859375 L 3.984375 -6.25 L 2.5625 -2.859375 Z M 5.421875 -2.859375 "/></g></g></g><g fill="#e53225" fill-opacity="0.4"><g transform="translate(156.781352, 303.643809)"><g><path d="M 1.53125 -6.53125 C 2.3125 -7.269531 3.269531 -7.640625 4.40625 -7.640625 C 5.539062 -7.640625 6.492188 -7.269531 7.265625 -6.53125 C 8.046875 -5.800781 8.4375 -4.890625 8.4375 -3.796875 C 8.4375 -2.710938 8.046875 -1.800781 7.265625 -1.0625 C 6.492188 -0.320312 5.539062 0.046875 4.40625 0.046875 C 3.269531 0.046875 2.3125 -0.320312 1.53125 -1.0625 C 0.757812 -1.800781 0.375 -2.710938 0.375 -3.796875 C 0.375 -4.890625 0.757812 -5.800781 1.53125 -6.53125 Z M 4.421875 -6.5 C 3.660156 -6.5 3.007812 -6.238281 2.46875 -5.71875 C 1.9375 -5.195312 1.671875 -4.554688 1.671875 -3.796875 C 1.671875 -3.046875 1.941406 -2.40625 2.484375 -1.875 C 3.023438 -1.351562 3.664062 -1.09375 4.40625 -1.09375 C 5.15625 -1.09375 5.796875 -1.351562 6.328125 -1.875 C 6.859375 -2.40625 7.125 -3.046875 7.125 -3.796875 C 7.125 -4.554688 6.859375 -5.195312 6.328125 -5.71875 C 5.796875 -6.238281 5.160156 -6.5 4.421875 -6.5 Z M 4.421875 -6.5 "/></g></g></g><g fill="#e53225" fill-opacity="0.4"><g transform="translate(168.732816, 303.643809)"><g/></g></g><g fill="#e53225" fill-opacity="0.4"><g transform="translate(174.687738, 303.643809)"><g><path d="M 4.375 -7.640625 C 4.90625 -7.640625 5.425781 -7.535156 5.9375 -7.328125 C 6.445312 -7.128906 6.890625 -6.84375 7.265625 -6.46875 L 6.515625 -5.53125 C 6.234375 -5.832031 5.90625 -6.066406 5.53125 -6.234375 C 5.15625 -6.410156 4.773438 -6.5 4.390625 -6.5 C 3.628906 -6.5 2.984375 -6.238281 2.453125 -5.71875 C 1.929688 -5.207031 1.671875 -4.578125 1.671875 -3.828125 C 1.671875 -3.078125 1.929688 -2.441406 2.453125 -1.921875 C 2.984375 -1.398438 3.628906 -1.140625 4.390625 -1.140625 C 5.179688 -1.140625 5.890625 -1.441406 6.515625 -2.046875 L 7.28125 -1.203125 C 6.882812 -0.816406 6.425781 -0.507812 5.90625 -0.28125 C 5.382812 -0.0625 4.859375 0.046875 4.328125 0.046875 C 3.210938 0.046875 2.273438 -0.320312 1.515625 -1.0625 C 0.753906 -1.800781 0.375 -2.71875 0.375 -3.8125 C 0.375 -4.894531 0.757812 -5.800781 1.53125 -6.53125 C 2.300781 -7.269531 3.25 -7.640625 4.375 -7.640625 Z M 4.375 -7.640625 "/></g></g></g><g fill="#e53225" fill-opacity="0.4"><g transform="translate(185.411641, 303.643809)"><g><path d="M 1.53125 -6.53125 C 2.3125 -7.269531 3.269531 -7.640625 4.40625 -7.640625 C 5.539062 -7.640625 6.492188 -7.269531 7.265625 -6.53125 C 8.046875 -5.800781 8.4375 -4.890625 8.4375 -3.796875 C 8.4375 -2.710938 8.046875 -1.800781 7.265625 -1.0625 C 6.492188 -0.320312 5.539062 0.046875 4.40625 0.046875 C 3.269531 0.046875 2.3125 -0.320312 1.53125 -1.0625 C 0.757812 -1.800781 0.375 -2.710938 0.375 -3.796875 C 0.375 -4.890625 0.757812 -5.800781 1.53125 -6.53125 Z M 4.421875 -6.5 C 3.660156 -6.5 3.007812 -6.238281 2.46875 -5.71875 C 1.9375 -5.195312 1.671875 -4.554688 1.671875 -3.796875 C 1.671875 -3.046875 1.941406 -2.40625 2.484375 -1.875 C 3.023438 -1.351562 3.664062 -1.09375 4.40625 -1.09375 C 5.15625 -1.09375 5.796875 -1.351562 6.328125 -1.875 C 6.859375 -2.40625 7.125 -3.046875 7.125 -3.796875 C 7.125 -4.554688 6.859375 -5.195312 6.328125 -5.71875 C 5.796875 -6.238281 5.160156 -6.5 4.421875 -6.5 Z M 4.421875 -6.5 "/></g></g></g><g fill="#e53225" fill-opacity="0.4"><g transform="translate(197.363105, 303.643809)"><g><path d="M 7.609375 0 L 6.34375 0 L 2.28125 -5.453125 L 2.28125 0 L 1 0 L 1 -7.609375 L 2.265625 -7.609375 L 6.34375 -2.140625 L 6.34375 -7.609375 L 7.609375 -7.609375 Z M 7.609375 0 "/></g></g></g><g fill="#e53225" fill-opacity="0.4"><g transform="translate(209.119025, 303.643809)"><g><path d="M 3.5 -7.671875 C 4.488281 -7.671875 5.378906 -7.410156 6.171875 -6.890625 L 5.640625 -5.75 C 4.859375 -6.21875 4.113281 -6.453125 3.40625 -6.453125 C 3.019531 -6.453125 2.71875 -6.382812 2.5 -6.25 C 2.28125 -6.113281 2.171875 -5.914062 2.171875 -5.65625 C 2.171875 -5.40625 2.269531 -5.191406 2.46875 -5.015625 C 2.664062 -4.835938 2.914062 -4.707031 3.21875 -4.625 C 3.53125 -4.539062 3.863281 -4.4375 4.21875 -4.3125 C 4.570312 -4.1875 4.898438 -4.050781 5.203125 -3.90625 C 5.515625 -3.769531 5.769531 -3.550781 5.96875 -3.25 C 6.164062 -2.945312 6.265625 -2.582031 6.265625 -2.15625 C 6.265625 -1.488281 6 -0.953125 5.46875 -0.546875 C 4.9375 -0.148438 4.242188 0.046875 3.390625 0.046875 C 2.804688 0.046875 2.242188 -0.0625 1.703125 -0.28125 C 1.160156 -0.5 0.6875 -0.789062 0.28125 -1.15625 L 0.84375 -2.265625 C 1.21875 -1.910156 1.632812 -1.632812 2.09375 -1.4375 C 2.5625 -1.25 3.003906 -1.15625 3.421875 -1.15625 C 3.867188 -1.15625 4.21875 -1.238281 4.46875 -1.40625 C 4.71875 -1.570312 4.84375 -1.800781 4.84375 -2.09375 C 4.84375 -2.351562 4.738281 -2.570312 4.53125 -2.75 C 4.332031 -2.925781 4.078125 -3.054688 3.765625 -3.140625 C 3.460938 -3.222656 3.132812 -3.320312 2.78125 -3.4375 C 2.425781 -3.5625 2.097656 -3.691406 1.796875 -3.828125 C 1.492188 -3.960938 1.238281 -4.175781 1.03125 -4.46875 C 0.832031 -4.769531 0.734375 -5.128906 0.734375 -5.546875 C 0.734375 -6.191406 0.984375 -6.707031 1.484375 -7.09375 C 1.992188 -7.476562 2.664062 -7.671875 3.5 -7.671875 Z M 3.5 -7.671875 "/></g></g></g><g fill="#e53225" fill-opacity="0.4"><g transform="translate(219.028189, 303.643809)"><g><path d="M 4.375 -7.640625 C 4.90625 -7.640625 5.425781 -7.535156 5.9375 -7.328125 C 6.445312 -7.128906 6.890625 -6.84375 7.265625 -6.46875 L 6.515625 -5.53125 C 6.234375 -5.832031 5.90625 -6.066406 5.53125 -6.234375 C 5.15625 -6.410156 4.773438 -6.5 4.390625 -6.5 C 3.628906 -6.5 2.984375 -6.238281 2.453125 -5.71875 C 1.929688 -5.207031 1.671875 -4.578125 1.671875 -3.828125 C 1.671875 -3.078125 1.929688 -2.441406 2.453125 -1.921875 C 2.984375 -1.398438 3.628906 -1.140625 4.390625 -1.140625 C 5.179688 -1.140625 5.890625 -1.441406 6.515625 -2.046875 L 7.28125 -1.203125 C 6.882812 -0.816406 6.425781 -0.507812 5.90625 -0.28125 C 5.382812 -0.0625 4.859375 0.046875 4.328125 0.046875 C 3.210938 0.046875 2.273438 -0.320312 1.515625 -1.0625 C 0.753906 -1.800781 0.375 -2.71875 0.375 -3.8125 C 0.375 -4.894531 0.757812 -5.800781 1.53125 -6.53125 C 2.300781 -7.269531 3.25 -7.640625 4.375 -7.640625 Z M 4.375 -7.640625 "/></g></g></g><g fill="#e53225" fill-opacity="0.4"><g transform="translate(229.752092, 303.643809)"><g><path d="M 2.28125 0 L 1 0 L 1 -7.609375 L 2.28125 -7.609375 Z M 2.28125 0 "/></g></g></g><g fill="#e53225" fill-opacity="0.4"><g transform="translate(236.184998, 303.643809)"><g><path d="M 6.4375 -6.453125 L 2.28125 -6.453125 L 2.28125 -4.40625 L 6 -4.40625 L 6 -3.25 L 2.28125 -3.25 L 2.28125 -1.15625 L 6.5625 -1.15625 L 6.5625 0 L 1 0 L 1 -7.609375 L 6.4375 -7.609375 Z M 6.4375 -6.453125 "/></g></g></g><g fill="#e53225" fill-opacity="0.4"><g transform="translate(246.463509, 303.643809)"><g><path d="M 7.609375 0 L 6.34375 0 L 2.28125 -5.453125 L 2.28125 0 L 1 0 L 1 -7.609375 L 2.265625 -7.609375 L 6.34375 -2.140625 L 6.34375 -7.609375 L 7.609375 -7.609375 Z M 7.609375 0 "/></g></g></g><g fill="#e53225" fill-opacity="0.4"><g transform="translate(258.219428, 303.643809)"><g><path d="M 6.203125 -6.453125 L 3.78125 -6.453125 L 3.78125 0 L 2.5 0 L 2.5 -6.453125 L 0.09375 -6.453125 L 0.09375 -7.609375 L 6.203125 -7.609375 Z M 6.203125 -6.453125 "/></g></g></g><g fill="#e53225" fill-opacity="0.4"><g transform="translate(267.661467, 303.643809)"><g><path d="M 6.4375 -6.453125 L 2.28125 -6.453125 L 2.28125 -4.40625 L 6 -4.40625 L 6 -3.25 L 2.28125 -3.25 L 2.28125 -1.15625 L 6.5625 -1.15625 L 6.5625 0 L 1 0 L 1 -7.609375 L 6.4375 -7.609375 Z M 6.4375 -6.453125 "/></g></g></g><g fill="#000000" fill-opacity="1"><g transform="translate(100.196123, 303.643809)"><g><path d="M 5.921875 -1.71875 L 2.078125 -1.71875 L 1.34375 0 L 0.015625 0 L 3.375 -7.609375 L 4.6875 -7.609375 L 8.015625 0 L 6.640625 0 Z M 5.421875 -2.859375 L 3.984375 -6.25 L 2.5625 -2.859375 Z M 5.421875 -2.859375 "/></g></g></g><g fill="#000000" fill-opacity="1"><g transform="translate(111.36543, 303.643809)"><g><path d="M 1 -7.609375 L 4.125 -7.609375 C 5.257812 -7.609375 6.195312 -7.25 6.9375 -6.53125 C 7.6875 -5.8125 8.0625 -4.898438 8.0625 -3.796875 C 8.0625 -2.703125 7.6875 -1.796875 6.9375 -1.078125 C 6.1875 -0.359375 5.238281 0 4.09375 0 L 1 0 Z M 2.28125 -6.453125 L 2.28125 -1.15625 L 4.15625 -1.15625 C 4.90625 -1.15625 5.523438 -1.398438 6.015625 -1.890625 C 6.515625 -2.390625 6.765625 -3.023438 6.765625 -3.796875 C 6.765625 -4.566406 6.507812 -5.203125 6 -5.703125 C 5.488281 -6.203125 4.851562 -6.453125 4.09375 -6.453125 Z M 2.28125 -6.453125 "/></g></g></g><g fill="#000000" fill-opacity="1"><g transform="translate(122.936677, 303.643809)"><g><path d="M 1.53125 -6.53125 C 2.3125 -7.269531 3.269531 -7.640625 4.40625 -7.640625 C 5.539062 -7.640625 6.492188 -7.269531 7.265625 -6.53125 C 8.046875 -5.800781 8.4375 -4.890625 8.4375 -3.796875 C 8.4375 -2.710938 8.046875 -1.800781 7.265625 -1.0625 C 6.492188 -0.320312 5.539062 0.046875 4.40625 0.046875 C 3.269531 0.046875 2.3125 -0.320312 1.53125 -1.0625 C 0.757812 -1.800781 0.375 -2.710938 0.375 -3.796875 C 0.375 -4.890625 0.757812 -5.800781 1.53125 -6.53125 Z M 4.421875 -6.5 C 3.660156 -6.5 3.007812 -6.238281 2.46875 -5.71875 C 1.9375 -5.195312 1.671875 -4.554688 1.671875 -3.796875 C 1.671875 -3.046875 1.941406 -2.40625 2.484375 -1.875 C 3.023438 -1.351562 3.664062 -1.09375 4.40625 -1.09375 C 5.15625 -1.09375 5.796875 -1.351562 6.328125 -1.875 C 6.859375 -2.40625 7.125 -3.046875 7.125 -3.796875 C 7.125 -4.554688 6.859375 -5.195312 6.328125 -5.71875 C 5.796875 -6.238281 5.160156 -6.5 4.421875 -6.5 Z M 4.421875 -6.5 "/></g></g></g><g fill="#000000" fill-opacity="1"><g transform="translate(134.888142, 303.643809)"><g><path d="M 4.703125 0.03125 L 4.453125 0.546875 C 4.691406 0.585938 4.878906 0.679688 5.015625 0.828125 C 5.148438 0.984375 5.21875 1.175781 5.21875 1.40625 C 5.21875 1.71875 5.109375 1.96875 4.890625 2.15625 C 4.671875 2.34375 4.394531 2.4375 4.0625 2.4375 C 3.707031 2.4375 3.390625 2.332031 3.109375 2.125 L 3.34375 1.546875 C 3.53125 1.691406 3.742188 1.765625 3.984375 1.765625 C 4.128906 1.765625 4.25 1.71875 4.34375 1.625 C 4.4375 1.53125 4.484375 1.425781 4.484375 1.3125 C 4.484375 1.195312 4.4375 1.097656 4.34375 1.015625 C 4.25 0.941406 4.117188 0.90625 3.953125 0.90625 C 3.835938 0.90625 3.710938 0.921875 3.578125 0.953125 L 3.96875 0.046875 C 2.9375 -0.046875 2.078125 -0.453125 1.390625 -1.171875 C 0.710938 -1.898438 0.375 -2.78125 0.375 -3.8125 C 0.375 -4.894531 0.757812 -5.800781 1.53125 -6.53125 C 2.300781 -7.269531 3.25 -7.640625 4.375 -7.640625 C 4.90625 -7.640625 5.425781 -7.535156 5.9375 -7.328125 C 6.445312 -7.128906 6.890625 -6.84375 7.265625 -6.46875 L 6.515625 -5.53125 C 6.234375 -5.832031 5.90625 -6.066406 5.53125 -6.234375 C 5.15625 -6.410156 4.773438 -6.5 4.390625 -6.5 C 3.628906 -6.5 2.984375 -6.238281 2.453125 -5.71875 C 1.929688 -5.207031 1.671875 -4.578125 1.671875 -3.828125 C 1.671875 -3.078125 1.929688 -2.441406 2.453125 -1.921875 C 2.984375 -1.398438 3.628906 -1.140625 4.390625 -1.140625 C 5.179688 -1.140625 5.890625 -1.441406 6.515625 -2.046875 L 7.28125 -1.203125 C 6.539062 -0.484375 5.679688 -0.0703125 4.703125 0.03125 Z M 4.703125 0.03125 "/></g></g></g><g fill="#000000" fill-opacity="1"><g transform="translate(145.612045, 303.643809)"><g><path d="M 3.46875 -9.171875 C 3.195312 -9.171875 3.0625 -8.992188 3.0625 -8.640625 L 2.265625 -8.640625 C 2.265625 -9.585938 2.597656 -10.0625 3.265625 -10.0625 C 3.484375 -10.0625 3.726562 -9.960938 4 -9.765625 C 4.269531 -9.566406 4.457031 -9.46875 4.5625 -9.46875 C 4.832031 -9.46875 4.96875 -9.644531 4.96875 -10 L 5.765625 -10 C 5.765625 -9.050781 5.4375 -8.578125 4.78125 -8.578125 C 4.539062 -8.578125 4.285156 -8.675781 4.015625 -8.875 C 3.753906 -9.070312 3.570312 -9.171875 3.46875 -9.171875 Z M 5.921875 -1.71875 L 2.078125 -1.71875 L 1.34375 0 L 0.015625 0 L 3.375 -7.609375 L 4.6875 -7.609375 L 8.015625 0 L 6.640625 0 Z M 5.421875 -2.859375 L 3.984375 -6.25 L 2.5625 -2.859375 Z M 5.421875 -2.859375 "/></g></g></g><g fill="#000000" fill-opacity="1"><g transform="translate(156.781352, 303.643809)"><g><path d="M 1.53125 -6.53125 C 2.3125 -7.269531 3.269531 -7.640625 4.40625 -7.640625 C 5.539062 -7.640625 6.492188 -7.269531 7.265625 -6.53125 C 8.046875 -5.800781 8.4375 -4.890625 8.4375 -3.796875 C 8.4375 -2.710938 8.046875 -1.800781 7.265625 -1.0625 C 6.492188 -0.320312 5.539062 0.046875 4.40625 0.046875 C 3.269531 0.046875 2.3125 -0.320312 1.53125 -1.0625 C 0.757812 -1.800781 0.375 -2.710938 0.375 -3.796875 C 0.375 -4.890625 0.757812 -5.800781 1.53125 -6.53125 Z M 4.421875 -6.5 C 3.660156 -6.5 3.007812 -6.238281 2.46875 -5.71875 C 1.9375 -5.195312 1.671875 -4.554688 1.671875 -3.796875 C 1.671875 -3.046875 1.941406 -2.40625 2.484375 -1.875 C 3.023438 -1.351562 3.664062 -1.09375 4.40625 -1.09375 C 5.15625 -1.09375 5.796875 -1.351562 6.328125 -1.875 C 6.859375 -2.40625 7.125 -3.046875 7.125 -3.796875 C 7.125 -4.554688 6.859375 -5.195312 6.328125 -5.71875 C 5.796875 -6.238281 5.160156 -6.5 4.421875 -6.5 Z M 4.421875 -6.5 "/></g></g></g><g fill="#000000" fill-opacity="1"><g transform="translate(168.732816, 303.643809)"><g/></g></g><g fill="#000000" fill-opacity="1"><g transform="translate(174.687738, 303.643809)"><g><path d="M 4.375 -7.640625 C 4.90625 -7.640625 5.425781 -7.535156 5.9375 -7.328125 C 6.445312 -7.128906 6.890625 -6.84375 7.265625 -6.46875 L 6.515625 -5.53125 C 6.234375 -5.832031 5.90625 -6.066406 5.53125 -6.234375 C 5.15625 -6.410156 4.773438 -6.5 4.390625 -6.5 C 3.628906 -6.5 2.984375 -6.238281 2.453125 -5.71875 C 1.929688 -5.207031 1.671875 -4.578125 1.671875 -3.828125 C 1.671875 -3.078125 1.929688 -2.441406 2.453125 -1.921875 C 2.984375 -1.398438 3.628906 -1.140625 4.390625 -1.140625 C 5.179688 -1.140625 5.890625 -1.441406 6.515625 -2.046875 L 7.28125 -1.203125 C 6.882812 -0.816406 6.425781 -0.507812 5.90625 -0.28125 C 5.382812 -0.0625 4.859375 0.046875 4.328125 0.046875 C 3.210938 0.046875 2.273438 -0.320312 1.515625 -1.0625 C 0.753906 -1.800781 0.375 -2.71875 0.375 -3.8125 C 0.375 -4.894531 0.757812 -5.800781 1.53125 -6.53125 C 2.300781 -7.269531 3.25 -7.640625 4.375 -7.640625 Z M 4.375 -7.640625 "/></g></g></g><g fill="#000000" fill-opacity="1"><g transform="translate(185.411641, 303.643809)"><g><path d="M 1.53125 -6.53125 C 2.3125 -7.269531 3.269531 -7.640625 4.40625 -7.640625 C 5.539062 -7.640625 6.492188 -7.269531 7.265625 -6.53125 C 8.046875 -5.800781 8.4375 -4.890625 8.4375 -3.796875 C 8.4375 -2.710938 8.046875 -1.800781 7.265625 -1.0625 C 6.492188 -0.320312 5.539062 0.046875 4.40625 0.046875 C 3.269531 0.046875 2.3125 -0.320312 1.53125 -1.0625 C 0.757812 -1.800781 0.375 -2.710938 0.375 -3.796875 C 0.375 -4.890625 0.757812 -5.800781 1.53125 -6.53125 Z M 4.421875 -6.5 C 3.660156 -6.5 3.007812 -6.238281 2.46875 -5.71875 C 1.9375 -5.195312 1.671875 -4.554688 1.671875 -3.796875 C 1.671875 -3.046875 1.941406 -2.40625 2.484375 -1.875 C 3.023438 -1.351562 3.664062 -1.09375 4.40625 -1.09375 C 5.15625 -1.09375 5.796875 -1.351562 6.328125 -1.875 C 6.859375 -2.40625 7.125 -3.046875 7.125 -3.796875 C 7.125 -4.554688 6.859375 -5.195312 6.328125 -5.71875 C 5.796875 -6.238281 5.160156 -6.5 4.421875 -6.5 Z M 4.421875 -6.5 "/></g></g></g><g fill="#000000" fill-opacity="1"><g transform="translate(197.363105, 303.643809)"><g><path d="M 7.609375 0 L 6.34375 0 L 2.28125 -5.453125 L 2.28125 0 L 1 0 L 1 -7.609375 L 2.265625 -7.609375 L 6.34375 -2.140625 L 6.34375 -7.609375 L 7.609375 -7.609375 Z M 7.609375 0 "/></g></g></g><g fill="#000000" fill-opacity="1"><g transform="translate(209.119025, 303.643809)"><g><path d="M 3.5 -7.671875 C 4.488281 -7.671875 5.378906 -7.410156 6.171875 -6.890625 L 5.640625 -5.75 C 4.859375 -6.21875 4.113281 -6.453125 3.40625 -6.453125 C 3.019531 -6.453125 2.71875 -6.382812 2.5 -6.25 C 2.28125 -6.113281 2.171875 -5.914062 2.171875 -5.65625 C 2.171875 -5.40625 2.269531 -5.191406 2.46875 -5.015625 C 2.664062 -4.835938 2.914062 -4.707031 3.21875 -4.625 C 3.53125 -4.539062 3.863281 -4.4375 4.21875 -4.3125 C 4.570312 -4.1875 4.898438 -4.050781 5.203125 -3.90625 C 5.515625 -3.769531 5.769531 -3.550781 5.96875 -3.25 C 6.164062 -2.945312 6.265625 -2.582031 6.265625 -2.15625 C 6.265625 -1.488281 6 -0.953125 5.46875 -0.546875 C 4.9375 -0.148438 4.242188 0.046875 3.390625 0.046875 C 2.804688 0.046875 2.242188 -0.0625 1.703125 -0.28125 C 1.160156 -0.5 0.6875 -0.789062 0.28125 -1.15625 L 0.84375 -2.265625 C 1.21875 -1.910156 1.632812 -1.632812 2.09375 -1.4375 C 2.5625 -1.25 3.003906 -1.15625 3.421875 -1.15625 C 3.867188 -1.15625 4.21875 -1.238281 4.46875 -1.40625 C 4.71875 -1.570312 4.84375 -1.800781 4.84375 -2.09375 C 4.84375 -2.351562 4.738281 -2.570312 4.53125 -2.75 C 4.332031 -2.925781 4.078125 -3.054688 3.765625 -3.140625 C 3.460938 -3.222656 3.132812 -3.320312 2.78125 -3.4375 C 2.425781 -3.5625 2.097656 -3.691406 1.796875 -3.828125 C 1.492188 -3.960938 1.238281 -4.175781 1.03125 -4.46875 C 0.832031 -4.769531 0.734375 -5.128906 0.734375 -5.546875 C 0.734375 -6.191406 0.984375 -6.707031 1.484375 -7.09375 C 1.992188 -7.476562 2.664062 -7.671875 3.5 -7.671875 Z M 3.5 -7.671875 "/></g></g></g><g fill="#000000" fill-opacity="1"><g transform="translate(219.028189, 303.643809)"><g><path d="M 4.375 -7.640625 C 4.90625 -7.640625 5.425781 -7.535156 5.9375 -7.328125 C 6.445312 -7.128906 6.890625 -6.84375 7.265625 -6.46875 L 6.515625 -5.53125 C 6.234375 -5.832031 5.90625 -6.066406 5.53125 -6.234375 C 5.15625 -6.410156 4.773438 -6.5 4.390625 -6.5 C 3.628906 -6.5 2.984375 -6.238281 2.453125 -5.71875 C 1.929688 -5.207031 1.671875 -4.578125 1.671875 -3.828125 C 1.671875 -3.078125 1.929688 -2.441406 2.453125 -1.921875 C 2.984375 -1.398438 3.628906 -1.140625 4.390625 -1.140625 C 5.179688 -1.140625 5.890625 -1.441406 6.515625 -2.046875 L 7.28125 -1.203125 C 6.882812 -0.816406 6.425781 -0.507812 5.90625 -0.28125 C 5.382812 -0.0625 4.859375 0.046875 4.328125 0.046875 C 3.210938 0.046875 2.273438 -0.320312 1.515625 -1.0625 C 0.753906 -1.800781 0.375 -2.71875 0.375 -3.8125 C 0.375 -4.894531 0.757812 -5.800781 1.53125 -6.53125 C 2.300781 -7.269531 3.25 -7.640625 4.375 -7.640625 Z M 4.375 -7.640625 "/></g></g></g><g fill="#000000" fill-opacity="1"><g transform="translate(229.752092, 303.643809)"><g><path d="M 2.28125 0 L 1 0 L 1 -7.609375 L 2.28125 -7.609375 Z M 2.28125 0 "/></g></g></g><g fill="#000000" fill-opacity="1"><g transform="translate(236.184998, 303.643809)"><g><path d="M 6.4375 -6.453125 L 2.28125 -6.453125 L 2.28125 -4.40625 L 6 -4.40625 L 6 -3.25 L 2.28125 -3.25 L 2.28125 -1.15625 L 6.5625 -1.15625 L 6.5625 0 L 1 0 L 1 -7.609375 L 6.4375 -7.609375 Z M 6.4375 -6.453125 "/></g></g></g><g fill="#000000" fill-opacity="1"><g transform="translate(246.463509, 303.643809)"><g><path d="M 7.609375 0 L 6.34375 0 L 2.28125 -5.453125 L 2.28125 0 L 1 0 L 1 -7.609375 L 2.265625 -7.609375 L 6.34375 -2.140625 L 6.34375 -7.609375 L 7.609375 -7.609375 Z M 7.609375 0 "/></g></g></g><g fill="#000000" fill-opacity="1"><g transform="translate(258.219428, 303.643809)"><g><path d="M 6.203125 -6.453125 L 3.78125 -6.453125 L 3.78125 0 L 2.5 0 L 2.5 -6.453125 L 0.09375 -6.453125 L 0.09375 -7.609375 L 6.203125 -7.609375 Z M 6.203125 -6.453125 "/></g></g></g><g fill="#000000" fill-opacity="1"><g transform="translate(267.661467, 303.643809)"><g><path d="M 6.4375 -6.453125 L 2.28125 -6.453125 L 2.28125 -4.40625 L 6 -4.40625 L 6 -3.25 L 2.28125 -3.25 L 2.28125 -1.15625 L 6.5625 -1.15625 L 6.5625 0 L 1 0 L 1 -7.609375 L 6.4375 -7.609375 Z M 6.4375 -6.453125 "/></g></g></g></svg>