<svg xmlns="http://www.w3.org/2000/svg" xmlns:xlink="http://www.w3.org/1999/xlink" width="500" zoomAndPan="magnify" viewBox="0 0 375 374.999991" height="500" preserveAspectRatio="xMidYMid meet" version="1.0"><defs><g/><clipPath id="2dd98926e4"><path d="M 150 133.859375 L 260.542969 133.859375 L 260.542969 234.359375 L 150 234.359375 Z M 150 133.859375 " clip-rule="nonzero"/></clipPath><clipPath id="abe0c19509"><path d="M 110.542969 165 L 167 165 L 167 234.359375 L 110.542969 234.359375 Z M 110.542969 165 " clip-rule="nonzero"/></clipPath><clipPath id="f1e7fe9b55"><path d="M 118 80 L 143 80 L 143 100.949219 L 118 100.949219 Z M 118 80 " clip-rule="nonzero"/></clipPath><clipPath id="cd63fa6e2e"><path d="M 98.148438 98.011719 L 246 98.011719 L 246 148 L 98.148438 148 Z M 98.148438 98.011719 " clip-rule="nonzero"/></clipPath><clipPath id="b56d9d70ac"><path d="M 187 99 L 272.898438 99 L 272.898438 148 L 187 148 Z M 187 99 " clip-rule="nonzero"/></clipPath></defs><rect x="-37.5" width="450" fill="#ffffff" y="-37.499999" height="449.999989" fill-opacity="1"/><rect x="-37.5" width="450" fill="#ffffff" y="-37.499999" height="449.999989" fill-opacity="1"/><g clip-path="url(#2dd98926e4)"><path fill="#01a58d" d="M 179.410156 225.355469 C 179.460938 224.351562 179.511719 223.351562 179.5625 222.351562 C 179.398438 219.425781 179.195312 216.976562 179.023438 215.171875 C 178.632812 210.964844 178.378906 208.332031 177.65625 204.847656 C 177.300781 203.152344 176.957031 201.480469 176.230469 199.277344 C 176.015625 198.628906 175.226562 196.292969 172.710938 191.316406 C 170.566406 187.066406 170.671875 187.847656 169.378906 185.054688 C 169.378906 185.054688 167.910156 181.902344 166.25 176.175781 C 166.007812 175.375 165.851562 174.558594 165.777344 173.722656 C 165.722656 173.054688 165.722656 172.386719 165.777344 171.71875 C 166.191406 170.414062 166.519531 169.09375 166.761719 167.75 C 167.101562 165.910156 167.269531 164.988281 167.167969 163.746094 C 166.945312 161.207031 165.730469 159.042969 164.722656 158.804688 C 164.339844 158.714844 163.957031 158.703125 163.570312 158.761719 C 163.355469 158.808594 163.175781 158.871094 162.824219 159.003906 C 162.476562 159.132812 162.117188 159.28125 161.902344 159.375 C 161.746094 159.449219 161.585938 159.492188 161.417969 159.511719 C 161.210938 159.539062 161.003906 159.523438 160.800781 159.472656 C 159.976562 159.289062 160.152344 159.433594 159.109375 159.15625 C 158.234375 158.925781 158.082031 158.816406 155.628906 157.898438 C 155.238281 157.761719 154.867188 157.589844 154.507812 157.386719 C 154.351562 157.296875 153.914062 157.046875 153.527344 156.710938 C 152.785156 156.070312 152.429688 155.296875 152.195312 154.761719 C 151.78125 153.816406 151.566406 152.832031 151.554688 151.800781 C 151.507812 151.597656 151.441406 151.277344 151.339844 150.894531 C 151.140625 150.175781 151.027344 149.992188 150.953125 149.480469 C 150.890625 149.078125 150.84375 148.746094 150.988281 148.371094 C 151.089844 148.101562 151.246094 147.925781 151.390625 147.765625 C 151.617188 147.507812 151.886719 147.300781 152.195312 147.144531 L 153.296875 146.546875 C 154.292969 146 154.371094 145.941406 154.976562 145.617188 C 155.496094 145.34375 156.105469 145.023438 156.570312 144.785156 C 157.394531 144.359375 157.574219 144.269531 157.875 144.035156 C 158.234375 143.75 158.546875 143.425781 158.820312 143.058594 C 159.011719 142.800781 159.210938 142.523438 159.355469 142.105469 C 159.445312 141.839844 159.5 141.570312 159.515625 141.289062 C 159.523438 140.855469 159.527344 140.417969 159.535156 139.980469 C 159.628906 139.695312 159.757812 139.425781 159.917969 139.171875 C 160.078125 138.929688 160.261719 138.710938 160.472656 138.511719 C 160.789062 138.210938 160.988281 138.128906 161.675781 137.726562 C 161.894531 137.597656 161.429688 137.863281 163.070312 136.875 C 163.691406 136.496094 164 136.308594 164.078125 136.269531 C 165.007812 135.714844 165.972656 135.234375 166.980469 134.828125 C 167.261719 134.714844 167.59375 134.589844 168.050781 134.445312 C 168.574219 134.28125 169.527344 133.992188 170.785156 133.902344 C 171.402344 133.859375 172.023438 133.867188 172.640625 133.929688 C 173.015625 133.941406 173.386719 133.984375 173.753906 134.058594 C 174.050781 134.117188 174.375 134.1875 174.785156 134.367188 C 175 134.460938 175.203125 134.574219 175.402344 134.703125 L 176.210938 135.222656 L 177.402344 135.996094 L 178.304688 136.578125 C 179.546875 137.386719 180.652344 138.328125 181.058594 138.679688 C 181.578125 139.125 182.109375 139.582031 182.761719 140.269531 C 183.417969 140.953125 183.78125 141.417969 183.914062 141.585938 C 184.367188 142.15625 184.671875 142.617188 184.898438 142.957031 C 185.355469 143.640625 185.660156 144.175781 185.800781 144.414062 C 186.453125 145.542969 187.019531 146.453125 188.152344 148.285156 C 188.398438 148.683594 188.28125 148.484375 189.851562 150.941406 C 191.765625 153.949219 192.03125 154.371094 192.707031 155.375 C 193.082031 155.921875 193.457031 156.460938 194.214844 157.539062 C 195.054688 158.742188 195.503906 159.382812 195.984375 160.046875 C 197.542969 162.203125 198.878906 163.851562 199.96875 165.191406 C 200.796875 166.210938 201.621094 167.191406 201.714844 167.308594 L 202.484375 168.214844 C 203.929688 169.902344 204.65625 170.792969 205.953125 172.316406 C 207.320312 173.921875 208.367188 175.117188 210.09375 177.097656 C 210.964844 178.09375 211.695312 178.929688 212.230469 179.539062 L 217.386719 185.453125 C 218.410156 186.632812 219.445312 187.8125 220.484375 188.996094 C 221.347656 189.972656 222.207031 190.945312 223.0625 191.90625 L 225.238281 194.335938 L 227.492188 197.011719 L 229.363281 199.402344 C 229.792969 200.011719 230.222656 200.621094 230.65625 201.226562 C 231.144531 202.035156 231.636719 202.839844 232.132812 203.644531 L 233.710938 206.65625 C 233.964844 207.277344 234.222656 207.902344 234.484375 208.523438 C 234.726562 209.148438 234.964844 209.824219 235.1875 210.554688 C 235.414062 211.285156 235.566406 211.867188 235.710938 212.472656 C 235.855469 213.078125 235.917969 213.582031 236.027344 214.132812 C 236.269531 215.5 236.34375 216.875 236.25 218.257812 C 236.234375 218.546875 236.207031 218.863281 236.15625 219.199219 C 236.109375 219.539062 236.070312 219.738281 236.019531 219.976562 L 236.019531 221.398438 C 236.0625 221.660156 236.121094 221.917969 236.195312 222.175781 C 236.296875 222.53125 236.414062 222.925781 236.664062 223.371094 C 236.929688 223.835938 237.273438 224.234375 237.691406 224.566406 C 237.882812 224.71875 238.175781 224.945312 238.617188 225.097656 C 238.863281 225.183594 239.113281 225.226562 239.375 225.234375 C 239.640625 225.234375 239.902344 225.195312 240.15625 225.113281 C 240.558594 224.984375 240.820312 224.804688 241.140625 224.589844 C 241.511719 224.335938 241.855469 224.050781 242.171875 223.734375 C 242.835938 223.203125 243.4375 222.609375 243.972656 221.953125 C 244.378906 221.464844 244.742188 220.945312 245.0625 220.398438 C 245.304688 219.976562 245.515625 219.542969 245.703125 219.097656 C 246.007812 218.359375 246.238281 217.59375 246.390625 216.808594 C 246.675781 215.335938 246.628906 214.167969 246.582031 213.230469 C 246.550781 212.59375 246.496094 211.644531 246.210938 210.445312 C 246.0625 209.832031 245.925781 209.277344 245.621094 208.632812 C 245.355469 208.078125 244.816406 207.144531 243.730469 206.273438 C 243.167969 205.898438 242.378906 205.363281 241.460938 204.675781 C 240.402344 203.890625 239.800781 203.445312 239.097656 202.777344 C 238.300781 202.023438 237.585938 201.199219 236.953125 200.300781 C 236.683594 199.90625 236.484375 199.480469 236.359375 199.019531 C 236.25 198.605469 236.195312 198.183594 236.203125 197.753906 C 236.199219 197.335938 236.238281 196.925781 236.320312 196.515625 C 236.355469 196.308594 236.410156 196.101562 236.484375 195.902344 C 236.640625 195.511719 236.847656 195.257812 237.007812 195.0625 C 237.171875 194.847656 237.363281 194.660156 237.582031 194.496094 C 237.914062 194.246094 238.210938 194.136719 238.503906 194.039062 C 238.964844 193.882812 239.433594 193.789062 239.917969 193.761719 C 240.148438 193.742188 240.476562 193.722656 240.867188 193.699219 C 241.417969 193.671875 241.703125 193.65625 242.0625 193.660156 C 242.417969 193.664062 242.765625 193.695312 243.132812 193.730469 C 243.847656 193.804688 244.40625 193.894531 244.667969 193.941406 C 246.386719 194.25 248.03125 194.785156 249.601562 195.539062 C 250.441406 195.929688 251.03125 196.265625 251.652344 196.621094 C 252.511719 197.105469 253.09375 197.441406 253.828125 197.988281 C 254.164062 198.242188 254.464844 198.484375 254.789062 198.75 C 255.355469 199.214844 255.675781 199.484375 256.058594 199.84375 C 256.578125 200.335938 257.054688 200.863281 257.488281 201.429688 C 257.882812 201.945312 258.242188 202.484375 258.566406 203.046875 C 259.035156 203.859375 259.425781 204.707031 259.738281 205.589844 C 260.007812 206.339844 260.210938 207.105469 260.339844 207.894531 C 260.441406 208.5 260.496094 209.109375 260.503906 209.726562 L 260.511719 212.449219 C 260.492188 212.949219 260.449219 213.589844 260.363281 214.320312 C 260.265625 215.167969 260.121094 216.003906 259.929688 216.832031 C 259.691406 217.867188 259.371094 218.871094 258.96875 219.855469 C 258.597656 220.738281 258.164062 221.589844 257.664062 222.410156 C 256.929688 223.628906 256.242188 224.449219 255.746094 225.039062 C 255.042969 225.867188 254.292969 226.648438 253.492188 227.382812 C 252.726562 228.089844 251.488281 229.226562 249.65625 230.347656 C 248.757812 230.902344 247.820312 231.386719 246.847656 231.804688 C 245.070312 232.589844 243.226562 233.171875 241.320312 233.546875 L 237.417969 234.070312 L 235.359375 234.152344 C 231.863281 234.144531 229.050781 234.148438 227.082031 234.152344 C 224.753906 234.15625 223.355469 234.164062 220.757812 234.160156 L 216.871094 234.152344 L 212.027344 234.160156 L 206.609375 234.167969 L 203.191406 234.152344 C 203.226562 233.933594 203.230469 233.710938 203.199219 233.488281 C 203.160156 233.207031 203.074219 233.011719 202.914062 232.648438 C 202.796875 232.378906 202.667969 232.117188 202.519531 231.859375 C 202.503906 231.753906 202.503906 231.644531 202.519531 231.535156 C 202.554688 231.332031 202.640625 231.152344 202.785156 231.003906 C 202.929688 230.800781 203.058594 230.589844 203.171875 230.367188 C 203.300781 230.097656 203.398438 229.847656 203.550781 229.335938 C 203.699219 228.828125 203.816406 228.425781 203.945312 227.785156 C 204.050781 227.253906 204.125 226.714844 204.175781 226.171875 L 204.175781 223.59375 C 204.136719 223.429688 204.078125 223.183594 204.019531 222.882812 C 203.890625 222.265625 203.851562 221.917969 203.800781 221.625 C 203.691406 220.992188 203.527344 220.542969 203.28125 219.902344 C 203.039062 219.253906 202.746094 218.628906 202.402344 218.027344 C 201.984375 217.3125 201.5 216.648438 200.941406 216.035156 C 200.429688 215.453125 199.925781 214.992188 199.113281 214.234375 L 198.53125 213.707031 L 198.53125 212.003906 C 198.632812 211.554688 198.765625 211.121094 198.933594 210.695312 C 199.101562 210.265625 199.265625 209.847656 199.585938 209.363281 C 199.804688 209.035156 199.90625 208.96875 200.207031 208.507812 C 200.367188 208.269531 200.511719 208.023438 200.640625 207.769531 C 200.832031 207.375 200.976562 206.960938 201.078125 206.535156 C 201.253906 205.953125 201.371094 205.445312 201.449219 205.054688 C 201.5625 204.46875 201.625 204.003906 201.664062 203.644531 C 201.703125 203.285156 201.734375 202.976562 201.753906 202.746094 C 201.757812 201.949219 201.761719 201.152344 201.773438 200.355469 C 201.6875 200.027344 201.601562 199.757812 201.53125 199.554688 C 201.464844 199.351562 201.421875 199.25 201.316406 199.144531 C 201.207031 199.035156 201.074219 198.964844 200.921875 198.941406 C 200.867188 198.933594 200.714844 198.921875 200.421875 199.078125 C 200.191406 199.207031 200.054688 199.347656 199.902344 199.492188 C 199.339844 200.023438 199.355469 199.949219 199.0625 200.265625 C 198.902344 200.429688 198.847656 200.507812 198.503906 200.9375 C 197.777344 201.847656 197.777344 201.808594 197.476562 202.214844 C 197.171875 202.617188 196.933594 202.925781 196.667969 203.351562 C 196.40625 203.78125 196.191406 204.246094 195.8125 205.085938 C 195.433594 205.929688 195.222656 206.394531 195.097656 206.824219 C 195.019531 207.101562 194.96875 207.328125 194.816406 207.65625 C 194.65625 208.003906 194.453125 208.320312 194.207031 208.609375 C 194.160156 208.640625 194.109375 208.660156 194.054688 208.667969 C 193.890625 208.683594 193.777344 208.550781 193.761719 208.53125 C 193.660156 208.460938 193.574219 208.378906 193.503906 208.28125 C 193.453125 208.203125 193.410156 208.105469 193.324219 207.910156 C 193.289062 207.816406 193.234375 207.695312 193.1875 207.578125 C 193.007812 207.207031 192.757812 206.710938 192.441406 206.125 C 192.191406 205.660156 191.796875 204.933594 191.292969 204.191406 C 190.789062 203.445312 190.285156 202.851562 189.335938 201.773438 C 188.863281 201.234375 188.21875 200.523438 187.429688 199.710938 C 187.332031 199.589844 187.207031 199.503906 187.058594 199.449219 C 186.75 199.347656 186.480469 199.476562 186.367188 199.53125 C 186.167969 199.625 186.007812 199.765625 185.886719 199.949219 C 185.835938 200.164062 185.78125 200.382812 185.722656 200.597656 C 185.695312 200.875 185.671875 201.152344 185.644531 201.429688 C 185.648438 201.601562 185.660156 201.851562 185.6875 202.140625 C 185.722656 202.523438 185.769531 202.820312 185.828125 203.179688 C 185.996094 204.15625 186.074219 204.648438 186.195312 205.101562 C 186.292969 205.5 186.417969 205.886719 186.566406 206.265625 C 186.695312 206.59375 186.816406 206.828125 187.050781 207.285156 C 187.121094 207.425781 187.394531 207.964844 187.847656 208.757812 C 188.304688 209.550781 188.183594 209.308594 188.644531 210.113281 C 188.886719 210.539062 189.148438 211.003906 189.425781 211.324219 C 189.535156 211.449219 189.632812 211.574219 189.746094 211.695312 C 189.859375 211.816406 189.953125 211.910156 190.019531 212.027344 C 190.089844 212.148438 190.140625 212.277344 190.164062 212.417969 L 190.164062 213.425781 C 190.113281 213.539062 190.046875 213.675781 189.960938 213.828125 C 189.863281 214.003906 189.75 214.171875 189.625 214.328125 C 189.53125 214.449219 189.433594 214.566406 189.328125 214.675781 C 189.328125 214.675781 189.226562 214.789062 188.726562 215.386719 C 188.222656 215.984375 187.777344 216.6875 187.378906 217.3125 C 187.042969 217.835938 186.808594 218.246094 186.664062 218.492188 C 186.40625 218.945312 186.269531 219.179688 186.109375 219.523438 C 185.914062 219.953125 185.75 220.398438 185.621094 220.855469 C 185.445312 221.449219 185.320312 222.050781 185.25 222.664062 C 185.191406 223.152344 185.1875 223.484375 185.175781 224.136719 C 185.160156 225.097656 185.152344 225.578125 185.234375 226.171875 C 185.347656 226.941406 185.535156 227.519531 185.695312 227.980469 C 185.855469 228.449219 186.039062 228.90625 186.253906 229.351562 C 186.601562 230.066406 187.023438 230.734375 187.519531 231.359375 L 187.507812 231.90625 C 187.382812 231.980469 187.265625 232.0625 187.15625 232.152344 C 186.921875 232.339844 186.714844 232.550781 186.53125 232.789062 C 186.324219 233.050781 186.15625 233.265625 186.03125 233.605469 C 185.964844 233.792969 185.921875 233.984375 185.902344 234.183594 L 185.109375 234.183594 C 184.742188 234.183594 184.480469 234.1875 184.410156 234.191406 C 182.761719 234.210938 181.378906 234.15625 181.378906 234.15625 C 180.558594 234.121094 180.492188 234.09375 179.746094 234.074219 C 179 234.058594 178.902344 234.074219 178.277344 234.070312 C 177.164062 234.050781 176.058594 233.945312 174.957031 233.753906 C 174.503906 233.671875 174.101562 233.585938 173.710938 233.265625 C 173.574219 233.15625 173.207031 232.84375 173.054688 232.304688 C 172.949219 231.945312 172.996094 231.65625 173.070312 231.203125 C 173.167969 230.640625 173.351562 230.105469 173.621094 229.601562 C 173.792969 229.261719 174 228.945312 174.246094 228.65625 C 174.519531 228.324219 174.835938 228.042969 175.199219 227.804688 C 175.726562 227.46875 176.300781 227.269531 176.925781 227.207031 L 178 227.160156 C 178.160156 227.140625 178.3125 227.09375 178.457031 227.015625 C 178.648438 226.917969 178.808594 226.78125 178.9375 226.609375 C 179.308594 226.152344 179.390625 225.585938 179.410156 225.355469 Z M 179.410156 225.355469 " fill-opacity="1" fill-rule="nonzero"/></g><g clip-path="url(#abe0c19509)"><path fill="#01a58d" d="M 144.125 234.324219 C 145.878906 234.347656 147.671875 234.351562 149.496094 234.339844 C 151.238281 234.324219 152.949219 234.292969 154.632812 234.242188 C 155.003906 234.292969 155.367188 234.257812 155.722656 234.136719 C 155.835938 234.097656 155.945312 234.046875 156.050781 233.992188 C 156.117188 233.914062 156.164062 233.824219 156.195312 233.726562 C 156.265625 233.519531 156.234375 233.332031 156.183594 233.128906 C 156.089844 232.761719 155.953125 232.410156 155.78125 232.074219 C 155.652344 231.824219 155.496094 231.589844 155.304688 231.382812 C 155.046875 231.09375 154.75 230.855469 154.410156 230.671875 C 153.96875 230.417969 153.5 230.25 152.996094 230.171875 L 148.761719 230.269531 L 148.253906 230.257812 L 148.253906 229.828125 C 148.359375 229.761719 148.519531 229.667969 148.703125 229.539062 C 148.886719 229.414062 149.046875 229.269531 149.492188 228.851562 C 149.9375 228.433594 150.199219 228.191406 150.351562 228.027344 C 150.5 227.859375 150.613281 227.730469 150.84375 227.433594 C 151.222656 226.949219 151.613281 226.445312 152.03125 225.714844 C 152.371094 225.121094 152.65625 224.507812 152.898438 223.867188 C 153.109375 223.328125 153.273438 222.769531 153.390625 222.203125 C 153.464844 221.832031 153.511719 221.507812 153.539062 221.269531 L 153.539062 219.195312 C 153.5 218.980469 153.441406 218.707031 153.355469 218.398438 C 153.273438 218.109375 153.179688 217.820312 153.066406 217.539062 C 152.941406 217.207031 152.792969 216.882812 152.625 216.570312 C 152.484375 216.3125 152.328125 216.0625 152.160156 215.824219 C 152.011719 215.621094 151.851562 215.425781 151.683594 215.238281 L 151.84375 215.238281 L 152.363281 215.6875 C 152.675781 215.960938 152.726562 215.996094 152.828125 216.101562 C 153.011719 216.289062 153.175781 216.492188 153.320312 216.714844 C 153.695312 217.238281 153.929688 217.816406 154.023438 218.453125 C 154.0625 218.671875 154.085938 218.890625 154.097656 219.113281 C 154.128906 219.625 154.15625 220.136719 154.179688 220.660156 C 154.226562 221.585938 154.253906 222.496094 154.265625 223.386719 C 154.335938 224.125 154.421875 224.757812 154.507812 225.261719 C 154.566406 225.632812 154.660156 226.195312 154.828125 226.933594 C 154.933594 227.378906 155.050781 227.871094 155.253906 228.492188 C 155.457031 229.113281 155.523438 229.144531 155.789062 229.902344 C 155.914062 230.25 155.925781 230.328125 156.351562 231.738281 C 156.703125 232.894531 156.746094 233.019531 156.863281 233.207031 C 157.242188 233.816406 157.796875 234.144531 158.207031 234.324219 L 160.570312 234.335938 L 161.40625 234.328125 C 161.65625 234.308594 161.890625 234.246094 162.117188 234.140625 C 162.28125 234.058594 162.519531 233.945312 162.726562 233.675781 C 162.871094 233.484375 162.96875 233.265625 163.015625 233.027344 L 163.007812 232.078125 C 162.886719 231.78125 162.714844 231.515625 162.496094 231.277344 C 162.203125 230.964844 161.855469 230.734375 161.449219 230.597656 L 160.582031 230.597656 C 160.449219 230.511719 160.328125 230.410156 160.222656 230.289062 C 160.101562 230.144531 160.003906 229.988281 159.929688 229.816406 C 159.722656 229.371094 159.609375 228.925781 159.519531 228.554688 C 159.433594 228.183594 159.351562 227.84375 159.25 227.308594 C 159.152344 226.773438 159.09375 226.289062 159.082031 226.191406 C 159.082031 226.191406 159.035156 225.753906 159.007812 225.269531 C 158.933594 224.042969 159.042969 222.503906 159.0625 222.230469 C 159.082031 221.953125 159.121094 221.53125 159.191406 221.066406 C 159.304688 220.261719 159.441406 219.671875 159.582031 219.070312 C 159.820312 218.042969 160.0625 217.238281 160.207031 216.785156 C 160.351562 216.332031 160.492188 215.929688 160.816406 215.027344 C 161.367188 213.472656 161.398438 213.453125 161.652344 212.691406 C 162.058594 211.472656 162.285156 210.632812 162.335938 210.4375 C 162.5 209.800781 162.652344 209.210938 162.773438 208.40625 C 162.867188 207.800781 162.910156 207.285156 162.933594 206.910156 C 162.929688 206.332031 162.929688 205.753906 162.925781 205.175781 C 162.898438 205.011719 162.851562 204.769531 162.800781 204.472656 C 162.691406 203.835938 162.632812 203.515625 162.585938 203.292969 C 162.480469 202.808594 162.339844 202.335938 162.167969 201.871094 C 161.910156 201.164062 161.621094 200.628906 161.207031 199.847656 C 160.882812 199.25 160.699219 198.957031 160.59375 198.429688 C 160.53125 198.125 160.503906 197.820312 160.519531 197.507812 C 160.507812 197.273438 160.535156 197.039062 160.601562 196.8125 C 160.660156 196.609375 160.726562 196.390625 160.917969 196.191406 C 161.058594 196.046875 161.222656 195.953125 161.417969 195.902344 C 161.863281 195.832031 162.234375 195.75 162.507812 195.683594 C 163.089844 195.542969 163.574219 195.421875 164.148438 195.121094 C 164.367188 195.011719 164.558594 194.910156 164.785156 194.722656 C 165.125 194.441406 165.320312 194.148438 165.515625 193.851562 C 165.710938 193.550781 165.746094 193.425781 166.171875 192.652344 L 166.472656 192.125 C 166.507812 191.957031 166.507812 191.789062 166.472656 191.617188 C 166.421875 191.410156 166.324219 191.289062 166.226562 191.136719 C 166.125 190.984375 166.011719 190.734375 165.847656 190.34375 C 165.625 189.8125 165.535156 189.359375 165.472656 189.023438 C 165.417969 188.742188 165.382812 188.457031 165.359375 188.171875 C 165.351562 187.625 165.347656 187.078125 165.34375 186.53125 C 165.304688 186.34375 165.253906 186.160156 165.191406 185.976562 C 165.136719 185.8125 164.867188 185.027344 164.109375 184.113281 C 163.816406 183.769531 163.5 183.449219 163.15625 183.15625 C 162.480469 182.570312 161.742188 182.074219 160.949219 181.660156 C 160.742188 181.566406 160.558594 181.4375 160.398438 181.277344 C 160.207031 181.089844 160.054688 180.875 159.941406 180.628906 C 159.664062 180.097656 159.433594 179.546875 159.25 178.980469 C 159.101562 178.523438 158.984375 178.058594 158.894531 177.585938 C 158.816406 177.175781 158.757812 176.761719 158.726562 176.34375 C 158.730469 176.234375 158.703125 176.128906 158.644531 176.035156 C 158.523438 175.855469 158.324219 175.820312 158.242188 175.800781 C 158.15625 175.785156 158.089844 175.78125 157.828125 175.847656 C 157.648438 175.886719 157.476562 175.945312 157.308594 176.023438 C 156.988281 176.175781 156.695312 176.367188 156.425781 176.601562 C 156.246094 176.757812 155.859375 177.121094 155.308594 177.976562 C 155.039062 178.398438 154.832031 178.789062 154.4375 179.558594 C 153.941406 180.519531 153.921875 180.632812 153.621094 181.117188 C 153.207031 181.789062 152.917969 182.105469 152.613281 182.347656 C 152.394531 182.519531 152.359375 182.507812 152.070312 182.71875 C 151.964844 182.796875 151.574219 183.097656 151.027344 183.707031 C 150.417969 184.367188 149.898438 185.09375 149.46875 185.882812 C 148.632812 187.421875 148.183594 189.066406 148.128906 190.816406 C 148.066406 191.046875 147.972656 191.347656 147.851562 191.683594 C 147.679688 192.140625 147.480469 192.585938 147.253906 193.015625 C 146.882812 193.71875 146.539062 194.179688 145.902344 195.042969 C 145.734375 195.265625 145.421875 195.660156 144.804688 196.445312 C 144.117188 197.328125 143.769531 197.765625 143.546875 198.039062 C 142.871094 198.855469 142.335938 199.453125 142.027344 199.792969 C 141.363281 200.523438 141.1875 200.671875 139.664062 202.226562 C 138.140625 203.78125 138.1875 203.753906 137.097656 204.855469 C 136.132812 205.824219 136.070312 205.863281 135.511719 206.449219 C 134.765625 207.226562 134.175781 207.839844 133.46875 208.714844 C 132.992188 209.308594 132.488281 209.933594 131.921875 210.851562 C 131.539062 211.46875 131.199219 212.113281 130.898438 212.777344 C 130.445312 213.796875 130.097656 214.855469 129.855469 215.949219 C 129.621094 216.988281 129.484375 218.039062 129.445312 219.101562 L 129.445312 222.269531 C 129.492188 223.164062 129.558594 223.902344 129.621094 224.445312 C 129.679688 224.988281 129.734375 225.4375 129.804688 225.96875 C 129.878906 226.5 129.957031 227.0625 130.085938 227.847656 C 130.175781 228.382812 130.261719 228.839844 130.328125 229.171875 C 130.398438 229.355469 130.347656 229.492188 130.179688 229.589844 C 130.058594 229.65625 129.894531 229.621094 129.769531 229.503906 C 129.597656 229.417969 129.4375 229.316406 129.285156 229.199219 C 129.019531 228.992188 128.785156 228.75 128.589844 228.476562 C 128.457031 228.296875 128.210938 227.945312 127.820312 227.074219 C 127.550781 226.476562 127.382812 226.007812 127.199219 225.503906 C 127.015625 224.996094 126.855469 224.546875 126.6875 223.964844 C 126.476562 223.230469 126.308594 222.492188 126.183594 221.738281 C 126.066406 221.046875 125.847656 219.679688 125.921875 217.972656 C 125.945312 217.441406 125.992188 216.949219 126.015625 216.707031 C 126.058594 216.277344 126.132812 215.527344 126.277344 214.753906 C 126.464844 213.765625 126.714844 213.074219 127.054688 212.105469 C 127.238281 211.589844 127.503906 210.949219 128.027344 209.671875 C 128.3125 208.976562 128.546875 208.417969 128.808594 207.792969 C 129.359375 206.484375 129.457031 206.277344 129.640625 205.828125 C 129.945312 205.089844 130.367188 204.003906 130.820312 202.601562 C 130.945312 202.175781 131.070312 201.710938 131.175781 201.195312 C 131.285156 200.683594 131.34375 200.246094 131.394531 199.824219 C 131.417969 199.601562 131.441406 199.292969 131.457031 198.925781 C 131.476562 198.597656 131.476562 198.269531 131.457031 197.945312 C 131.417969 197.402344 131.304688 196.878906 131.113281 196.375 C 130.941406 195.902344 130.699219 195.464844 130.394531 195.066406 C 130.171875 194.78125 129.917969 194.527344 129.636719 194.304688 C 129.640625 194.21875 129.625 194.136719 129.59375 194.058594 C 129.566406 193.988281 129.53125 193.921875 129.480469 193.867188 C 129.34375 193.675781 129.195312 193.496094 129.035156 193.324219 C 128.796875 193.082031 128.679688 193.003906 128.550781 192.964844 C 128.464844 192.9375 128.375 192.921875 128.285156 192.921875 L 127.910156 192.921875 L 127.550781 192.914062 C 127.503906 192.828125 127.46875 192.75 127.4375 192.699219 C 127.410156 192.648438 127.390625 192.558594 127.390625 192.539062 C 127.394531 192.457031 127.429688 192.386719 127.492188 192.332031 L 127.820312 192.105469 C 127.996094 191.984375 128.347656 191.742188 128.644531 191.527344 C 128.9375 191.3125 129.261719 191.042969 129.828125 190.574219 L 130.445312 190.046875 L 130.703125 190.046875 C 130.710938 190.089844 130.722656 190.125 130.746094 190.160156 C 130.769531 190.191406 130.792969 190.222656 130.820312 190.25 C 130.882812 190.328125 130.878906 190.34375 130.902344 190.363281 C 130.925781 190.382812 131.003906 190.398438 131.140625 190.332031 C 131.28125 190.261719 131.378906 190.117188 131.527344 189.960938 C 131.832031 189.652344 132.113281 189.332031 132.378906 188.992188 C 132.871094 188.347656 133.164062 187.75 133.382812 187.296875 C 133.6875 186.667969 133.851562 186.191406 134.121094 185.429688 C 134.359375 184.746094 134.5 184.242188 134.675781 183.625 C 134.957031 182.660156 135.039062 182.246094 135.078125 182.027344 C 135.160156 181.605469 135.203125 181.25 135.230469 180.996094 L 135.222656 179.402344 C 135.171875 179.054688 135.09375 178.714844 134.996094 178.382812 C 134.949219 178.226562 134.902344 178.074219 134.847656 177.933594 L 134.847656 177.582031 C 134.941406 177.386719 135.027344 177.1875 135.121094 176.992188 L 135.710938 176.117188 L 136.15625 175.273438 L 136.277344 174.882812 L 136.261719 174.175781 L 136.519531 173.933594 L 137.011719 173.914062 L 137.703125 173.925781 C 137.90625 173.890625 138.105469 173.832031 138.296875 173.75 C 138.449219 173.683594 138.59375 173.609375 138.734375 173.527344 C 138.910156 173.425781 139.054688 173.332031 139.160156 173.253906 C 139.1875 173.222656 139.222656 173.191406 139.25 173.15625 C 139.277344 173.121094 139.296875 173.101562 139.320312 173.070312 L 139.40625 173.070312 C 139.425781 173.105469 139.445312 173.140625 139.464844 173.175781 C 139.503906 173.25 139.539062 173.328125 139.558594 173.410156 C 139.558594 173.636719 139.5625 173.867188 139.5625 174.089844 C 139.550781 174.140625 139.535156 174.191406 139.515625 174.242188 C 139.484375 174.316406 139.445312 174.382812 139.40625 174.449219 C 139.367188 174.503906 139.335938 174.5625 139.3125 174.625 C 139.296875 174.671875 139.253906 174.804688 139.316406 174.925781 C 139.339844 174.96875 139.371094 175 139.410156 175.03125 C 139.445312 175.03125 139.484375 175.03125 139.519531 175.023438 C 139.5625 175.019531 139.597656 175.003906 139.636719 174.984375 C 139.710938 174.9375 139.78125 174.886719 139.847656 174.824219 C 139.953125 174.726562 140.050781 174.621094 140.132812 174.503906 C 140.6875 173.734375 140.714844 173.695312 140.773438 173.578125 C 140.867188 173.386719 140.945312 173.1875 141.007812 172.984375 C 141.109375 172.679688 141.191406 172.367188 141.253906 172.050781 C 141.277344 171.792969 141.304688 171.539062 141.328125 171.277344 C 141.328125 171.140625 141.324219 171 141.324219 170.859375 C 141.324219 170.632812 141.300781 170.40625 141.25 170.183594 C 141.210938 170.007812 141.152344 169.839844 141.082031 169.675781 L 140.757812 168.992188 C 140.703125 168.796875 140.652344 168.601562 140.597656 168.402344 C 140.574219 168.117188 140.542969 167.835938 140.515625 167.550781 C 140.472656 167.433594 140.421875 167.320312 140.359375 167.214844 C 140.269531 167.058594 140.160156 166.914062 140.03125 166.785156 C 139.886719 166.628906 139.726562 166.488281 139.550781 166.363281 C 139.425781 166.265625 139.292969 166.183594 139.148438 166.113281 C 139.066406 166.078125 138.984375 166.046875 138.898438 166.019531 L 137.070312 165.941406 L 135.144531 165.941406 C 134.734375 165.972656 134.054688 166.070312 133.378906 166.378906 C 133.121094 166.492188 132.882812 166.628906 132.65625 166.792969 C 132.554688 166.875 132.457031 166.953125 132.078125 167.316406 C 131.441406 167.933594 131.492188 167.921875 131.289062 168.085938 C 131.015625 168.304688 130.71875 168.496094 130.410156 168.660156 C 130.128906 168.8125 129.878906 168.921875 129.691406 169.003906 C 129.648438 169.019531 129.617188 169.050781 129.597656 169.089844 C 129.578125 169.140625 129.578125 169.191406 129.597656 169.242188 C 129.621094 169.304688 129.652344 169.363281 129.6875 169.417969 C 129.734375 169.5 129.761719 169.523438 129.761719 169.566406 C 129.761719 169.605469 129.648438 169.730469 129.605469 169.761719 C 129.410156 169.886719 129.25 170.070312 129.046875 170.183594 C 128.75 170.347656 128.480469 170.546875 128.234375 170.78125 C 128.21875 170.792969 128.160156 170.84375 128.164062 170.902344 C 128.167969 170.964844 128.1875 170.96875 128.234375 171.023438 L 128.324219 171.105469 C 128.367188 171.140625 128.390625 171.1875 128.402344 171.238281 C 128.40625 171.289062 128.402344 171.335938 128.382812 171.382812 C 128.371094 171.429688 128.351562 171.472656 128.328125 171.515625 C 128.25 171.636719 128.136719 171.796875 127.996094 171.972656 C 127.796875 172.21875 127.582031 172.449219 127.34375 172.660156 C 127.171875 172.808594 126.992188 172.945312 126.800781 173.070312 C 126.21875 173.484375 126.101562 173.476562 125.828125 173.75 C 125.675781 173.90625 125.542969 174.078125 125.429688 174.265625 C 125.277344 174.5 125.234375 174.625 125.027344 175.035156 C 124.890625 175.292969 124.816406 175.441406 124.710938 175.613281 C 124.464844 176.023438 124.167969 176.394531 123.824219 176.726562 C 123.671875 176.871094 123.699219 176.828125 123.34375 177.140625 C 123.261719 177.21875 123.058594 177.398438 122.699219 177.738281 C 122.339844 178.082031 121.992188 178.410156 121.492188 178.925781 C 120.992188 179.445312 121.058594 179.417969 120.851562 179.605469 C 120.644531 179.792969 120.171875 180.195312 119.808594 180.535156 C 119.675781 180.65625 119.570312 180.800781 119.492188 180.964844 C 119.453125 181.042969 119.425781 181.125 119.402344 181.210938 L 119.402344 181.894531 C 119.351562 182.015625 119.273438 182.1875 119.175781 182.394531 C 119.128906 182.496094 119.015625 182.730469 118.925781 182.910156 C 118.757812 183.222656 118.625 183.40625 118.445312 183.679688 C 118.03125 184.300781 117.824219 184.613281 117.640625 185.035156 C 117.589844 185.152344 117.5 185.425781 117.316406 185.96875 C 117.132812 186.515625 117.105469 186.640625 117.003906 186.894531 C 116.96875 186.992188 116.855469 187.269531 116.523438 187.914062 C 116.148438 188.632812 116.078125 188.675781 115.710938 189.371094 C 115.347656 190.0625 115.53125 189.796875 115.152344 190.554688 C 115.152344 190.554688 114.882812 191.082031 114.832031 191.5625 C 114.816406 191.660156 114.816406 191.757812 114.835938 191.859375 C 114.875 192.082031 114.972656 192.132812 114.996094 192.316406 C 115.019531 192.5 114.96875 192.5625 114.917969 192.683594 C 114.84375 192.875 114.730469 193.042969 114.585938 193.183594 C 114.238281 193.523438 113.949219 193.917969 113.632812 194.285156 C 113.3125 194.652344 113.441406 194.550781 112.894531 195.226562 C 112.347656 195.898438 112.265625 195.957031 111.851562 196.496094 C 111.757812 196.621094 111.855469 196.496094 111.304688 197.25 C 111.117188 197.507812 110.882812 197.832031 110.71875 198.222656 C 110.65625 198.386719 110.621094 198.554688 110.601562 198.726562 C 110.582031 198.898438 110.574219 198.980469 110.621094 199.027344 C 110.730469 199.128906 111.027344 198.96875 111.199219 198.832031 C 111.371094 198.699219 111.40625 198.640625 111.585938 198.433594 C 111.691406 198.316406 111.832031 198.234375 111.945312 198.128906 C 111.957031 198.117188 111.992188 198.078125 112.011719 198.089844 C 112.035156 198.105469 112.027344 198.171875 112.023438 198.195312 C 112.007812 198.261719 111.984375 198.320312 111.949219 198.378906 C 111.921875 198.433594 111.898438 198.488281 111.867188 198.542969 C 111.78125 198.683594 111.78125 198.714844 111.554688 199.125 C 111.296875 199.597656 111.246094 199.660156 111.195312 199.851562 C 111.167969 199.964844 111.152344 200.078125 111.15625 200.191406 C 111.160156 200.355469 111.164062 200.480469 111.226562 200.542969 C 111.40625 200.730469 112.027344 200.347656 112.273438 200.195312 C 112.519531 200.042969 112.734375 199.875 113.070312 199.609375 C 113.40625 199.347656 113.105469 199.59375 114.742188 198.351562 L 115.402344 197.847656 L 115.988281 197.847656 C 116.296875 197.695312 116.554688 197.550781 116.746094 197.433594 C 117.105469 197.214844 117.371094 197.019531 117.582031 196.863281 C 117.792969 196.707031 117.875 196.640625 117.972656 196.566406 C 118.015625 196.527344 118.0625 196.511719 118.121094 196.515625 C 118.164062 196.527344 118.199219 196.550781 118.226562 196.585938 C 118.277344 196.640625 118.308594 196.703125 118.320312 196.777344 C 118.3125 196.855469 118.300781 196.980469 118.285156 197.128906 C 118.195312 197.964844 118.160156 198.34375 118.117188 198.804688 C 118.035156 199.5625 118.039062 199.449219 117.953125 200.292969 C 117.871094 201.066406 117.875 201.085938 117.789062 201.980469 C 117.691406 202.949219 117.675781 202.964844 117.605469 203.722656 C 117.554688 204.253906 117.515625 204.695312 117.472656 205.289062 C 117.425781 205.964844 117.4375 206.003906 117.394531 206.609375 C 117.351562 207.214844 117.332031 207.324219 117.246094 208.230469 C 117.167969 209.070312 117.183594 208.984375 117.078125 210.1875 C 116.976562 211.390625 116.960938 211.441406 116.914062 212.039062 C 116.851562 212.847656 116.824219 213.480469 116.808594 213.851562 C 116.78125 214.46875 116.777344 214.675781 116.753906 215.488281 C 116.699219 217.085938 116.671875 217.886719 116.605469 218.640625 C 116.507812 219.75 116.457031 220.304688 116.363281 220.605469 C 116.203125 221.121094 116.09375 221.652344 116.035156 222.191406 C 116.027344 222.269531 116.023438 222.351562 116.027344 222.433594 C 116.023438 222.628906 116.03125 222.679688 116.066406 222.722656 C 116.101562 222.769531 116.132812 222.804688 116.214844 222.796875 C 116.296875 222.789062 116.351562 222.71875 116.375 222.691406 C 116.398438 222.664062 116.429688 222.546875 116.457031 222.355469 C 116.5 222.082031 116.539062 221.976562 116.550781 221.941406 C 116.589844 221.839844 116.636719 221.703125 116.699219 221.703125 C 116.765625 221.703125 116.882812 222.03125 116.886719 222.046875 C 116.890625 222.1875 116.894531 222.300781 116.902344 222.390625 C 116.910156 222.488281 116.921875 222.589844 116.941406 222.6875 C 116.964844 222.804688 116.996094 222.953125 117.039062 222.957031 C 117.082031 222.960938 117.097656 222.859375 117.183594 222.589844 C 117.265625 222.316406 117.300781 222.230469 117.34375 222.117188 C 117.433594 221.886719 117.472656 221.878906 117.566406 221.667969 C 117.65625 221.457031 117.640625 221.417969 117.726562 221.125 C 117.808594 220.835938 117.820312 220.863281 117.972656 220.394531 C 118.125 219.921875 118.117188 219.886719 118.214844 219.640625 C 118.289062 219.449219 118.378906 219.265625 118.488281 219.09375 C 118.664062 218.804688 118.761719 218.769531 119.015625 218.441406 C 119.183594 218.234375 119.328125 218.015625 119.445312 217.777344 C 119.523438 217.628906 119.554688 217.53125 119.734375 216.835938 C 119.894531 216.214844 119.972656 215.898438 120.046875 215.570312 C 120.117188 215.242188 120.175781 214.925781 120.214844 214.707031 C 120.351562 213.964844 120.355469 213.796875 120.460938 213.246094 C 120.535156 212.835938 120.605469 212.554688 120.71875 212.085938 C 120.785156 211.8125 120.902344 211.335938 121.171875 210.394531 C 121.445312 209.457031 121.496094 209.316406 121.820312 208.195312 C 122.046875 207.410156 122.15625 207.015625 122.226562 206.730469 C 122.449219 205.796875 122.398438 205.675781 122.628906 204.578125 C 122.742188 204.023438 122.851562 203.613281 123.050781 202.839844 C 123.171875 202.378906 123.175781 202.378906 123.457031 201.316406 C 123.792969 200.046875 123.851562 199.804688 123.882812 199.660156 C 123.9375 199.414062 124.019531 199.023438 124.175781 198.242188 C 124.382812 197.222656 124.449219 196.851562 124.640625 196.308594 C 124.726562 196.058594 124.828125 195.816406 124.941406 195.578125 L 125.183594 195.578125 C 125.238281 195.625 125.296875 195.667969 125.359375 195.710938 L 125.824219 195.722656 L 125.917969 196.152344 C 125.914062 196.257812 125.914062 196.371094 125.914062 196.476562 C 125.96875 196.609375 126.050781 196.722656 126.160156 196.816406 C 126.25 196.894531 126.484375 197.066406 126.785156 197.074219 C 126.90625 197.074219 126.996094 197.050781 127.085938 197.117188 C 127.15625 197.171875 127.195312 197.242188 127.195312 197.332031 C 127.195312 197.382812 127.171875 197.402344 127.121094 197.503906 C 127.121094 197.503906 127.101562 197.546875 127.046875 197.691406 C 126.921875 198.042969 126.953125 198.707031 126.953125 198.707031 C 126.960938 198.855469 126.875 199.246094 126.710938 200.023438 C 126.675781 200.167969 126.601562 200.515625 126.382812 201.402344 C 126.164062 202.292969 126.066406 202.671875 125.925781 203.199219 C 125.886719 203.316406 125.738281 203.875 125.503906 204.621094 C 125.328125 205.199219 125.292969 205.265625 124.945312 206.34375 C 124.6875 207.132812 124.5625 207.527344 124.4375 207.933594 C 124.269531 208.5 124.160156 208.914062 123.980469 209.585938 C 123.738281 210.476562 123.621094 210.917969 123.503906 211.429688 C 123.363281 212.035156 123.183594 212.882812 123.019531 213.890625 C 122.867188 214.820312 122.796875 215.484375 122.777344 215.667969 C 122.738281 216.035156 122.710938 216.351562 122.695312 216.589844 C 122.613281 217.691406 122.613281 218.792969 122.695312 219.894531 C 122.765625 220.863281 122.886719 221.609375 122.941406 221.933594 C 122.972656 222.109375 123.097656 222.839844 123.34375 223.792969 C 123.441406 224.160156 123.582031 224.707031 123.824219 225.40625 C 123.929688 225.722656 124.144531 226.308594 124.464844 227.023438 C 124.589844 227.300781 124.832031 227.824219 125.1875 228.464844 C 125.28125 228.636719 125.5625 229.136719 126.066406 229.910156 C 126.734375 230.929688 127.066406 231.441406 127.59375 232.042969 C 128.53125 233.105469 129.222656 233.515625 129.441406 233.636719 C 129.675781 233.769531 129.914062 233.882812 130.164062 233.980469 C 130.628906 234.160156 131.113281 234.277344 131.609375 234.328125 L 144.125 234.328125 Z M 144.125 234.324219 " fill-opacity="1" fill-rule="nonzero"/></g><g clip-path="url(#f1e7fe9b55)"><path fill="#01a58d" d="M 142.203125 85.34375 C 140.890625 78.59375 132.660156 78.480469 130.632812 84.792969 C 128.601562 78.480469 120.375 78.59375 119.0625 85.34375 C 117.871094 91.472656 130.632812 101.136719 130.632812 101.136719 C 130.632812 101.136719 143.394531 91.472656 142.203125 85.34375 Z M 142.203125 85.34375 " fill-opacity="1" fill-rule="nonzero"/></g><g clip-path="url(#cd63fa6e2e)"><path fill="#01a58d" d="M 100.808594 147.734375 L 172.101562 101.613281 C 172.101562 101.613281 243.390625 147.734375 243.390625 147.734375 C 244.128906 148.210938 245.117188 148 245.59375 147.261719 C 246.070312 146.523438 245.859375 145.539062 245.121094 145.0625 C 245.121094 145.0625 172.964844 98.378906 172.964844 98.378906 C 172.4375 98.039062 171.761719 98.039062 171.238281 98.378906 C 171.238281 98.378906 99.082031 145.0625 99.082031 145.0625 C 98.34375 145.539062 98.132812 146.523438 98.609375 147.261719 C 99.085938 148 100.070312 148.210938 100.808594 147.734375 Z M 100.808594 147.734375 " fill-opacity="1" fill-rule="evenodd"/></g><g clip-path="url(#b56d9d70ac)"><path fill="#01a58d" d="M 189.726562 111.042969 L 202.839844 102.558594 C 202.839844 102.558594 270.242188 146.777344 270.242188 146.777344 C 270.976562 147.257812 271.964844 147.054688 272.445312 146.320312 C 272.925781 145.582031 272.722656 144.597656 271.988281 144.113281 C 271.988281 144.113281 203.71875 99.328125 203.71875 99.328125 C 203.191406 98.984375 202.511719 98.980469 201.980469 99.324219 C 201.980469 99.324219 196.175781 103.078125 187.996094 108.371094 C 187.257812 108.847656 187.046875 109.832031 187.523438 110.574219 C 188 111.308594 188.988281 111.523438 189.726562 111.042969 Z M 189.726562 111.042969 " fill-opacity="1" fill-rule="evenodd"/></g><path fill="#01a58d" d="M 139.535156 121.253906 L 139.535156 109.226562 C 139.535156 108.351562 138.820312 107.640625 137.945312 107.640625 L 124.679688 107.640625 C 123.800781 107.640625 123.09375 108.351562 123.09375 109.226562 L 123.09375 130.394531 C 123.09375 131.269531 123.800781 131.980469 124.679688 131.980469 C 125.554688 131.980469 126.269531 131.269531 126.269531 130.394531 L 126.269531 110.8125 C 126.269531 110.8125 136.359375 110.8125 136.359375 110.8125 L 136.359375 121.253906 C 136.359375 122.125 137.070312 122.835938 137.945312 122.835938 C 138.820312 122.835938 139.535156 122.125 139.535156 121.253906 Z M 139.535156 121.253906 " fill-opacity="1" fill-rule="evenodd"/><g fill="#01a58d" fill-opacity="1"><g transform="translate(108.132134, 270.581848)"><g><path d="M 12.484375 -13.90625 C 13.679688 -13.90625 14.597656 -14.179688 15.234375 -14.734375 C 15.878906 -15.285156 16.203125 -16.132812 16.203125 -17.28125 C 16.203125 -18.363281 15.867188 -19.195312 15.203125 -19.78125 C 14.535156 -20.363281 13.5625 -20.65625 12.28125 -20.65625 C 11.820312 -20.65625 11.441406 -20.644531 11.140625 -20.625 C 10.835938 -20.613281 10.53125 -20.582031 10.21875 -20.53125 L 10.21875 -13.90625 Z M 10.265625 -0.171875 C 9.953125 -0.0859375 9.457031 -0.00390625 8.78125 0.078125 C 8.113281 0.171875 7.453125 0.21875 6.796875 0.21875 C 6.140625 0.21875 5.5625 0.164062 5.0625 0.0625 C 4.5625 -0.03125 4.140625 -0.207031 3.796875 -0.46875 C 3.460938 -0.726562 3.207031 -1.082031 3.03125 -1.53125 C 2.863281 -1.988281 2.78125 -2.585938 2.78125 -3.328125 L 2.78125 -23.484375 C 2.78125 -24.078125 2.941406 -24.535156 3.265625 -24.859375 C 3.597656 -25.191406 4.050781 -25.457031 4.625 -25.65625 C 5.59375 -26 6.695312 -26.25 7.9375 -26.40625 C 9.175781 -26.5625 10.421875 -26.640625 11.671875 -26.640625 C 15.609375 -26.640625 18.617188 -25.796875 20.703125 -24.109375 C 22.785156 -22.429688 23.828125 -20.15625 23.828125 -17.28125 C 23.828125 -15.882812 23.601562 -14.617188 23.15625 -13.484375 C 22.71875 -12.359375 22.0625 -11.390625 21.1875 -10.578125 C 20.320312 -9.765625 19.222656 -9.140625 17.890625 -8.703125 C 16.566406 -8.265625 15.035156 -8.046875 13.296875 -8.046875 L 10.265625 -8.046875 Z M 10.265625 -0.171875 "/></g></g></g><g fill="#01a58d" fill-opacity="1"><g transform="translate(132.12125, 270.581848)"><g><path d="M 13.21875 0.6875 C 11.53125 0.6875 9.96875 0.453125 8.53125 -0.015625 C 7.09375 -0.492188 5.835938 -1.203125 4.765625 -2.140625 C 3.703125 -3.078125 2.863281 -4.257812 2.25 -5.6875 C 1.632812 -7.113281 1.328125 -8.78125 1.328125 -10.6875 C 1.328125 -12.570312 1.632812 -14.191406 2.25 -15.546875 C 2.863281 -16.898438 3.664062 -18.007812 4.65625 -18.875 C 5.65625 -19.75 6.796875 -20.390625 8.078125 -20.796875 C 9.359375 -21.210938 10.671875 -21.421875 12.015625 -21.421875 C 13.523438 -21.421875 14.898438 -21.191406 16.140625 -20.734375 C 17.378906 -20.285156 18.445312 -19.660156 19.34375 -18.859375 C 20.25 -18.054688 20.953125 -17.097656 21.453125 -15.984375 C 21.953125 -14.878906 22.203125 -13.671875 22.203125 -12.359375 C 22.203125 -11.390625 21.925781 -10.644531 21.375 -10.125 C 20.832031 -9.613281 20.078125 -9.289062 19.109375 -9.15625 L 8.546875 -7.5625 C 8.867188 -6.625 9.515625 -5.921875 10.484375 -5.453125 C 11.453125 -4.984375 12.5625 -4.75 13.8125 -4.75 C 14.976562 -4.75 16.082031 -4.894531 17.125 -5.1875 C 18.164062 -5.488281 19.015625 -5.84375 19.671875 -6.25 C 20.128906 -5.957031 20.515625 -5.554688 20.828125 -5.046875 C 21.140625 -4.535156 21.296875 -3.992188 21.296875 -3.421875 C 21.296875 -2.140625 20.695312 -1.1875 19.5 -0.5625 C 18.582031 -0.0703125 17.554688 0.253906 16.421875 0.421875 C 15.285156 0.597656 14.21875 0.6875 13.21875 0.6875 Z M 12.015625 -16.125 C 11.328125 -16.125 10.734375 -16.007812 10.234375 -15.78125 C 9.742188 -15.550781 9.335938 -15.257812 9.015625 -14.90625 C 8.703125 -14.550781 8.46875 -14.148438 8.3125 -13.703125 C 8.15625 -13.265625 8.066406 -12.816406 8.046875 -12.359375 L 15.359375 -13.5625 C 15.265625 -14.125 14.945312 -14.691406 14.40625 -15.265625 C 13.863281 -15.835938 13.066406 -16.125 12.015625 -16.125 Z M 12.015625 -16.125 "/></g></g></g><g fill="#01a58d" fill-opacity="1"><g transform="translate(154.741985, 270.581848)"><g><path d="M 9.5 -7.140625 C 9.5 -6.398438 9.734375 -5.875 10.203125 -5.5625 C 10.671875 -5.25 11.332031 -5.09375 12.1875 -5.09375 C 12.613281 -5.09375 13.054688 -5.125 13.515625 -5.1875 C 13.972656 -5.257812 14.375 -5.351562 14.71875 -5.46875 C 14.96875 -5.15625 15.1875 -4.804688 15.375 -4.421875 C 15.5625 -4.035156 15.65625 -3.570312 15.65625 -3.03125 C 15.65625 -1.945312 15.25 -1.0625 14.4375 -0.375 C 13.625 0.300781 12.191406 0.640625 10.140625 0.640625 C 7.628906 0.640625 5.695312 0.0703125 4.34375 -1.0625 C 2.988281 -2.207031 2.3125 -4.0625 2.3125 -6.625 L 2.3125 -24.9375 C 2.625 -25.019531 3.070312 -25.109375 3.65625 -25.203125 C 4.238281 -25.304688 4.859375 -25.359375 5.515625 -25.359375 C 6.773438 -25.359375 7.753906 -25.132812 8.453125 -24.6875 C 9.148438 -24.25 9.5 -23.316406 9.5 -21.890625 L 9.5 -19.15625 L 15.09375 -19.15625 C 15.269531 -18.84375 15.4375 -18.453125 15.59375 -17.984375 C 15.75 -17.515625 15.828125 -16.992188 15.828125 -16.421875 C 15.828125 -15.421875 15.601562 -14.695312 15.15625 -14.25 C 14.71875 -13.8125 14.128906 -13.59375 13.390625 -13.59375 L 9.5 -13.59375 Z M 9.5 -7.140625 "/></g></g></g><g fill="#01a58d" fill-opacity="1"><g transform="translate(170.991224, 270.581848)"><g/></g></g><g fill="#01a58d" fill-opacity="1"><g transform="translate(178.688119, 270.581848)"><g><path d="M 10.140625 -10.3125 C 8.878906 -10.738281 7.734375 -11.171875 6.703125 -11.609375 C 5.679688 -12.054688 4.800781 -12.59375 4.0625 -13.21875 C 3.320312 -13.84375 2.742188 -14.585938 2.328125 -15.453125 C 1.910156 -16.328125 1.703125 -17.390625 1.703125 -18.640625 C 1.703125 -21.066406 2.632812 -23.003906 4.5 -24.453125 C 6.375 -25.910156 8.992188 -26.640625 12.359375 -26.640625 C 13.585938 -26.640625 14.726562 -26.550781 15.78125 -26.375 C 16.832031 -26.207031 17.734375 -25.945312 18.484375 -25.59375 C 19.242188 -25.238281 19.835938 -24.78125 20.265625 -24.21875 C 20.691406 -23.664062 20.90625 -23.019531 20.90625 -22.28125 C 20.90625 -21.539062 20.734375 -20.90625 20.390625 -20.375 C 20.054688 -19.851562 19.644531 -19.40625 19.15625 -19.03125 C 18.53125 -19.425781 17.6875 -19.773438 16.625 -20.078125 C 15.570312 -20.378906 14.421875 -20.53125 13.171875 -20.53125 C 11.890625 -20.53125 10.945312 -20.347656 10.34375 -19.984375 C 9.75 -19.628906 9.453125 -19.179688 9.453125 -18.640625 C 9.453125 -18.210938 9.632812 -17.863281 10 -17.59375 C 10.375 -17.320312 10.929688 -17.070312 11.671875 -16.84375 L 13.9375 -16.125 C 16.625 -15.269531 18.6875 -14.175781 20.125 -12.84375 C 21.5625 -11.519531 22.28125 -9.71875 22.28125 -7.4375 C 22.28125 -5.019531 21.320312 -3.0625 19.40625 -1.5625 C 17.5 -0.0625 14.691406 0.6875 10.984375 0.6875 C 9.679688 0.6875 8.460938 0.578125 7.328125 0.359375 C 6.203125 0.148438 5.21875 -0.160156 4.375 -0.578125 C 3.539062 -0.992188 2.882812 -1.503906 2.40625 -2.109375 C 1.9375 -2.722656 1.703125 -3.429688 1.703125 -4.234375 C 1.703125 -5.054688 1.945312 -5.757812 2.4375 -6.34375 C 2.925781 -6.9375 3.453125 -7.390625 4.015625 -7.703125 C 4.816406 -7.066406 5.796875 -6.519531 6.953125 -6.0625 C 8.109375 -5.613281 9.367188 -5.390625 10.734375 -5.390625 C 12.128906 -5.390625 13.113281 -5.601562 13.6875 -6.03125 C 14.257812 -6.457031 14.546875 -6.957031 14.546875 -7.53125 C 14.546875 -8.09375 14.316406 -8.523438 13.859375 -8.828125 C 13.398438 -9.128906 12.757812 -9.421875 11.9375 -9.703125 Z M 10.140625 -10.3125 "/></g></g></g><g fill="#01a58d" fill-opacity="1"><g transform="translate(201.394386, 270.581848)"><g><path d="M 11.765625 -21.421875 C 13.472656 -21.421875 15.0625 -21.195312 16.53125 -20.75 C 18 -20.3125 19.257812 -19.632812 20.3125 -18.71875 C 21.363281 -17.8125 22.1875 -16.664062 22.78125 -15.28125 C 23.382812 -13.90625 23.6875 -12.257812 23.6875 -10.34375 C 23.6875 -8.519531 23.429688 -6.921875 22.921875 -5.546875 C 22.410156 -4.179688 21.679688 -3.035156 20.734375 -2.109375 C 19.796875 -1.191406 18.664062 -0.503906 17.34375 -0.046875 C 16.019531 0.410156 14.546875 0.640625 12.921875 0.640625 C 11.691406 0.640625 10.550781 0.453125 9.5 0.078125 L 9.5 7.1875 C 9.207031 7.269531 8.75 7.359375 8.125 7.453125 C 7.5 7.554688 6.859375 7.609375 6.203125 7.609375 C 5.578125 7.609375 5.015625 7.566406 4.515625 7.484375 C 4.015625 7.398438 3.59375 7.226562 3.25 6.96875 C 2.90625 6.707031 2.644531 6.359375 2.46875 5.921875 C 2.300781 5.484375 2.21875 4.90625 2.21875 4.1875 L 2.21875 -16.34375 C 2.21875 -17.101562 2.378906 -17.722656 2.703125 -18.203125 C 3.035156 -18.691406 3.488281 -19.140625 4.0625 -19.546875 C 4.945312 -20.117188 6.046875 -20.570312 7.359375 -20.90625 C 8.671875 -21.25 10.140625 -21.421875 11.765625 -21.421875 Z M 11.84375 -5.09375 C 14.78125 -5.09375 16.25 -6.84375 16.25 -10.34375 C 16.25 -12.175781 15.882812 -13.53125 15.15625 -14.40625 C 14.425781 -15.289062 13.378906 -15.734375 12.015625 -15.734375 C 11.472656 -15.734375 10.988281 -15.671875 10.5625 -15.546875 C 10.132812 -15.421875 9.765625 -15.269531 9.453125 -15.09375 L 9.453125 -5.6875 C 9.796875 -5.519531 10.164062 -5.378906 10.5625 -5.265625 C 10.957031 -5.148438 11.382812 -5.09375 11.84375 -5.09375 Z M 11.84375 -5.09375 "/></g></g></g><g fill="#01a58d" fill-opacity="1"><g transform="translate(225.55455, 270.581848)"><g><path d="M 23.734375 -10.390625 C 23.734375 -8.617188 23.460938 -7.039062 22.921875 -5.65625 C 22.378906 -4.28125 21.613281 -3.117188 20.625 -2.171875 C 19.644531 -1.234375 18.46875 -0.519531 17.09375 -0.03125 C 15.726562 0.445312 14.207031 0.6875 12.53125 0.6875 C 10.84375 0.6875 9.316406 0.429688 7.953125 -0.078125 C 6.585938 -0.597656 5.410156 -1.332031 4.421875 -2.28125 C 3.441406 -3.238281 2.679688 -4.398438 2.140625 -5.765625 C 1.597656 -7.140625 1.328125 -8.679688 1.328125 -10.390625 C 1.328125 -12.078125 1.597656 -13.601562 2.140625 -14.96875 C 2.679688 -16.332031 3.441406 -17.492188 4.421875 -18.453125 C 5.410156 -19.410156 6.585938 -20.144531 7.953125 -20.65625 C 9.316406 -21.164062 10.84375 -21.421875 12.53125 -21.421875 C 14.207031 -21.421875 15.726562 -21.15625 17.09375 -20.625 C 18.46875 -20.101562 19.644531 -19.363281 20.625 -18.40625 C 21.613281 -17.457031 22.378906 -16.296875 22.921875 -14.921875 C 23.460938 -13.554688 23.734375 -12.046875 23.734375 -10.390625 Z M 8.765625 -10.390625 C 8.765625 -8.648438 9.097656 -7.316406 9.765625 -6.390625 C 10.441406 -5.460938 11.378906 -5 12.578125 -5 C 13.773438 -5 14.691406 -5.46875 15.328125 -6.40625 C 15.972656 -7.351562 16.296875 -8.679688 16.296875 -10.390625 C 16.296875 -12.097656 15.96875 -13.414062 15.3125 -14.34375 C 14.65625 -15.269531 13.726562 -15.734375 12.53125 -15.734375 C 11.332031 -15.734375 10.40625 -15.269531 9.75 -14.34375 C 9.09375 -13.414062 8.765625 -12.097656 8.765625 -10.390625 Z M 8.765625 -10.390625 "/></g></g></g><g fill="#01a58d" fill-opacity="1"><g transform="translate(249.757475, 270.581848)"><g><path d="M 9.5 -7.140625 C 9.5 -6.398438 9.734375 -5.875 10.203125 -5.5625 C 10.671875 -5.25 11.332031 -5.09375 12.1875 -5.09375 C 12.613281 -5.09375 13.054688 -5.125 13.515625 -5.1875 C 13.972656 -5.257812 14.375 -5.351562 14.71875 -5.46875 C 14.96875 -5.15625 15.1875 -4.804688 15.375 -4.421875 C 15.5625 -4.035156 15.65625 -3.570312 15.65625 -3.03125 C 15.65625 -1.945312 15.25 -1.0625 14.4375 -0.375 C 13.625 0.300781 12.191406 0.640625 10.140625 0.640625 C 7.628906 0.640625 5.695312 0.0703125 4.34375 -1.0625 C 2.988281 -2.207031 2.3125 -4.0625 2.3125 -6.625 L 2.3125 -24.9375 C 2.625 -25.019531 3.070312 -25.109375 3.65625 -25.203125 C 4.238281 -25.304688 4.859375 -25.359375 5.515625 -25.359375 C 6.773438 -25.359375 7.753906 -25.132812 8.453125 -24.6875 C 9.148438 -24.25 9.5 -23.316406 9.5 -21.890625 L 9.5 -19.15625 L 15.09375 -19.15625 C 15.269531 -18.84375 15.4375 -18.453125 15.59375 -17.984375 C 15.75 -17.515625 15.828125 -16.992188 15.828125 -16.421875 C 15.828125 -15.421875 15.601562 -14.695312 15.15625 -14.25 C 14.71875 -13.8125 14.128906 -13.59375 13.390625 -13.59375 L 9.5 -13.59375 Z M 9.5 -7.140625 "/></g></g></g><g fill="#000000" fill-opacity="1"><g transform="translate(103.03324, 293.802228)"><g><path d="M 5.484375 -1.625 L 1.984375 -1.625 L 1.296875 0 L -0.046875 0 L 3.109375 -7.015625 L 4.390625 -7.015625 L 7.546875 0 L 6.1875 0 Z M 5.0625 -2.640625 L 3.734375 -5.703125 L 2.421875 -2.640625 Z M 5.0625 -2.640625 "/></g></g></g><g fill="#000000" fill-opacity="1"><g transform="translate(113.695167, 293.802228)"><g><path d="M 0.9375 -7.015625 L 4 -7.015625 C 4.75 -7.015625 5.414062 -6.867188 6 -6.578125 C 6.582031 -6.285156 7.03125 -5.875 7.34375 -5.34375 C 7.664062 -4.8125 7.828125 -4.195312 7.828125 -3.5 C 7.828125 -2.8125 7.664062 -2.203125 7.34375 -1.671875 C 7.03125 -1.140625 6.582031 -0.726562 6 -0.4375 C 5.414062 -0.144531 4.75 0 4 0 L 0.9375 0 Z M 3.953125 -1.109375 C 4.460938 -1.109375 4.910156 -1.203125 5.296875 -1.390625 C 5.691406 -1.585938 5.992188 -1.867188 6.203125 -2.234375 C 6.410156 -2.597656 6.515625 -3.019531 6.515625 -3.5 C 6.515625 -3.988281 6.410156 -4.410156 6.203125 -4.765625 C 5.992188 -5.128906 5.691406 -5.410156 5.296875 -5.609375 C 4.910156 -5.804688 4.460938 -5.90625 3.953125 -5.90625 L 2.25 -5.90625 L 2.25 -1.109375 Z M 3.953125 -1.109375 "/></g></g></g><g fill="#000000" fill-opacity="1"><g transform="translate(125.128598, 293.802228)"><g><path d="M 4.21875 0.09375 C 3.5 0.09375 2.851562 -0.0546875 2.28125 -0.359375 C 1.707031 -0.671875 1.253906 -1.101562 0.921875 -1.65625 C 0.597656 -2.207031 0.4375 -2.820312 0.4375 -3.5 C 0.4375 -4.1875 0.597656 -4.804688 0.921875 -5.359375 C 1.253906 -5.910156 1.707031 -6.335938 2.28125 -6.640625 C 2.851562 -6.953125 3.5 -7.109375 4.21875 -7.109375 C 4.925781 -7.109375 5.566406 -6.953125 6.140625 -6.640625 C 6.722656 -6.335938 7.175781 -5.910156 7.5 -5.359375 C 7.832031 -4.804688 8 -4.1875 8 -3.5 C 8 -2.8125 7.832031 -2.191406 7.5 -1.640625 C 7.175781 -1.097656 6.722656 -0.671875 6.140625 -0.359375 C 5.566406 -0.0546875 4.925781 0.09375 4.21875 0.09375 Z M 4.21875 -1.046875 C 4.6875 -1.046875 5.109375 -1.148438 5.484375 -1.359375 C 5.859375 -1.566406 6.148438 -1.859375 6.359375 -2.234375 C 6.578125 -2.609375 6.6875 -3.03125 6.6875 -3.5 C 6.6875 -3.96875 6.578125 -4.390625 6.359375 -4.765625 C 6.148438 -5.148438 5.859375 -5.445312 5.484375 -5.65625 C 5.109375 -5.863281 4.6875 -5.96875 4.21875 -5.96875 C 3.75 -5.96875 3.328125 -5.863281 2.953125 -5.65625 C 2.578125 -5.445312 2.28125 -5.148438 2.0625 -4.765625 C 1.851562 -4.390625 1.75 -3.96875 1.75 -3.5 C 1.75 -3.03125 1.851562 -2.609375 2.0625 -2.234375 C 2.28125 -1.859375 2.578125 -1.566406 2.953125 -1.359375 C 3.328125 -1.148438 3.75 -1.046875 4.21875 -1.046875 Z M 4.21875 -1.046875 "/></g></g></g><g fill="#000000" fill-opacity="1"><g transform="translate(136.722338, 293.802228)"><g><path d="M 4.1875 0.09375 C 3.476562 0.09375 2.835938 -0.0546875 2.265625 -0.359375 C 1.691406 -0.671875 1.242188 -1.097656 0.921875 -1.640625 C 0.597656 -2.191406 0.4375 -2.8125 0.4375 -3.5 C 0.4375 -4.1875 0.597656 -4.804688 0.921875 -5.359375 C 1.253906 -5.910156 1.707031 -6.335938 2.28125 -6.640625 C 2.851562 -6.953125 3.492188 -7.109375 4.203125 -7.109375 C 4.773438 -7.109375 5.296875 -7.007812 5.765625 -6.8125 C 6.242188 -6.613281 6.644531 -6.320312 6.96875 -5.9375 L 6.125 -5.140625 C 5.625 -5.691406 5 -5.96875 4.25 -5.96875 C 3.769531 -5.96875 3.335938 -5.863281 2.953125 -5.65625 C 2.578125 -5.445312 2.28125 -5.15625 2.0625 -4.78125 C 1.851562 -4.40625 1.75 -3.976562 1.75 -3.5 C 1.75 -3.03125 1.851562 -2.609375 2.0625 -2.234375 C 2.28125 -1.859375 2.578125 -1.566406 2.953125 -1.359375 C 3.335938 -1.148438 3.769531 -1.046875 4.25 -1.046875 C 5 -1.046875 5.625 -1.320312 6.125 -1.875 L 6.96875 -1.078125 C 6.644531 -0.691406 6.242188 -0.398438 5.765625 -0.203125 C 5.285156 -0.00390625 4.757812 0.09375 4.1875 0.09375 Z M 3.71875 2.28125 C 3.351562 2.28125 3.046875 2.210938 2.796875 2.078125 L 3.03125 1.484375 C 3.238281 1.585938 3.460938 1.640625 3.703125 1.640625 C 4.054688 1.640625 4.234375 1.519531 4.234375 1.28125 C 4.234375 1.175781 4.191406 1.09375 4.109375 1.03125 C 4.023438 0.976562 3.890625 0.953125 3.703125 0.953125 L 3.40625 0.953125 L 3.671875 -0.0625 L 4.34375 -0.0625 L 4.21875 0.484375 C 4.5 0.523438 4.710938 0.617188 4.859375 0.765625 C 5.003906 0.910156 5.078125 1.097656 5.078125 1.328125 C 5.078125 1.617188 4.953125 1.847656 4.703125 2.015625 C 4.460938 2.191406 4.132812 2.28125 3.71875 2.28125 Z M 3.71875 2.28125 "/></g></g></g><g fill="#000000" fill-opacity="1"><g transform="translate(147.16384, 293.802228)"><g><path d="M 5.484375 -1.625 L 1.984375 -1.625 L 1.296875 0 L -0.046875 0 L 3.109375 -7.015625 L 4.390625 -7.015625 L 7.546875 0 L 6.1875 0 Z M 5.0625 -2.640625 L 3.734375 -5.703125 L 2.421875 -2.640625 Z M 4.46875 -7.578125 C 4.300781 -7.578125 4.15625 -7.609375 4.03125 -7.671875 C 3.90625 -7.742188 3.753906 -7.847656 3.578125 -7.984375 C 3.472656 -8.066406 3.382812 -8.128906 3.3125 -8.171875 C 3.238281 -8.222656 3.171875 -8.25 3.109375 -8.25 C 2.960938 -8.25 2.84375 -8.191406 2.75 -8.078125 C 2.664062 -7.972656 2.617188 -7.828125 2.609375 -7.640625 L 1.9375 -7.640625 C 1.945312 -8.046875 2.050781 -8.367188 2.25 -8.609375 C 2.445312 -8.859375 2.707031 -8.984375 3.03125 -8.984375 C 3.195312 -8.984375 3.335938 -8.945312 3.453125 -8.875 C 3.578125 -8.8125 3.734375 -8.710938 3.921875 -8.578125 C 4.023438 -8.492188 4.109375 -8.429688 4.171875 -8.390625 C 4.242188 -8.347656 4.316406 -8.328125 4.390625 -8.328125 C 4.523438 -8.328125 4.632812 -8.375 4.71875 -8.46875 C 4.8125 -8.570312 4.863281 -8.710938 4.875 -8.890625 L 5.546875 -8.890625 C 5.535156 -8.492188 5.429688 -8.175781 5.234375 -7.9375 C 5.046875 -7.695312 4.789062 -7.578125 4.46875 -7.578125 Z M 4.46875 -7.578125 "/></g></g></g><g fill="#000000" fill-opacity="1"><g transform="translate(157.825768, 293.802228)"><g><path d="M 4.21875 0.09375 C 3.5 0.09375 2.851562 -0.0546875 2.28125 -0.359375 C 1.707031 -0.671875 1.253906 -1.101562 0.921875 -1.65625 C 0.597656 -2.207031 0.4375 -2.820312 0.4375 -3.5 C 0.4375 -4.1875 0.597656 -4.804688 0.921875 -5.359375 C 1.253906 -5.910156 1.707031 -6.335938 2.28125 -6.640625 C 2.851562 -6.953125 3.5 -7.109375 4.21875 -7.109375 C 4.925781 -7.109375 5.566406 -6.953125 6.140625 -6.640625 C 6.722656 -6.335938 7.175781 -5.910156 7.5 -5.359375 C 7.832031 -4.804688 8 -4.1875 8 -3.5 C 8 -2.8125 7.832031 -2.191406 7.5 -1.640625 C 7.175781 -1.097656 6.722656 -0.671875 6.140625 -0.359375 C 5.566406 -0.0546875 4.925781 0.09375 4.21875 0.09375 Z M 4.21875 -1.046875 C 4.6875 -1.046875 5.109375 -1.148438 5.484375 -1.359375 C 5.859375 -1.566406 6.148438 -1.859375 6.359375 -2.234375 C 6.578125 -2.609375 6.6875 -3.03125 6.6875 -3.5 C 6.6875 -3.96875 6.578125 -4.390625 6.359375 -4.765625 C 6.148438 -5.148438 5.859375 -5.445312 5.484375 -5.65625 C 5.109375 -5.863281 4.6875 -5.96875 4.21875 -5.96875 C 3.75 -5.96875 3.328125 -5.863281 2.953125 -5.65625 C 2.578125 -5.445312 2.28125 -5.148438 2.0625 -4.765625 C 1.851562 -4.390625 1.75 -3.96875 1.75 -3.5 C 1.75 -3.03125 1.851562 -2.609375 2.0625 -2.234375 C 2.28125 -1.859375 2.578125 -1.566406 2.953125 -1.359375 C 3.328125 -1.148438 3.75 -1.046875 4.21875 -1.046875 Z M 4.21875 -1.046875 "/></g></g></g><g fill="#000000" fill-opacity="1"><g transform="translate(169.419508, 293.802228)"><g/></g></g><g fill="#000000" fill-opacity="1"><g transform="translate(175.34222, 293.802228)"><g><path d="M 4.1875 0.09375 C 3.476562 0.09375 2.835938 -0.0546875 2.265625 -0.359375 C 1.691406 -0.671875 1.242188 -1.097656 0.921875 -1.640625 C 0.597656 -2.191406 0.4375 -2.8125 0.4375 -3.5 C 0.4375 -4.1875 0.597656 -4.804688 0.921875 -5.359375 C 1.253906 -5.910156 1.707031 -6.335938 2.28125 -6.640625 C 2.851562 -6.953125 3.492188 -7.109375 4.203125 -7.109375 C 4.773438 -7.109375 5.296875 -7.007812 5.765625 -6.8125 C 6.242188 -6.613281 6.644531 -6.320312 6.96875 -5.9375 L 6.125 -5.140625 C 5.625 -5.691406 5 -5.96875 4.25 -5.96875 C 3.769531 -5.96875 3.335938 -5.863281 2.953125 -5.65625 C 2.578125 -5.445312 2.28125 -5.15625 2.0625 -4.78125 C 1.851562 -4.40625 1.75 -3.976562 1.75 -3.5 C 1.75 -3.03125 1.851562 -2.609375 2.0625 -2.234375 C 2.28125 -1.859375 2.578125 -1.566406 2.953125 -1.359375 C 3.335938 -1.148438 3.769531 -1.046875 4.25 -1.046875 C 5 -1.046875 5.625 -1.320312 6.125 -1.875 L 6.96875 -1.078125 C 6.644531 -0.691406 6.242188 -0.398438 5.765625 -0.203125 C 5.285156 -0.00390625 4.757812 0.09375 4.1875 0.09375 Z M 4.1875 0.09375 "/></g></g></g><g fill="#000000" fill-opacity="1"><g transform="translate(185.783722, 293.802228)"><g><path d="M 4.21875 0.09375 C 3.5 0.09375 2.851562 -0.0546875 2.28125 -0.359375 C 1.707031 -0.671875 1.253906 -1.101562 0.921875 -1.65625 C 0.597656 -2.207031 0.4375 -2.820312 0.4375 -3.5 C 0.4375 -4.1875 0.597656 -4.804688 0.921875 -5.359375 C 1.253906 -5.910156 1.707031 -6.335938 2.28125 -6.640625 C 2.851562 -6.953125 3.5 -7.109375 4.21875 -7.109375 C 4.925781 -7.109375 5.566406 -6.953125 6.140625 -6.640625 C 6.722656 -6.335938 7.175781 -5.910156 7.5 -5.359375 C 7.832031 -4.804688 8 -4.1875 8 -3.5 C 8 -2.8125 7.832031 -2.191406 7.5 -1.640625 C 7.175781 -1.097656 6.722656 -0.671875 6.140625 -0.359375 C 5.566406 -0.0546875 4.925781 0.09375 4.21875 0.09375 Z M 4.21875 -1.046875 C 4.6875 -1.046875 5.109375 -1.148438 5.484375 -1.359375 C 5.859375 -1.566406 6.148438 -1.859375 6.359375 -2.234375 C 6.578125 -2.609375 6.6875 -3.03125 6.6875 -3.5 C 6.6875 -3.96875 6.578125 -4.390625 6.359375 -4.765625 C 6.148438 -5.148438 5.859375 -5.445312 5.484375 -5.65625 C 5.109375 -5.863281 4.6875 -5.96875 4.21875 -5.96875 C 3.75 -5.96875 3.328125 -5.863281 2.953125 -5.65625 C 2.578125 -5.445312 2.28125 -5.148438 2.0625 -4.765625 C 1.851562 -4.390625 1.75 -3.96875 1.75 -3.5 C 1.75 -3.03125 1.851562 -2.609375 2.0625 -2.234375 C 2.28125 -1.859375 2.578125 -1.566406 2.953125 -1.359375 C 3.328125 -1.148438 3.75 -1.046875 4.21875 -1.046875 Z M 4.21875 -1.046875 "/></g></g></g><g fill="#000000" fill-opacity="1"><g transform="translate(197.377462, 293.802228)"><g><path d="M 7.171875 -7.015625 L 7.171875 0 L 6.09375 0 L 2.234375 -4.75 L 2.234375 0 L 0.9375 0 L 0.9375 -7.015625 L 2.015625 -7.015625 L 5.875 -2.265625 L 5.875 -7.015625 Z M 7.171875 -7.015625 "/></g></g></g><g fill="#000000" fill-opacity="1"><g transform="translate(208.650584, 293.802228)"><g><path d="M 3.109375 0.09375 C 2.566406 0.09375 2.046875 0.0195312 1.546875 -0.125 C 1.046875 -0.28125 0.644531 -0.484375 0.34375 -0.734375 L 0.796875 -1.75 C 1.085938 -1.519531 1.441406 -1.332031 1.859375 -1.1875 C 2.273438 -1.050781 2.691406 -0.984375 3.109375 -0.984375 C 3.628906 -0.984375 4.019531 -1.066406 4.28125 -1.234375 C 4.539062 -1.398438 4.671875 -1.617188 4.671875 -1.890625 C 4.671875 -2.085938 4.597656 -2.25 4.453125 -2.375 C 4.304688 -2.507812 4.125 -2.613281 3.90625 -2.6875 C 3.6875 -2.757812 3.382812 -2.84375 3 -2.9375 C 2.46875 -3.070312 2.035156 -3.203125 1.703125 -3.328125 C 1.378906 -3.453125 1.097656 -3.648438 0.859375 -3.921875 C 0.617188 -4.191406 0.5 -4.554688 0.5 -5.015625 C 0.5 -5.398438 0.601562 -5.75 0.8125 -6.0625 C 1.019531 -6.382812 1.335938 -6.640625 1.765625 -6.828125 C 2.191406 -7.015625 2.710938 -7.109375 3.328125 -7.109375 C 3.753906 -7.109375 4.171875 -7.054688 4.578125 -6.953125 C 4.992188 -6.847656 5.351562 -6.691406 5.65625 -6.484375 L 5.25 -5.484375 C 4.9375 -5.660156 4.613281 -5.796875 4.28125 -5.890625 C 3.945312 -5.984375 3.625 -6.03125 3.3125 -6.03125 C 2.800781 -6.03125 2.421875 -5.941406 2.171875 -5.765625 C 1.921875 -5.597656 1.796875 -5.367188 1.796875 -5.078125 C 1.796875 -4.878906 1.863281 -4.710938 2 -4.578125 C 2.144531 -4.453125 2.328125 -4.351562 2.546875 -4.28125 C 2.773438 -4.207031 3.078125 -4.125 3.453125 -4.03125 C 3.972656 -3.914062 4.398438 -3.789062 4.734375 -3.65625 C 5.066406 -3.53125 5.351562 -3.332031 5.59375 -3.0625 C 5.832031 -2.800781 5.953125 -2.441406 5.953125 -1.984375 C 5.953125 -1.597656 5.84375 -1.242188 5.625 -0.921875 C 5.414062 -0.609375 5.097656 -0.359375 4.671875 -0.171875 C 4.242188 0.00390625 3.722656 0.09375 3.109375 0.09375 Z M 3.109375 0.09375 "/></g></g></g><g fill="#000000" fill-opacity="1"><g transform="translate(218.110167, 293.802228)"><g><path d="M 4.1875 0.09375 C 3.476562 0.09375 2.835938 -0.0546875 2.265625 -0.359375 C 1.691406 -0.671875 1.242188 -1.097656 0.921875 -1.640625 C 0.597656 -2.191406 0.4375 -2.8125 0.4375 -3.5 C 0.4375 -4.1875 0.597656 -4.804688 0.921875 -5.359375 C 1.253906 -5.910156 1.707031 -6.335938 2.28125 -6.640625 C 2.851562 -6.953125 3.492188 -7.109375 4.203125 -7.109375 C 4.773438 -7.109375 5.296875 -7.007812 5.765625 -6.8125 C 6.242188 -6.613281 6.644531 -6.320312 6.96875 -5.9375 L 6.125 -5.140625 C 5.625 -5.691406 5 -5.96875 4.25 -5.96875 C 3.769531 -5.96875 3.335938 -5.863281 2.953125 -5.65625 C 2.578125 -5.445312 2.28125 -5.15625 2.0625 -4.78125 C 1.851562 -4.40625 1.75 -3.976562 1.75 -3.5 C 1.75 -3.03125 1.851562 -2.609375 2.0625 -2.234375 C 2.28125 -1.859375 2.578125 -1.566406 2.953125 -1.359375 C 3.335938 -1.148438 3.769531 -1.046875 4.25 -1.046875 C 5 -1.046875 5.625 -1.320312 6.125 -1.875 L 6.96875 -1.078125 C 6.644531 -0.691406 6.242188 -0.398438 5.765625 -0.203125 C 5.285156 -0.00390625 4.757812 0.09375 4.1875 0.09375 Z M 4.1875 0.09375 "/></g></g></g><g fill="#000000" fill-opacity="1"><g transform="translate(228.551664, 293.802228)"><g><path d="M 0.9375 -7.015625 L 2.25 -7.015625 L 2.25 0 L 0.9375 0 Z M 0.9375 -7.015625 "/></g></g></g><g fill="#000000" fill-opacity="1"><g transform="translate(234.905217, 293.802228)"><g><path d="M 6.203125 -1.09375 L 6.203125 0 L 0.9375 0 L 0.9375 -7.015625 L 6.0625 -7.015625 L 6.0625 -5.921875 L 2.25 -5.921875 L 2.25 -4.09375 L 5.625 -4.09375 L 5.625 -3.03125 L 2.25 -3.03125 L 2.25 -1.09375 Z M 6.203125 -1.09375 "/></g></g></g><g fill="#000000" fill-opacity="1"><g transform="translate(244.775608, 293.802228)"><g><path d="M 7.171875 -7.015625 L 7.171875 0 L 6.09375 0 L 2.234375 -4.75 L 2.234375 0 L 0.9375 0 L 0.9375 -7.015625 L 2.015625 -7.015625 L 5.875 -2.265625 L 5.875 -7.015625 Z M 7.171875 -7.015625 "/></g></g></g><g fill="#000000" fill-opacity="1"><g transform="translate(256.048725, 293.802228)"><g><path d="M 2.359375 -5.90625 L 0.046875 -5.90625 L 0.046875 -7.015625 L 5.984375 -7.015625 L 5.984375 -5.90625 L 3.671875 -5.90625 L 3.671875 0 L 2.359375 0 Z M 2.359375 -5.90625 "/></g></g></g><g fill="#000000" fill-opacity="1"><g transform="translate(265.237781, 293.802228)"><g><path d="M 6.203125 -1.09375 L 6.203125 0 L 0.9375 0 L 0.9375 -7.015625 L 6.0625 -7.015625 L 6.0625 -5.921875 L 2.25 -5.921875 L 2.25 -4.09375 L 5.625 -4.09375 L 5.625 -3.03125 L 2.25 -3.03125 L 2.25 -1.09375 Z M 6.203125 -1.09375 "/></g></g></g></svg>